<svg width="4132" height="986" xmlns="http://www.w3.org/2000/svg" xmlns:xlink="http://www.w3.org/1999/xlink" overflow="hidden"><defs><clipPath id="clip0"><rect x="123" y="1373" width="4132" height="986"/></clipPath></defs><g clip-path="url(#clip0)" transform="translate(-123 -1373)"><path d="M0.0226008-6.87496 855.527-4.06258 855.482 9.68735-0.0226008 6.87496ZM848.698-17.8351 889.88 2.92539 848.562 23.4147Z" transform="matrix(1 0 0 -1 612 2192.93)"/><path d="M6.875-3.23796e-06 6.87534 731.889-6.87466 731.889-6.875 3.23796e-06ZM20.6253 725.014 0.000360892 766.264-20.6247 725.014Z" transform="matrix(1 0 0 -1 612 2193.26)"/><text font-family="Calibri,Calibri_MSFontService,sans-serif" font-weight="700" font-size="83" transform="matrix(1 0 0 1 850.863 2287)">Write Throughput<tspan font-size="83" x="-677.96" y="-767">Read</tspan><tspan font-size="83" x="-677.96" y="-668">Throughput</tspan></text><path d="M610 2007 936.944 2193.39" stroke="#4472C4" stroke-width="13.75" stroke-miterlimit="8" fill="none" fill-rule="evenodd"/><path d="M0.0226008-6.87496 855.527-4.06258 855.482 9.68735-0.0226008 6.87496ZM848.698-17.8351 889.88 2.92539 848.562 23.4147Z" transform="matrix(1 0 0 -1 1973 2189.93)"/><path d="M6.875-3.23796e-06 6.87534 731.889-6.87466 731.889-6.875 3.23796e-06ZM20.6253 725.014 0.000360892 766.264-20.6247 725.014Z" transform="matrix(1 0 0 -1 1973 2190.26)"/><text font-family="Calibri,Calibri_MSFontService,sans-serif" font-weight="700" font-size="83" transform="matrix(1 0 0 1 2212.48 2284)">Write Throughput<tspan font-size="83" x="-677.96" y="-767">Read</tspan><tspan font-size="83" x="-677.96" y="-668">Throughput</tspan></text><path d="M1972 2004 2298.94 2190.39" stroke="#4472C4" stroke-width="13.75" stroke-miterlimit="8" fill="none" fill-rule="evenodd"/><path d="M610 1874 770.076 2190.26" stroke="#ED7D31" stroke-width="13.75" stroke-miterlimit="8" fill="none" fill-rule="evenodd"/><path d="M1979 1680 2139.08 1996.26" stroke="#ED7D31" stroke-width="13.75" stroke-miterlimit="8" fill="none" fill-rule="evenodd"/><path d="M2304 1869 2464.08 2185.26" stroke="#ED7D31" stroke-width="13.75" stroke-miterlimit="8" fill="none" fill-rule="evenodd"/><path d="M1982 1684 2308.94 1870.39" stroke="#4472C4" stroke-width="13.75" stroke-miterlimit="8" stroke-dasharray="13.75 13.75" fill="none" fill-rule="evenodd"/><path d="M2138 1991 2464.94 2177.39" stroke="#4472C4" stroke-width="13.75" stroke-miterlimit="8" stroke-dasharray="13.75 13.75" fill="none" fill-rule="evenodd"/><path d="M0.0226008-6.87496 855.527-4.06258 855.482 9.68735-0.0226008 6.87496ZM848.698-17.8351 889.88 2.92539 848.562 23.4147Z" transform="matrix(1 0 0 -1 3322 2181.93)"/><path d="M6.875-3.23796e-06 6.87534 731.889-6.87466 731.889-6.875 3.23796e-06ZM20.6253 725.014 0.000360892 766.264-20.6247 725.014Z" transform="matrix(1 0 0 -1 3322 2182.26)"/><text font-family="Calibri,Calibri_MSFontService,sans-serif" font-weight="700" font-size="83" transform="matrix(1 0 0 1 3561.53 2276)">Write Throughput<tspan font-size="83" x="-677.96" y="-767">Read</tspan><tspan font-size="83" x="-677.96" y="-668">Throughput</tspan></text><path d="M3321 1996 3647.94 2182.39" stroke="#4472C4" stroke-width="13.75" stroke-miterlimit="8" fill="none" fill-rule="evenodd"/><path d="M3653 1861 3813.08 2177.26" stroke="#C00000" stroke-width="13.75" stroke-miterlimit="8" fill="none" fill-rule="evenodd"/><path d="M3331 1676 3657.94 1862.39" stroke="#C00000" stroke-width="13.75" stroke-miterlimit="8" fill="none" fill-rule="evenodd"/><path d="M1974 1880 2134.08 2196.26" stroke="#ED7D31" stroke-width="13.75" stroke-miterlimit="8" fill="none" fill-rule="evenodd"/><path d="M3327 1864 3487.08 2180.26" stroke="#ED7D31" stroke-width="13.75" stroke-miterlimit="8" fill="none" fill-rule="evenodd"/></g></svg>