<?xml version="1.0" encoding="utf-8" standalone="no"?>
<!DOCTYPE svg PUBLIC "-//W3C//DTD SVG 1.1//EN"
  "http://www.w3.org/Graphics/SVG/1.1/DTD/svg11.dtd">
<!-- Created with matplotlib (https://matplotlib.org/) -->
<svg height="288pt" version="1.1" viewBox="0 0 432 288" width="432pt" xmlns="http://www.w3.org/2000/svg" xmlns:xlink="http://www.w3.org/1999/xlink">
 <metadata>
  <rdf:RDF xmlns:cc="http://creativecommons.org/ns#" xmlns:dc="http://purl.org/dc/elements/1.1/" xmlns:rdf="http://www.w3.org/1999/02/22-rdf-syntax-ns#">
   <cc:Work>
    <dc:type rdf:resource="http://purl.org/dc/dcmitype/StillImage"/>
    <dc:date>2021-05-17T17:07:00.144187</dc:date>
    <dc:format>image/svg+xml</dc:format>
    <dc:creator>
     <cc:Agent>
      <dc:title>Matplotlib v3.3.4, https://matplotlib.org/</dc:title>
     </cc:Agent>
    </dc:creator>
   </cc:Work>
  </rdf:RDF>
 </metadata>
 <defs>
  <style type="text/css">*{stroke-linecap:butt;stroke-linejoin:round;}</style>
 </defs>
 <g id="figure_1">
  <g id="patch_1">
   <path d="M 0 288 
L 432 288 
L 432 0 
L 0 0 
z
" style="fill:none;"/>
  </g>
  <g id="axes_1">
   <g id="patch_2">
    <path d="M 51.675 247.16875 
L 421.2 247.16875 
L 421.2 10.8 
L 51.675 10.8 
z
" style="fill:#ffffff;"/>
   </g>
   <g id="patch_3">
    <path clip-path="url(#pc5af5f2f03)" d="M 68.471591 247.16875 
L 92.466721 247.16875 
L 92.466721 210.628653 
L 68.471591 210.628653 
z
" style="fill:url(#ha89f7e4a56);opacity:0.8;stroke:#000000;stroke-linejoin:miter;"/>
   </g>
   <g id="patch_4">
    <path clip-path="url(#pc5af5f2f03)" d="M 188.44724 247.16875 
L 212.44237 247.16875 
L 212.44237 182.78858 
L 188.44724 182.78858 
z
" style="fill:url(#ha89f7e4a56);opacity:0.8;stroke:#000000;stroke-linejoin:miter;"/>
   </g>
   <g id="patch_5">
    <path clip-path="url(#pc5af5f2f03)" d="M 308.42289 247.16875 
L 332.418019 247.16875 
L 332.418019 22.055655 
L 308.42289 22.055655 
z
" style="fill:url(#ha89f7e4a56);opacity:0.8;stroke:#000000;stroke-linejoin:miter;"/>
   </g>
   <g id="patch_6">
    <path clip-path="url(#pc5af5f2f03)" d="M 92.466721 247.16875 
L 116.461851 247.16875 
L 116.461851 231.726209 
L 92.466721 231.726209 
z
" style="fill:url(#hc552c2522e);opacity:0.8;stroke:#000000;stroke-linejoin:miter;"/>
   </g>
   <g id="patch_7">
    <path clip-path="url(#pc5af5f2f03)" d="M 212.44237 247.16875 
L 236.4375 247.16875 
L 236.4375 200.623627 
L 212.44237 200.623627 
z
" style="fill:url(#hc552c2522e);opacity:0.8;stroke:#000000;stroke-linejoin:miter;"/>
   </g>
   <g id="patch_8">
    <path clip-path="url(#pc5af5f2f03)" d="M 332.418019 247.16875 
L 356.413149 247.16875 
L 356.413149 38.803199 
L 332.418019 38.803199 
z
" style="fill:url(#hc552c2522e);opacity:0.8;stroke:#000000;stroke-linejoin:miter;"/>
   </g>
   <g id="patch_9">
    <path clip-path="url(#pc5af5f2f03)" d="M 116.461851 247.16875 
L 140.456981 247.16875 
L 140.456981 233.411839 
L 116.461851 233.411839 
z
" style="fill:url(#hf068ee2aa6);opacity:0.8;stroke:#000000;stroke-linejoin:miter;"/>
   </g>
   <g id="patch_10">
    <path clip-path="url(#pc5af5f2f03)" d="M 236.4375 247.16875 
L 260.43263 247.16875 
L 260.43263 203.396759 
L 236.4375 203.396759 
z
" style="fill:url(#hf068ee2aa6);opacity:0.8;stroke:#000000;stroke-linejoin:miter;"/>
   </g>
   <g id="patch_11">
    <path clip-path="url(#pc5af5f2f03)" d="M 356.413149 247.16875 
L 380.408279 247.16875 
L 380.408279 43.207586 
L 356.413149 43.207586 
z
" style="fill:url(#hf068ee2aa6);opacity:0.8;stroke:#000000;stroke-linejoin:miter;"/>
   </g>
   <g id="patch_12">
    <path clip-path="url(#pc5af5f2f03)" d="M 140.456981 247.16875 
L 164.45211 247.16875 
L 164.45211 233.683714 
L 140.456981 233.683714 
z
" style="fill:url(#h702cb078ce);opacity:0.8;stroke:#000000;stroke-linejoin:miter;"/>
   </g>
   <g id="patch_13">
    <path clip-path="url(#pc5af5f2f03)" d="M 260.43263 247.16875 
L 284.42776 247.16875 
L 284.42776 216.066168 
L 260.43263 216.066168 
z
" style="fill:url(#h702cb078ce);opacity:0.8;stroke:#000000;stroke-linejoin:miter;"/>
   </g>
   <g id="patch_14">
    <path clip-path="url(#pc5af5f2f03)" d="M 380.408279 247.16875 
L 404.403409 247.16875 
L 404.403409 118.843411 
L 380.408279 118.843411 
z
" style="fill:url(#h702cb078ce);opacity:0.8;stroke:#000000;stroke-linejoin:miter;"/>
   </g>
   <g id="matplotlib.axis_1">
    <g id="xtick_1">
     <g id="line2d_1">
      <defs>
       <path d="M 0 0 
L 0 3.5 
" id="m908b8f0874" style="stroke:#000000;stroke-width:0.8;"/>
      </defs>
      <g>
       <use style="stroke:#000000;stroke-width:0.8;" x="116.461851" xlink:href="#m908b8f0874" y="247.16875"/>
      </g>
     </g>
     <g id="text_1">
      <!-- 小 -->
      <g transform="translate(111.461851 261.903125)scale(0.1 -0.1)">
       <defs>
        <path d="M 54.6875 80.46875 
Q 54.296875 75 54.296875 65.625 
L 54.296875 2.734375 
Q 54.296875 -4.6875 50.390625 -6.640625 
Q 46.484375 -8.59375 37.109375 -9.375 
Q 36.328125 -4.6875 33.59375 -0.390625 
Q 42.1875 -0.390625 44.328125 0 
Q 46.484375 0.390625 46.484375 4.6875 
L 46.484375 65.625 
Q 46.484375 72.65625 46.09375 80.46875 
L 54.6875 80.46875 
z
M 32.421875 53.125 
Q 28.90625 43.359375 24.21875 30.65625 
Q 19.53125 17.96875 16.015625 11.71875 
Q 12.109375 14.84375 7.8125 15.625 
Q 14.453125 27.34375 18.359375 38.859375 
Q 22.265625 50.390625 23.4375 55.859375 
Q 28.125 53.515625 32.421875 53.125 
z
M 73.046875 56.25 
Q 88.671875 28.125 91.796875 17.96875 
Q 87.890625 17.1875 83.984375 14.453125 
Q 78.125 31.25 66.015625 51.953125 
Q 69.140625 53.515625 73.046875 56.25 
z
" id="SimHei-23567"/>
       </defs>
       <use xlink:href="#SimHei-23567"/>
      </g>
     </g>
    </g>
    <g id="xtick_2">
     <g id="line2d_2">
      <g>
       <use style="stroke:#000000;stroke-width:0.8;" x="236.4375" xlink:href="#m908b8f0874" y="247.16875"/>
      </g>
     </g>
     <g id="text_2">
      <!-- 中 -->
      <g transform="translate(231.4375 261.98125)scale(0.1 -0.1)">
       <defs>
        <path d="M 54.296875 81.25 
Q 53.90625 70.3125 53.90625 60.546875 
L 87.890625 60.546875 
Q 87.5 52.734375 87.5 39.0625 
Q 87.5 25.78125 87.890625 19.140625 
L 79.296875 19.140625 
L 79.296875 25 
L 53.90625 25 
L 53.90625 8.203125 
Q 53.90625 3.515625 54.296875 -9.375 
L 44.921875 -9.375 
Q 45.703125 -2.34375 45.703125 7.03125 
L 45.703125 25 
L 20.3125 25 
L 20.3125 19.140625 
L 11.71875 19.140625 
Q 12.109375 25 12.109375 39.0625 
Q 12.109375 53.515625 11.71875 60.546875 
L 45.703125 60.546875 
Q 45.703125 71.09375 45.3125 81.25 
z
M 79.296875 31.25 
L 79.296875 54.296875 
L 53.90625 54.296875 
L 53.90625 31.25 
z
M 45.703125 31.25 
L 45.703125 54.296875 
L 20.3125 54.296875 
L 20.3125 31.25 
z
" id="SimHei-20013"/>
       </defs>
       <use xlink:href="#SimHei-20013"/>
      </g>
     </g>
    </g>
    <g id="xtick_3">
     <g id="line2d_3">
      <g>
       <use style="stroke:#000000;stroke-width:0.8;" x="356.413149" xlink:href="#m908b8f0874" y="247.16875"/>
      </g>
     </g>
     <g id="text_3">
      <!-- 大 -->
      <g transform="translate(351.413149 261.864062)scale(0.1 -0.1)">
       <defs>
        <path d="M 45.3125 53.125 
Q 45.703125 66.796875 45.5 71.484375 
Q 45.3125 76.171875 44.921875 80.46875 
Q 49.609375 79.6875 55.46875 79.296875 
Q 54.296875 75.390625 53.703125 67.96875 
Q 53.125 60.546875 53.125 53.125 
L 73.046875 53.125 
Q 83.59375 53.125 92.578125 53.90625 
L 92.578125 45.3125 
Q 84.765625 45.703125 76.5625 45.703125 
L 53.515625 45.703125 
Q 55.078125 39.0625 58.984375 32.21875 
Q 62.890625 25.390625 66.984375 20.109375 
Q 71.09375 14.84375 78.3125 8.984375 
Q 85.546875 3.125 94.140625 -0.78125 
Q 91.015625 -3.125 87.890625 -8.59375 
Q 80.859375 -4.6875 74.015625 1.171875 
Q 67.1875 7.03125 60.34375 16.59375 
Q 53.515625 26.171875 50 34.375 
Q 46.875 25.78125 43.359375 20.109375 
Q 39.84375 14.453125 35.734375 9.765625 
Q 31.640625 5.078125 25.1875 0.390625 
Q 18.75 -4.296875 10.546875 -8.984375 
Q 7.421875 -4.296875 3.515625 -0.78125 
Q 11.71875 1.953125 19.71875 7.03125 
Q 27.734375 12.109375 32.8125 18.546875 
Q 37.890625 25 41.015625 32.03125 
Q 44.140625 39.0625 44.921875 45.703125 
L 23.4375 45.703125 
Q 14.0625 45.703125 8.59375 45.3125 
L 8.59375 53.90625 
Q 14.0625 53.515625 23.4375 53.125 
z
" id="SimHei-22823"/>
       </defs>
       <use xlink:href="#SimHei-22823"/>
      </g>
     </g>
    </g>
    <g id="text_4">
     <!-- 租户存储数据规模 -->
     <g transform="translate(196.4375 275.317187)scale(0.1 -0.1)">
      <defs>
       <path d="M 85.15625 76.171875 
Q 84.765625 70.3125 84.765625 60.546875 
L 84.765625 3.515625 
Q 88.671875 3.515625 94.53125 3.90625 
L 94.53125 -3.515625 
Q 88.28125 -3.125 83.203125 -3.125 
L 52.734375 -3.125 
Q 46.484375 -3.125 39.453125 -3.515625 
L 39.453125 3.90625 
Q 46.875 3.515625 50 3.515625 
L 50 60.546875 
Q 50 70.3125 49.609375 76.171875 
L 85.15625 76.171875 
z
M 5.859375 13.28125 
Q 12.109375 19.140625 15.8125 27.140625 
Q 19.53125 35.15625 22.265625 44.921875 
L 19.921875 44.921875 
Q 14.0625 44.921875 8.203125 44.53125 
L 8.203125 51.171875 
Q 14.0625 50.78125 19.921875 50.78125 
L 23.828125 50.78125 
L 23.828125 67.96875 
Q 20.3125 67.1875 17.578125 66.59375 
Q 14.84375 66.015625 10.546875 64.84375 
Q 10.15625 68.359375 7.421875 71.484375 
Q 18.75 73.046875 27.53125 75.390625 
Q 36.328125 77.734375 39.84375 80.46875 
Q 41.015625 77.34375 44.53125 73.046875 
Q 39.453125 71.875 36.515625 71.09375 
Q 33.59375 70.3125 31.25 69.921875 
L 31.25 50.78125 
Q 36.71875 50.78125 43.359375 51.171875 
L 43.359375 44.53125 
Q 36.71875 44.921875 31.25 44.921875 
L 31.25 3.90625 
Q 31.25 -1.5625 31.640625 -8.984375 
L 23.4375 -8.984375 
Q 23.828125 -1.5625 23.828125 3.90625 
L 23.828125 29.6875 
Q 21.09375 22.265625 18.359375 17.1875 
Q 15.625 12.109375 10.546875 6.25 
Q 8.984375 10.15625 5.859375 13.28125 
z
M 78.125 3.515625 
L 78.125 23.4375 
L 56.25 23.4375 
L 56.25 3.515625 
z
M 78.125 52.34375 
L 78.125 69.921875 
L 56.25 69.921875 
L 56.25 52.34375 
z
M 78.125 29.296875 
L 78.125 46.09375 
L 56.25 46.09375 
L 56.25 29.296875 
z
M 38.671875 37.5 
Q 45.703125 26.5625 47.65625 22.65625 
Q 44.53125 21.09375 41.40625 18.75 
Q 39.0625 25 33.203125 33.59375 
Q 35.9375 35.15625 38.671875 37.5 
z
" id="SimHei-31199"/>
       <path d="M 90.234375 63.28125 
Q 89.84375 53.90625 89.84375 41.796875 
Q 89.84375 30.078125 90.234375 23.4375 
L 81.640625 23.4375 
L 81.640625 29.296875 
L 27.34375 29.296875 
Q 25.78125 16.796875 23.4375 10.546875 
Q 21.09375 4.296875 18.359375 -0.578125 
Q 15.625 -5.46875 12.5 -9.765625 
Q 8.59375 -6.640625 3.90625 -5.078125 
Q 11.71875 3.125 14.640625 10.34375 
Q 17.578125 17.578125 18.546875 24.015625 
Q 19.53125 30.46875 19.53125 37.890625 
Q 19.53125 45.3125 19.140625 63.28125 
L 90.234375 63.28125 
z
M 81.25 36.328125 
L 81.25 56.25 
L 26.953125 56.25 
L 26.953125 36.328125 
z
M 53.125 82.421875 
Q 57.8125 73.046875 59.765625 67.578125 
Q 54.6875 66.40625 51.953125 64.84375 
Q 49.21875 73.046875 45.703125 79.296875 
Q 49.609375 80.46875 53.125 82.421875 
z
" id="SimHei-25143"/>
       <path d="M 26.5625 48.4375 
Q 31.25 54.296875 35.15625 61.71875 
L 25.78125 61.71875 
Q 18.75 61.71875 10.546875 61.328125 
L 10.546875 68.75 
Q 18.75 68.359375 25.78125 68.359375 
L 37.5 68.359375 
Q 40.625 75.390625 42.1875 82.421875 
Q 47.65625 80.078125 52.34375 79.296875 
Q 48.828125 75.78125 45.703125 68.359375 
L 76.171875 68.359375 
Q 82.421875 68.359375 90.625 68.75 
L 90.625 61.328125 
Q 82.421875 61.71875 75.78125 61.71875 
L 42.96875 61.71875 
Q 37.5 51.171875 29.296875 39.84375 
L 29.296875 3.90625 
Q 29.296875 -2.734375 29.6875 -8.984375 
L 21.875 -8.984375 
Q 22.265625 -1.5625 22.265625 3.90625 
L 22.265625 32.03125 
Q 16.015625 25.390625 11.328125 21.09375 
Q 8.203125 24.609375 4.6875 26.171875 
Q 9.375 30.078125 13.859375 33.984375 
Q 18.359375 37.890625 22.265625 42.96875 
L 21.484375 48.4375 
z
M 87.890625 49.21875 
L 87.890625 41.796875 
L 78.125 35.9375 
Q 74.21875 33.59375 69.921875 30.46875 
L 69.921875 25.78125 
L 80.859375 25.78125 
Q 87.5 25.78125 94.53125 26.171875 
L 94.53125 18.75 
Q 87.5 19.140625 80.859375 19.140625 
L 69.921875 19.140625 
L 69.921875 1.171875 
Q 70.3125 -6.640625 65.421875 -8.390625 
Q 60.546875 -10.15625 54.296875 -10.546875 
Q 53.515625 -6.25 51.5625 -1.953125 
Q 57.421875 -2.34375 59.953125 -1.75 
Q 62.5 -1.171875 62.5 1.5625 
L 62.5 19.140625 
L 48.828125 19.140625 
Q 42.1875 19.140625 35.15625 18.75 
L 35.15625 26.171875 
Q 42.1875 25.78125 48.828125 25.78125 
L 62.5 25.78125 
Q 62.5 29.6875 61.71875 33.203125 
Q 65.234375 34.765625 68.75 37.109375 
Q 72.265625 39.453125 75.390625 42.578125 
L 52.734375 42.578125 
Q 47.65625 42.578125 41.796875 42.1875 
L 41.796875 49.609375 
Q 48.046875 49.21875 52.34375 49.21875 
z
" id="SimHei-23384"/>
       <path d="M 64.453125 69.140625 
Q 64.453125 76.171875 64.0625 80.859375 
L 71.484375 80.859375 
Q 71.09375 76.5625 71.09375 69.140625 
Q 74.609375 69.140625 79.296875 69.53125 
L 79.296875 62.890625 
Q 75 63.28125 71.09375 63.28125 
L 71.09375 49.21875 
L 73.828125 49.21875 
Q 82.421875 64.0625 84.375 72.265625 
L 92.96875 68.359375 
Q 90.234375 66.40625 87.109375 59.765625 
Q 83.984375 53.125 81.640625 49.21875 
L 85.9375 49.21875 
Q 91.40625 49.21875 96.09375 49.609375 
L 96.09375 42.578125 
Q 91.40625 43.359375 84.765625 43.359375 
L 78.125 43.359375 
Q 75 39.453125 71.484375 34.765625 
L 89.0625 34.765625 
Q 88.671875 28.90625 88.671875 12.890625 
Q 88.671875 -3.125 89.453125 -7.421875 
L 82.03125 -7.421875 
L 82.03125 -1.953125 
L 63.671875 -1.953125 
L 63.671875 -8.984375 
L 56.25 -8.984375 
Q 57.03125 -4.296875 57.03125 22.65625 
Q 53.90625 20.3125 50.390625 17.1875 
Q 47.65625 20.703125 44.921875 23.4375 
Q 51.171875 26.171875 57.03125 30.46875 
Q 56.640625 33.203125 56.25 34.765625 
L 62.109375 34.765625 
Q 67.578125 39.84375 69.921875 43.359375 
L 60.15625 43.359375 
Q 52.734375 43.359375 48.046875 42.578125 
L 48.046875 49.609375 
Q 52.734375 49.21875 58.203125 49.21875 
L 64.453125 49.21875 
L 64.453125 63.28125 
Q 58.203125 63.28125 53.125 62.890625 
L 53.125 69.53125 
Q 58.203125 69.140625 64.453125 69.140625 
z
M 29.296875 76.953125 
Q 26.5625 73.828125 22.265625 59.765625 
L 22.265625 7.421875 
Q 22.265625 -2.34375 22.65625 -8.984375 
L 14.84375 -8.984375 
Q 15.625 -1.171875 15.625 6.640625 
L 15.625 47.65625 
Q 12.890625 42.578125 8.203125 35.15625 
Q 5.859375 39.0625 3.125 41.015625 
Q 5.859375 44.921875 11.90625 56.4375 
Q 17.96875 67.96875 19.921875 80.46875 
Q 23.828125 78.515625 29.296875 76.953125 
z
M 42.1875 49.21875 
Q 41.40625 44.53125 41.40625 35.15625 
L 41.40625 10.9375 
Q 44.921875 13.28125 47.65625 16.015625 
Q 48.4375 12.109375 50 8.984375 
Q 39.84375 1.953125 36.71875 -1.5625 
Q 34.375 1.953125 32.03125 4.296875 
Q 35.15625 7.03125 34.765625 12.109375 
L 34.765625 42.96875 
Q 30.46875 42.96875 26.5625 42.578125 
L 26.5625 49.609375 
Q 31.640625 49.21875 35.9375 49.21875 
z
M 82.03125 3.90625 
L 82.03125 14.0625 
L 63.671875 14.0625 
L 63.671875 3.90625 
z
M 82.03125 19.921875 
L 82.03125 28.90625 
L 63.671875 28.90625 
L 63.671875 19.921875 
z
M 40.625 74.21875 
Q 41.796875 70.703125 43.359375 66.203125 
Q 44.921875 61.71875 46.09375 57.8125 
Q 42.578125 56.640625 39.0625 55.078125 
Q 37.890625 60.9375 33.984375 71.875 
Q 36.71875 72.65625 40.625 74.21875 
z
" id="SimHei-20648"/>
       <path d="M 70.703125 76.953125 
Q 69.921875 75 68.75 71.671875 
Q 67.578125 68.359375 65.234375 59.765625 
L 83.203125 59.765625 
Q 87.109375 59.765625 92.578125 60.15625 
L 92.578125 53.125 
Q 88.28125 53.515625 85.9375 53.515625 
Q 85.9375 47.265625 83.78125 33.78125 
Q 81.640625 20.3125 76.171875 10.546875 
Q 80.078125 5.859375 84.953125 2.140625 
Q 89.84375 -1.5625 94.140625 -3.125 
Q 89.453125 -6.640625 87.890625 -9.765625 
Q 83.203125 -7.03125 79.296875 -3.515625 
Q 75.390625 0 71.484375 5.078125 
Q 67.1875 0.390625 62.296875 -2.921875 
Q 57.421875 -6.25 50 -10.15625 
Q 48.046875 -6.640625 44.53125 -4.6875 
Q 50.390625 -2.34375 57.03125 1.953125 
Q 63.671875 6.25 67.1875 10.546875 
Q 64.453125 16.015625 61.90625 22.265625 
Q 59.375 28.515625 57.421875 38.671875 
Q 56.25 35.546875 53.515625 30.46875 
Q 50.78125 32.03125 46.875 33.59375 
Q 53.125 44.53125 57.03125 57.421875 
Q 60.9375 70.3125 62.109375 79.6875 
Q 66.796875 77.734375 70.703125 76.953125 
z
M 32.8125 35.15625 
Q 31.25 33.59375 29.296875 30.078125 
L 50.78125 30.078125 
Q 48.4375 20.3125 42.578125 10.546875 
Q 48.828125 8.203125 52.34375 6.25 
Q 50.390625 3.515625 48.828125 0.390625 
Q 45.3125 2.734375 38.28125 5.078125 
Q 30.46875 -3.515625 11.328125 -10.15625 
Q 9.375 -5.859375 6.25 -4.296875 
Q 24.609375 0 31.25 7.421875 
Q 20.3125 10.15625 13.28125 12.109375 
Q 15.625 15.625 19.53125 23.828125 
Q 15.625 23.828125 6.640625 23.4375 
L 6.640625 30.46875 
Q 14.0625 30.078125 21.875 30.078125 
Q 23.4375 33.59375 24.21875 37.890625 
Q 28.515625 36.328125 32.8125 35.15625 
z
M 27.734375 61.71875 
Q 27.734375 71.09375 27.34375 79.6875 
L 35.15625 79.6875 
Q 34.765625 71.484375 34.765625 61.71875 
Q 48.046875 61.71875 53.515625 62.109375 
L 53.515625 55.078125 
Q 48.046875 55.46875 34.765625 55.46875 
Q 34.765625 44.140625 35.15625 37.890625 
L 27.34375 37.890625 
Q 27.734375 43.359375 27.734375 51.5625 
Q 25.78125 48.4375 20.3125 43.546875 
Q 14.84375 38.671875 10.15625 35.9375 
Q 8.203125 39.453125 4.296875 41.015625 
Q 7.8125 42.1875 13.671875 46.484375 
Q 19.53125 50.78125 22.65625 55.46875 
Q 14.84375 55.46875 7.8125 55.078125 
L 7.8125 62.109375 
Q 14.453125 61.71875 27.734375 61.71875 
z
M 62.109375 49.609375 
Q 65.625 26.5625 71.875 17.578125 
Q 75.78125 26.5625 77.140625 35.734375 
Q 78.515625 44.921875 78.90625 53.515625 
L 63.671875 53.515625 
L 62.109375 49.609375 
z
M 22.65625 15.625 
Q 27.34375 14.453125 35.546875 12.5 
Q 38.671875 16.40625 41.40625 23.828125 
L 26.953125 23.828125 
Q 25 19.921875 22.65625 15.625 
z
M 51.953125 75.390625 
Q 50 72.265625 48.828125 69.53125 
Q 47.65625 66.796875 45.703125 62.890625 
Q 42.578125 64.453125 39.453125 65.234375 
Q 42.578125 70.3125 45.3125 78.125 
Q 49.21875 76.171875 51.953125 75.390625 
z
M 40.234375 52.734375 
Q 45.3125 47.65625 50 42.578125 
Q 47.65625 40.625 44.921875 37.890625 
Q 39.453125 44.53125 35.9375 48.4375 
Q 38.28125 50.390625 40.234375 52.734375 
z
M 14.453125 78.125 
Q 19.921875 72.65625 23.4375 67.1875 
L 17.578125 63.671875 
Q 14.84375 69.140625 9.375 73.828125 
Q 12.890625 76.171875 14.453125 78.125 
z
" id="SimHei-25968"/>
       <path d="M 89.84375 74.609375 
Q 89.453125 71.09375 89.453125 66.015625 
L 89.453125 60.9375 
Q 89.453125 53.90625 89.84375 50.78125 
L 48.4375 50.78125 
L 48.4375 39.0625 
L 66.40625 39.0625 
Q 66.40625 42.578125 66.015625 49.609375 
L 73.4375 49.609375 
Q 73.046875 43.359375 73.046875 39.0625 
L 83.59375 39.0625 
Q 90.625 39.0625 95.3125 39.453125 
L 95.3125 32.421875 
Q 90.625 32.8125 83.984375 32.8125 
L 73.046875 32.8125 
L 73.046875 22.265625 
L 90.234375 22.265625 
Q 89.84375 14.84375 89.84375 12.5 
L 89.84375 2.734375 
Q 89.84375 -3.515625 90.234375 -8.984375 
L 83.203125 -8.984375 
L 83.203125 -3.515625 
L 57.421875 -3.515625 
L 57.421875 -9.375 
L 50.390625 -9.375 
Q 50.78125 -5.078125 50.78125 1.5625 
L 50.78125 12.890625 
Q 50.78125 16.796875 50.390625 22.265625 
L 66.40625 22.265625 
L 66.40625 32.8125 
L 48.046875 32.8125 
Q 47.65625 21.484375 45.109375 11.515625 
Q 42.578125 1.5625 37.890625 -7.421875 
Q 34.375 -5.078125 30.46875 -3.90625 
Q 35.15625 2.34375 37.296875 9.375 
Q 39.453125 16.40625 40.625 24.40625 
Q 41.796875 32.421875 41.796875 41.015625 
L 41.796875 55.859375 
Q 41.796875 62.109375 41.40625 74.609375 
L 89.84375 74.609375 
z
M 19.921875 69.140625 
Q 19.921875 74.609375 19.53125 79.296875 
L 27.34375 79.296875 
Q 26.953125 75 26.953125 69.140625 
L 26.953125 58.984375 
Q 30.859375 58.984375 39.0625 59.375 
L 39.0625 52.734375 
Q 30.859375 53.125 26.953125 53.125 
L 26.953125 38.28125 
Q 32.03125 41.015625 37.5 44.53125 
Q 37.890625 41.40625 39.453125 38.671875 
Q 32.03125 34.375 26.953125 31.25 
L 26.953125 2.734375 
Q 26.953125 -4.6875 23.234375 -6.25 
Q 19.53125 -7.8125 12.109375 -8.984375 
Q 11.328125 -5.078125 9.375 -0.78125 
Q 16.015625 -0.78125 17.96875 -0.1875 
Q 19.921875 0.390625 19.921875 5.078125 
L 19.921875 28.125 
Q 14.0625 25 8.203125 20.703125 
Q 7.03125 23.828125 4.296875 28.125 
Q 12.109375 30.859375 19.921875 35.15625 
L 19.921875 53.125 
Q 12.5 53.125 5.46875 52.734375 
L 5.46875 59.375 
Q 12.5 58.984375 19.921875 58.984375 
z
M 82.8125 56.640625 
L 82.8125 68.75 
L 48.4375 68.75 
L 48.4375 56.640625 
z
M 83.203125 2.34375 
L 83.203125 16.796875 
L 57.421875 16.796875 
L 57.421875 2.34375 
z
" id="SimHei-25454"/>
       <path d="M 29.296875 26.953125 
Q 38.671875 19.921875 46.875 12.890625 
Q 43.75 9.375 41.015625 5.859375 
Q 35.546875 13.28125 27.34375 19.53125 
Q 24.609375 13.28125 20.5 6.046875 
Q 16.40625 -1.171875 10.9375 -8.203125 
Q 7.8125 -4.296875 3.125 -2.34375 
Q 8.203125 1.171875 12.296875 7.03125 
Q 16.40625 12.890625 19.328125 20.109375 
Q 22.265625 27.34375 22.65625 35.15625 
L 19.140625 35.15625 
Q 13.28125 35.15625 6.25 34.765625 
L 6.25 41.796875 
Q 13.28125 41.40625 19.53125 41.40625 
L 23.046875 41.40625 
L 23.046875 58.203125 
Q 15.234375 58.203125 10.15625 57.8125 
L 10.15625 64.84375 
Q 15.625 64.453125 23.046875 64.453125 
Q 23.046875 77.734375 22.65625 82.8125 
Q 26.953125 82.421875 32.03125 81.640625 
Q 30.46875 79.296875 30.265625 74.015625 
Q 30.078125 68.75 30.078125 64.453125 
Q 38.671875 64.453125 42.1875 64.84375 
L 42.1875 57.8125 
Q 37.5 58.203125 30.078125 58.203125 
L 30.078125 41.40625 
Q 40.625 41.40625 44.140625 41.796875 
L 44.140625 34.765625 
Q 40.625 35.15625 29.6875 35.15625 
Q 29.6875 32.03125 29.296875 26.953125 
z
M 73.046875 57.8125 
Q 71.875 53.125 71.09375 43.359375 
Q 70.3125 33.59375 69.140625 26.171875 
L 75.78125 26.171875 
Q 75.390625 22.265625 75.390625 15.625 
L 75.390625 4.6875 
Q 75.390625 -0.390625 77.921875 -1.171875 
Q 80.46875 -1.953125 83.203125 -1.75 
Q 85.9375 -1.5625 86.90625 0.390625 
Q 87.890625 2.34375 89.0625 10.546875 
Q 92.1875 7.8125 96.875 6.25 
Q 93.75 -4.296875 91.59375 -6.4375 
Q 89.453125 -8.59375 84.375 -8.59375 
L 76.953125 -8.59375 
Q 68.359375 -8.59375 68.359375 0.390625 
L 68.359375 24.21875 
Q 66.796875 18.359375 64.25 13.671875 
Q 61.71875 8.984375 55.65625 3.125 
Q 49.609375 -2.734375 37.109375 -9.765625 
Q 34.765625 -6.25 30.46875 -3.515625 
Q 42.578125 1.5625 49.796875 8.203125 
Q 57.03125 14.84375 59.953125 21.484375 
Q 62.890625 28.125 63.671875 38.46875 
Q 64.453125 48.828125 64.453125 59.375 
Q 69.53125 58.203125 73.046875 57.8125 
z
M 89.0625 76.171875 
Q 88.671875 69.921875 88.671875 51.171875 
Q 88.671875 32.421875 89.0625 24.609375 
L 81.640625 24.609375 
L 81.640625 69.53125 
L 53.90625 69.53125 
L 53.90625 24.21875 
L 46.875 24.21875 
Q 47.265625 33.203125 47.265625 51.171875 
Q 47.265625 69.140625 46.875 76.171875 
L 89.0625 76.171875 
z
" id="SimHei-35268"/>
       <path d="M 89.0625 57.421875 
Q 88.671875 53.125 88.671875 42.578125 
Q 88.671875 32.03125 89.0625 26.953125 
L 68.359375 26.953125 
Q 67.96875 22.65625 67.578125 18.75 
L 81.640625 18.75 
Q 89.84375 18.75 94.140625 19.140625 
L 94.140625 12.890625 
Q 89.453125 13.28125 81.640625 13.28125 
L 73.4375 13.28125 
Q 79.296875 5.859375 84.953125 2.140625 
Q 90.625 -1.5625 96.875 -3.125 
Q 93.359375 -5.859375 91.40625 -9.765625 
Q 82.421875 -6.25 75.96875 0.390625 
Q 69.53125 7.03125 67.1875 12.109375 
L 66.015625 12.109375 
Q 62.5 4.296875 55.265625 -0.96875 
Q 48.046875 -6.25 38.671875 -9.765625 
Q 36.71875 -5.859375 33.203125 -3.125 
Q 43.359375 -1.171875 50 3.125 
Q 56.640625 7.421875 58.984375 13.28125 
L 51.953125 13.28125 
Q 43.75 13.28125 37.5 12.890625 
L 37.5 19.140625 
Q 43.75 18.75 52.34375 18.75 
L 60.546875 18.75 
Q 61.328125 23.046875 61.328125 26.953125 
L 42.96875 26.953125 
Q 43.359375 32.421875 43.359375 42.1875 
Q 43.359375 52.34375 42.96875 57.421875 
L 89.0625 57.421875 
z
M 33.984375 25.78125 
Q 31.640625 30.859375 26.171875 39.453125 
L 26.171875 4.6875 
Q 26.171875 -4.6875 26.5625 -8.59375 
L 18.359375 -8.59375 
Q 18.75 -4.296875 18.75 3.90625 
L 18.75 34.765625 
Q 17.578125 31.25 15.03125 26.75 
Q 12.5 22.265625 9.375 16.40625 
Q 7.03125 19.921875 3.125 22.265625 
Q 9.375 28.515625 13.28125 37.890625 
Q 17.1875 47.265625 18.359375 53.515625 
L 14.84375 53.515625 
Q 10.9375 53.515625 6.25 53.125 
L 6.25 59.765625 
Q 10.546875 59.375 12.890625 59.375 
L 18.75 59.375 
L 18.75 67.96875 
Q 18.75 74.609375 18.359375 80.46875 
L 26.5625 80.46875 
Q 26.171875 75.390625 26.171875 69.140625 
L 26.171875 59.375 
Q 32.421875 59.375 37.109375 59.765625 
L 37.109375 53.125 
Q 32.03125 53.515625 26.171875 53.515625 
L 26.171875 40.234375 
Q 28.90625 41.796875 31.25 43.359375 
Q 33.59375 39.453125 35.734375 36.328125 
Q 37.890625 33.203125 39.84375 30.078125 
Q 36.328125 27.734375 33.984375 25.78125 
z
M 52.734375 67.1875 
L 49.609375 67.1875 
Q 42.1875 67.1875 37.890625 66.796875 
L 37.890625 73.046875 
Q 42.1875 72.65625 49.21875 72.65625 
L 52.734375 72.65625 
Q 52.734375 78.125 52.34375 81.640625 
L 59.765625 81.640625 
Q 59.375 78.125 59.375 72.65625 
L 71.09375 72.65625 
Q 71.09375 77.734375 70.703125 81.25 
L 78.515625 81.25 
Q 78.125 76.953125 78.125 72.65625 
L 83.984375 72.65625 
Q 88.28125 72.65625 92.96875 73.046875 
L 92.96875 66.796875 
Q 88.28125 67.1875 83.984375 67.1875 
L 78.125 67.1875 
L 78.125 60.15625 
L 71.09375 60.15625 
L 71.09375 67.1875 
L 59.375 67.1875 
L 59.375 60.546875 
L 52.734375 60.546875 
z
M 82.421875 32.421875 
L 82.421875 39.453125 
L 50 39.453125 
L 50 32.421875 
z
M 82.421875 44.921875 
L 82.421875 51.953125 
L 50 51.953125 
L 50 44.921875 
z
" id="SimHei-27169"/>
      </defs>
      <use xlink:href="#SimHei-31199"/>
      <use x="100" xlink:href="#SimHei-25143"/>
      <use x="200" xlink:href="#SimHei-23384"/>
      <use x="300" xlink:href="#SimHei-20648"/>
      <use x="400" xlink:href="#SimHei-25968"/>
      <use x="500" xlink:href="#SimHei-25454"/>
      <use x="600" xlink:href="#SimHei-35268"/>
      <use x="700" xlink:href="#SimHei-27169"/>
     </g>
    </g>
   </g>
   <g id="matplotlib.axis_2">
    <g id="ytick_1">
     <g id="line2d_4">
      <defs>
       <path d="M 0 0 
L -3.5 0 
" id="mad7a88a8d9" style="stroke:#000000;stroke-width:0.8;"/>
      </defs>
      <g>
       <use style="stroke:#000000;stroke-width:0.8;" x="51.675" xlink:href="#mad7a88a8d9" y="247.16875"/>
      </g>
     </g>
     <g id="text_5">
      <!-- 0 -->
      <g transform="translate(39.675 250.60625)scale(0.1 -0.1)">
       <defs>
        <path d="M 3.125 29.296875 
Q 3.90625 50 6.4375 56.046875 
Q 8.984375 62.109375 13.671875 66.015625 
Q 18.359375 69.921875 25.1875 69.921875 
Q 32.03125 69.921875 37.109375 64.25 
Q 42.1875 58.59375 43.75 50 
Q 45.3125 41.40625 44.71875 30.265625 
Q 44.140625 19.140625 40.8125 12.109375 
Q 37.5 5.078125 30.859375 2.34375 
Q 24.21875 -0.390625 17.578125 2.921875 
Q 10.9375 6.25 8.203125 11.71875 
Q 5.46875 17.1875 4.296875 23.234375 
Q 3.125 29.296875 3.90625 50 
z
M 12.890625 52.734375 
Q 10.546875 31.25 12.5 22.84375 
Q 14.453125 14.453125 18.9375 10.9375 
Q 23.4375 7.421875 28.125 9.5625 
Q 32.8125 11.71875 34.953125 18.15625 
Q 37.109375 24.609375 37.109375 32.21875 
Q 37.109375 39.84375 36.515625 46.09375 
Q 35.9375 52.34375 33 57.421875 
Q 30.078125 62.5 25.1875 62.6875 
Q 20.3125 62.890625 16.59375 57.8125 
Q 12.890625 52.734375 10.546875 31.25 
z
" id="SimHei-48"/>
       </defs>
       <use xlink:href="#SimHei-48"/>
      </g>
     </g>
    </g>
    <g id="ytick_2">
     <g id="line2d_5">
      <g>
       <use style="stroke:#000000;stroke-width:0.8;" x="51.675" xlink:href="#mad7a88a8d9" y="219.981178"/>
      </g>
     </g>
     <g id="text_6">
      <!-- 500 -->
      <g transform="translate(29.675 223.418678)scale(0.1 -0.1)">
       <defs>
        <path d="M 8.59375 20.703125 
Q 11.328125 10.15625 17.96875 8.984375 
Q 24.609375 7.8125 28.703125 10.34375 
Q 32.8125 12.890625 34.5625 16.984375 
Q 36.328125 21.09375 36.125 26.171875 
Q 35.9375 31.25 33.390625 34.765625 
Q 30.859375 38.28125 26.953125 39.453125 
Q 23.046875 40.625 18.15625 39.453125 
Q 13.28125 38.28125 10.15625 33.984375 
L 3.515625 34.765625 
Q 4.296875 37.109375 10.9375 68.359375 
L 41.796875 68.359375 
L 41.796875 61.328125 
L 16.796875 61.328125 
Q 14.84375 50.78125 12.890625 44.53125 
Q 18.75 47.265625 23.828125 47.0625 
Q 28.90625 46.875 33.59375 44.71875 
Q 38.28125 42.578125 40.421875 38.859375 
Q 42.578125 35.15625 43.546875 31.4375 
Q 44.53125 27.734375 44.328125 23.4375 
Q 44.140625 19.140625 42.578125 14.640625 
Q 41.015625 10.15625 37.890625 7.21875 
Q 34.765625 4.296875 30.265625 2.53125 
Q 25.78125 0.78125 19.921875 1.171875 
Q 14.0625 1.5625 8.78125 5.46875 
Q 3.515625 9.375 1.5625 18.75 
z
" id="SimHei-53"/>
       </defs>
       <use xlink:href="#SimHei-53"/>
       <use x="50" xlink:href="#SimHei-48"/>
       <use x="100" xlink:href="#SimHei-48"/>
      </g>
     </g>
    </g>
    <g id="ytick_3">
     <g id="line2d_6">
      <g>
       <use style="stroke:#000000;stroke-width:0.8;" x="51.675" xlink:href="#mad7a88a8d9" y="192.793606"/>
      </g>
     </g>
     <g id="text_7">
      <!-- 1000 -->
      <g transform="translate(24.675 196.231106)scale(0.1 -0.1)">
       <defs>
        <path d="M 21.875 56.25 
Q 16.796875 51.171875 8.984375 46.484375 
L 8.984375 53.90625 
Q 18.75 60.546875 25 69.53125 
L 29.6875 69.53125 
L 29.6875 2.34375 
L 21.875 2.34375 
z
" id="SimHei-49"/>
       </defs>
       <use xlink:href="#SimHei-49"/>
       <use x="50" xlink:href="#SimHei-48"/>
       <use x="100" xlink:href="#SimHei-48"/>
       <use x="150" xlink:href="#SimHei-48"/>
      </g>
     </g>
    </g>
    <g id="ytick_4">
     <g id="line2d_7">
      <g>
       <use style="stroke:#000000;stroke-width:0.8;" x="51.675" xlink:href="#mad7a88a8d9" y="165.606034"/>
      </g>
     </g>
     <g id="text_8">
      <!-- 1500 -->
      <g transform="translate(24.675 169.043534)scale(0.1 -0.1)">
       <use xlink:href="#SimHei-49"/>
       <use x="50" xlink:href="#SimHei-53"/>
       <use x="100" xlink:href="#SimHei-48"/>
       <use x="150" xlink:href="#SimHei-48"/>
      </g>
     </g>
    </g>
    <g id="ytick_5">
     <g id="line2d_8">
      <g>
       <use style="stroke:#000000;stroke-width:0.8;" x="51.675" xlink:href="#mad7a88a8d9" y="138.418462"/>
      </g>
     </g>
     <g id="text_9">
      <!-- 2000 -->
      <g transform="translate(24.675 141.855962)scale(0.1 -0.1)">
       <defs>
        <path d="M 4.6875 3.90625 
Q 5.078125 9.765625 10.15625 14.453125 
Q 15.234375 19.140625 23.046875 29.09375 
Q 30.859375 39.0625 33.203125 44.53125 
Q 35.546875 50 34.953125 53.90625 
Q 34.375 57.8125 31.25 60.34375 
Q 28.125 62.890625 24.015625 62.5 
Q 19.921875 62.109375 16.203125 59.375 
Q 12.5 56.640625 10.546875 51.171875 
L 3.125 52.34375 
Q 6.25 61.328125 11.125 65.421875 
Q 16.015625 69.53125 22.65625 69.921875 
Q 26.5625 70.3125 29.6875 69.71875 
Q 32.8125 69.140625 36.125 66.984375 
Q 39.453125 64.84375 41.59375 60.546875 
Q 43.75 56.25 43.15625 50.1875 
Q 42.578125 44.140625 37.109375 35.734375 
Q 31.640625 27.34375 16.015625 9.375 
L 44.140625 9.375 
L 44.140625 2.34375 
L 4.6875 2.34375 
z
" id="SimHei-50"/>
       </defs>
       <use xlink:href="#SimHei-50"/>
       <use x="50" xlink:href="#SimHei-48"/>
       <use x="100" xlink:href="#SimHei-48"/>
       <use x="150" xlink:href="#SimHei-48"/>
      </g>
     </g>
    </g>
    <g id="ytick_6">
     <g id="line2d_9">
      <g>
       <use style="stroke:#000000;stroke-width:0.8;" x="51.675" xlink:href="#mad7a88a8d9" y="111.230891"/>
      </g>
     </g>
     <g id="text_10">
      <!-- 2500 -->
      <g transform="translate(24.675 114.668391)scale(0.1 -0.1)">
       <use xlink:href="#SimHei-50"/>
       <use x="50" xlink:href="#SimHei-53"/>
       <use x="100" xlink:href="#SimHei-48"/>
       <use x="150" xlink:href="#SimHei-48"/>
      </g>
     </g>
    </g>
    <g id="ytick_7">
     <g id="line2d_10">
      <g>
       <use style="stroke:#000000;stroke-width:0.8;" x="51.675" xlink:href="#mad7a88a8d9" y="84.043319"/>
      </g>
     </g>
     <g id="text_11">
      <!-- 3000 -->
      <g transform="translate(24.675 87.480819)scale(0.1 -0.1)">
       <defs>
        <path d="M 3.90625 19.140625 
L 10.9375 20.3125 
Q 12.5 15.234375 16.015625 11.90625 
Q 19.53125 8.59375 24.796875 8.78125 
Q 30.078125 8.984375 33.203125 13.078125 
Q 36.328125 17.1875 35.9375 22.453125 
Q 35.546875 27.734375 31.828125 30.65625 
Q 28.125 33.59375 19.921875 34.765625 
L 19.921875 39.84375 
Q 28.125 40.625 31.828125 44.140625 
Q 35.546875 47.65625 35.15625 53.3125 
Q 34.765625 58.984375 30.078125 61.515625 
Q 25.390625 64.0625 20.109375 62.109375 
Q 14.84375 60.15625 11.71875 51.171875 
L 4.6875 52.34375 
Q 7.03125 59.375 11.125 64.0625 
Q 15.234375 68.75 22.265625 69.53125 
Q 29.296875 70.3125 34.5625 67.765625 
Q 39.84375 65.234375 41.984375 59.953125 
Q 44.140625 54.6875 42.578125 48.4375 
Q 41.015625 42.1875 33.59375 37.5 
Q 39.0625 35.15625 41.984375 30.46875 
Q 44.921875 25.78125 43.9375 18.15625 
Q 42.96875 10.546875 37.109375 5.859375 
Q 31.25 1.171875 23.828125 1.359375 
Q 16.40625 1.5625 10.9375 6.046875 
Q 5.46875 10.546875 3.90625 19.140625 
z
" id="SimHei-51"/>
       </defs>
       <use xlink:href="#SimHei-51"/>
       <use x="50" xlink:href="#SimHei-48"/>
       <use x="100" xlink:href="#SimHei-48"/>
       <use x="150" xlink:href="#SimHei-48"/>
      </g>
     </g>
    </g>
    <g id="ytick_8">
     <g id="line2d_11">
      <g>
       <use style="stroke:#000000;stroke-width:0.8;" x="51.675" xlink:href="#mad7a88a8d9" y="56.855747"/>
      </g>
     </g>
     <g id="text_12">
      <!-- 3500 -->
      <g transform="translate(24.675 60.293247)scale(0.1 -0.1)">
       <use xlink:href="#SimHei-51"/>
       <use x="50" xlink:href="#SimHei-53"/>
       <use x="100" xlink:href="#SimHei-48"/>
       <use x="150" xlink:href="#SimHei-48"/>
      </g>
     </g>
    </g>
    <g id="ytick_9">
     <g id="line2d_12">
      <g>
       <use style="stroke:#000000;stroke-width:0.8;" x="51.675" xlink:href="#mad7a88a8d9" y="29.668175"/>
      </g>
     </g>
     <g id="text_13">
      <!-- 4000 -->
      <g transform="translate(24.675 33.105675)scale(0.1 -0.1)">
       <defs>
        <path d="M 31.25 17.1875 
L 1.171875 17.1875 
L 1.171875 23.828125 
L 32.8125 69.53125 
L 38.671875 69.53125 
L 38.671875 23.828125 
L 48.046875 23.828125 
L 48.046875 17.1875 
L 38.671875 17.1875 
L 38.671875 2.34375 
L 31.25 2.34375 
z
M 31.25 23.828125 
L 31.25 54.6875 
L 9.375 23.828125 
z
" id="SimHei-52"/>
       </defs>
       <use xlink:href="#SimHei-52"/>
       <use x="50" xlink:href="#SimHei-48"/>
       <use x="100" xlink:href="#SimHei-48"/>
       <use x="150" xlink:href="#SimHei-48"/>
      </g>
     </g>
    </g>
    <g id="text_14">
     <!-- 使用磁盘数 -->
     <g transform="translate(19.425 153.984375)rotate(-90)scale(0.1 -0.1)">
      <defs>
       <path d="M 57.8125 68.359375 
Q 57.8125 76.953125 57.421875 82.03125 
Q 62.5 81.25 66.40625 80.859375 
Q 65.234375 76.953125 65.234375 68.359375 
L 77.734375 68.359375 
Q 86.328125 68.359375 93.359375 68.75 
L 93.359375 61.71875 
Q 85.9375 62.109375 77.734375 62.109375 
L 65.234375 62.109375 
L 65.234375 53.515625 
L 89.0625 53.515625 
Q 88.671875 48.046875 88.671875 41.796875 
Q 88.671875 35.9375 89.0625 29.6875 
L 64.84375 29.6875 
Q 64.0625 17.1875 60.546875 9.375 
Q 71.484375 -0.390625 95.3125 -0.78125 
Q 92.578125 -2.734375 91.015625 -8.203125 
Q 70.3125 -7.421875 55.859375 3.515625 
Q 46.875 -5.859375 33.984375 -10.546875 
Q 33.59375 -7.8125 28.515625 -4.6875 
Q 43.359375 -0.390625 50.390625 7.8125 
Q 43.75 14.453125 36.328125 23.4375 
Q 38.671875 24.609375 41.796875 27.734375 
Q 48.046875 19.140625 54.6875 14.0625 
Q 57.03125 20.703125 57.421875 29.6875 
L 34.375 29.6875 
Q 34.765625 35.9375 34.765625 42.1875 
Q 34.765625 48.4375 34.375 53.515625 
L 57.8125 53.515625 
L 57.8125 62.109375 
L 44.921875 62.109375 
Q 36.71875 62.109375 30.859375 61.71875 
L 30.859375 68.75 
Q 36.328125 68.359375 44.53125 68.359375 
z
M 30.078125 77.734375 
Q 28.125 75.390625 23.828125 63.28125 
L 23.828125 9.375 
Q 23.828125 0.78125 24.21875 -8.984375 
L 16.40625 -8.984375 
Q 16.796875 0.390625 16.796875 8.59375 
L 16.796875 50 
Q 11.328125 38.671875 9.375 35.15625 
Q 7.421875 38.671875 3.515625 41.015625 
Q 7.8125 46.875 13.859375 59.5625 
Q 19.921875 72.265625 21.09375 81.25 
L 30.078125 77.734375 
z
M 81.25 35.9375 
L 81.25 47.65625 
L 65.234375 47.65625 
L 65.234375 35.9375 
z
M 57.8125 35.9375 
L 57.8125 47.65625 
L 42.1875 47.65625 
L 42.1875 35.9375 
z
" id="SimHei-20351"/>
       <path d="M 5.46875 -4.6875 
Q 10.15625 1.953125 12.6875 9.375 
Q 15.234375 16.796875 15.8125 24.21875 
Q 16.40625 31.640625 16.40625 49.21875 
Q 16.40625 66.796875 16.015625 77.34375 
L 85.9375 77.34375 
Q 85.546875 66.015625 85.546875 57.03125 
L 85.546875 5.859375 
Q 85.546875 -2.34375 80.859375 -4.296875 
Q 76.171875 -6.25 69.921875 -7.03125 
Q 69.140625 -1.171875 67.1875 1.953125 
Q 75 1.5625 76.359375 2.53125 
Q 77.734375 3.515625 77.734375 6.25 
L 77.734375 25.78125 
L 53.90625 25.78125 
L 53.90625 10.546875 
Q 53.90625 1.953125 54.296875 -5.078125 
L 45.703125 -5.078125 
Q 46.09375 1.5625 46.09375 10.15625 
L 46.09375 25.78125 
L 23.828125 25.78125 
Q 22.265625 8.984375 13.28125 -8.203125 
Q 8.984375 -5.46875 5.46875 -4.6875 
z
M 77.734375 54.296875 
L 77.734375 71.09375 
L 53.90625 71.09375 
L 53.90625 54.296875 
z
M 77.734375 32.03125 
L 77.734375 48.4375 
L 53.90625 48.4375 
L 53.90625 32.03125 
z
M 46.09375 54.296875 
L 46.09375 71.09375 
L 23.828125 71.09375 
L 23.828125 54.296875 
z
M 46.09375 32.03125 
L 46.09375 48.4375 
L 23.828125 48.4375 
L 23.828125 32.03125 
z
" id="SimHei-29992"/>
       <path d="M 26.5625 71.09375 
Q 33.59375 71.09375 37.890625 71.484375 
L 37.890625 64.453125 
Q 33.59375 64.84375 26.5625 64.84375 
Q 24.21875 53.515625 20.3125 42.96875 
L 36.328125 42.96875 
Q 35.546875 37.109375 35.546875 23.046875 
Q 35.546875 9.375 35.9375 1.171875 
L 28.90625 1.171875 
L 28.90625 5.859375 
L 19.921875 5.859375 
L 19.921875 -3.90625 
L 12.890625 -3.90625 
Q 13.671875 5.46875 13.671875 10.15625 
L 13.671875 32.03125 
Q 12.109375 28.90625 7.8125 23.828125 
Q 6.25 27.34375 3.515625 30.078125 
Q 7.8125 34.765625 11.328125 41.203125 
Q 14.84375 47.65625 16.59375 52.921875 
Q 18.359375 58.203125 19.140625 64.84375 
Q 13.671875 64.84375 7.421875 64.453125 
L 7.421875 71.484375 
Q 13.28125 71.09375 20.703125 71.09375 
z
M 57.8125 19.53125 
Q 51.5625 6.640625 46.875 -0.390625 
L 58.203125 1.171875 
Q 57.421875 6.25 56.25 9.765625 
Q 59.375 10.9375 63.28125 11.71875 
Q 66.015625 0.390625 67.96875 -8.984375 
Q 62.109375 -9.375 60.15625 -10.546875 
L 59.375 -4.296875 
Q 53.90625 -5.078125 49.21875 -6.046875 
Q 44.53125 -7.03125 41.40625 -8.59375 
Q 39.0625 -2.34375 37.890625 -0.390625 
Q 39.453125 0.390625 41.015625 1.953125 
Q 42.578125 3.515625 46.28125 9.375 
Q 50 15.234375 52.734375 23.046875 
Q 45.703125 22.265625 41.015625 20.3125 
Q 39.453125 25 37.890625 27.734375 
Q 41.015625 29.6875 44.71875 36.90625 
Q 48.4375 44.140625 51.5625 55.859375 
Q 56.25 52.734375 59.375 51.953125 
Q 56.640625 48.046875 53.90625 42.1875 
Q 51.171875 36.328125 46.875 27.734375 
L 55.078125 28.515625 
Q 58.59375 35.15625 60.546875 42.578125 
Q 64.453125 39.84375 67.578125 38.671875 
z
M 80.859375 23.828125 
Q 71.484375 23.4375 68.75 21.875 
Q 67.578125 25.78125 66.015625 29.6875 
Q 69.140625 31.640625 71.671875 37.890625 
Q 74.21875 44.140625 76.5625 54.6875 
Q 80.078125 52.34375 84.765625 51.171875 
Q 83.203125 49.21875 81.25 44.71875 
Q 79.296875 40.234375 74.609375 29.296875 
L 82.8125 30.078125 
Q 85.546875 35.9375 87.109375 41.40625 
Q 90.625 39.453125 94.140625 37.890625 
Q 91.40625 32.421875 85.734375 19.53125 
Q 80.078125 6.640625 77.34375 1.5625 
L 85.9375 3.125 
L 83.59375 11.71875 
Q 85.9375 12.5 90.234375 13.671875 
Q 94.53125 -2.34375 95.703125 -7.03125 
Q 92.1875 -7.8125 88.671875 -8.984375 
Q 87.5 -3.90625 87.109375 -2.734375 
Q 83.984375 -3.125 79.6875 -4.09375 
Q 75.390625 -5.078125 70.703125 -7.03125 
Q 69.140625 -3.125 67.578125 0.390625 
Q 70.3125 1.171875 72.84375 5.65625 
Q 75.390625 10.15625 80.859375 23.828125 
z
M 87.109375 78.515625 
Q 86.328125 77.34375 84.171875 73.046875 
Q 82.03125 68.75 79.6875 62.890625 
L 82.8125 62.890625 
Q 88.671875 62.890625 95.703125 63.28125 
L 95.703125 56.640625 
Q 88.671875 57.03125 82.8125 57.03125 
L 55.859375 57.03125 
Q 48.046875 57.03125 39.84375 56.640625 
L 39.84375 63.28125 
Q 48.4375 62.890625 55.859375 62.890625 
L 72.265625 62.890625 
Q 75.78125 70.3125 78.90625 81.640625 
Q 82.03125 80.078125 87.109375 78.515625 
z
M 28.90625 11.71875 
L 28.90625 37.109375 
L 19.921875 37.109375 
L 19.921875 11.71875 
z
M 61.71875 66.40625 
Q 58.59375 65.625 55.078125 63.671875 
Q 52.34375 71.875 49.21875 78.125 
Q 52.34375 79.296875 55.46875 81.25 
Q 59.765625 73.046875 61.71875 66.40625 
z
" id="SimHei-30913"/>
       <path d="M 84.765625 -1.953125 
Q 90.234375 -1.953125 96.875 -1.5625 
L 96.875 -8.59375 
Q 85.15625 -8.203125 74.21875 -8.203125 
L 23.046875 -8.203125 
Q 10.9375 -8.203125 3.125 -8.59375 
L 3.125 -1.5625 
Q 9.765625 -1.953125 15.234375 -1.953125 
L 15.234375 9.765625 
Q 15.234375 16.015625 14.84375 21.875 
L 85.15625 21.875 
Q 84.765625 16.015625 84.765625 9.765625 
z
M 61.328125 32.03125 
Q 67.578125 32.03125 69.71875 32.421875 
Q 71.875 32.8125 71.875 35.546875 
L 71.875 44.140625 
L 30.859375 44.140625 
Q 29.6875 37.5 27.34375 32.8125 
Q 25 28.125 19.53125 22.65625 
Q 16.796875 25.78125 12.109375 27.734375 
Q 17.1875 31.25 19.71875 35.15625 
Q 22.265625 39.0625 23.046875 44.140625 
Q 12.5 44.140625 6.640625 43.75 
L 6.640625 51.171875 
Q 14.453125 50.78125 23.4375 50.78125 
L 23.4375 61.71875 
Q 23.4375 66.796875 23.046875 72.265625 
L 38.28125 72.265625 
Q 39.84375 76.953125 40.625 82.03125 
Q 46.09375 80.859375 50.390625 80.078125 
Q 49.21875 78.90625 48.234375 76.5625 
Q 47.265625 74.21875 46.484375 72.265625 
L 79.6875 72.265625 
Q 79.296875 66.015625 79.296875 59.375 
L 79.296875 50.78125 
Q 88.28125 50.78125 94.140625 51.171875 
L 94.140625 43.75 
Q 88.28125 44.140625 78.90625 44.140625 
L 78.90625 33.984375 
Q 78.90625 27.34375 75 25.96875 
Q 71.09375 24.609375 64.84375 23.828125 
Q 64.453125 27.34375 61.328125 32.03125 
z
M 72.265625 50.78125 
L 72.265625 65.625 
L 31.640625 65.625 
L 31.640625 50.78125 
z
M 56.640625 15.625 
L 42.96875 15.625 
L 42.96875 -1.953125 
L 56.640625 -1.953125 
z
M 76.953125 15.625 
L 63.28125 15.625 
L 63.28125 -1.953125 
L 76.953125 -1.953125 
z
M 36.328125 15.625 
L 23.046875 15.625 
L 23.046875 -1.953125 
L 36.328125 -1.953125 
z
M 53.515625 27.734375 
Q 48.046875 32.421875 39.453125 35.9375 
Q 41.40625 39.0625 42.578125 41.796875 
Q 50.390625 38.28125 57.8125 34.375 
Q 55.46875 32.03125 53.515625 27.734375 
z
M 54.6875 51.5625 
Q 48.828125 55.859375 42.96875 58.59375 
Q 45.3125 61.328125 46.875 64.0625 
Q 52.34375 61.328125 58.984375 57.421875 
Q 56.640625 54.6875 54.6875 51.5625 
z
" id="SimHei-30424"/>
      </defs>
      <use xlink:href="#SimHei-20351"/>
      <use x="100" xlink:href="#SimHei-29992"/>
      <use x="200" xlink:href="#SimHei-30913"/>
      <use x="300" xlink:href="#SimHei-30424"/>
      <use x="400" xlink:href="#SimHei-25968"/>
     </g>
    </g>
   </g>
   <g id="patch_15">
    <path d="M 51.675 247.16875 
L 51.675 10.8 
" style="fill:none;stroke:#000000;stroke-linecap:square;stroke-linejoin:miter;stroke-width:0.8;"/>
   </g>
   <g id="patch_16">
    <path d="M 421.2 247.16875 
L 421.2 10.8 
" style="fill:none;stroke:#000000;stroke-linecap:square;stroke-linejoin:miter;stroke-width:0.8;"/>
   </g>
   <g id="patch_17">
    <path d="M 51.675 247.16875 
L 421.2 247.16875 
" style="fill:none;stroke:#000000;stroke-linecap:square;stroke-linejoin:miter;stroke-width:0.8;"/>
   </g>
   <g id="patch_18">
    <path d="M 51.675 10.8 
L 421.2 10.8 
" style="fill:none;stroke:#000000;stroke-linecap:square;stroke-linejoin:miter;stroke-width:0.8;"/>
   </g>
   <g id="text_15">
    <!-- 672 -->
    <g transform="translate(72.969156 209.269903)scale(0.1 -0.1)">
     <defs>
      <path d="M 3.515625 19.53125 
Q 4.296875 30.859375 6.046875 34.765625 
Q 7.8125 38.671875 11.328125 44.53125 
L 27.34375 69.53125 
L 36.328125 69.53125 
L 19.921875 43.75 
Q 30.46875 46.484375 36.71875 42.96875 
Q 42.96875 39.453125 45.109375 34.953125 
Q 47.265625 30.46875 47.453125 25.1875 
Q 47.65625 19.921875 45.890625 14.84375 
Q 44.140625 9.765625 39.640625 5.65625 
Q 35.15625 1.5625 27.140625 1.171875 
Q 19.140625 0.78125 13.46875 4.09375 
Q 7.8125 7.421875 5.65625 13.46875 
Q 3.515625 19.53125 4.296875 30.859375 
z
M 12.5 16.015625 
Q 19.53125 8.59375 25.390625 8.203125 
Q 31.25 7.8125 35.15625 12.109375 
Q 39.0625 16.40625 39.0625 24.609375 
Q 39.0625 32.8125 34.171875 35.9375 
Q 29.296875 39.0625 23.234375 38.28125 
Q 17.1875 37.5 14.453125 32.421875 
Q 11.71875 27.34375 12.109375 21.671875 
Q 12.5 16.015625 19.53125 8.59375 
z
" id="SimHei-54"/>
      <path d="M 13.28125 2.34375 
Q 20.3125 32.03125 37.890625 61.328125 
L 4.296875 61.328125 
L 4.296875 68.359375 
L 46.09375 68.359375 
L 46.09375 61.71875 
Q 27.734375 32.03125 21.875 2.34375 
L 13.28125 2.34375 
z
" id="SimHei-55"/>
     </defs>
     <use xlink:href="#SimHei-54"/>
     <use x="50" xlink:href="#SimHei-55"/>
     <use x="100" xlink:href="#SimHei-50"/>
    </g>
   </g>
   <g id="text_16">
    <!-- 1184 -->
    <g transform="translate(190.444805 181.429829)scale(0.1 -0.1)">
     <defs>
      <path d="M 2.734375 16.796875 
Q 2.734375 26.171875 5.078125 30.65625 
Q 7.421875 35.15625 12.890625 37.890625 
Q 8.203125 40.625 6.640625 43.9375 
Q 5.078125 47.265625 4.875 51.5625 
Q 4.6875 55.859375 6.046875 58.984375 
Q 7.421875 62.109375 10.15625 64.84375 
Q 12.890625 67.578125 16.203125 68.546875 
Q 19.53125 69.53125 23.4375 69.53125 
Q 27.34375 69.53125 30.46875 68.75 
Q 33.59375 67.96875 37.109375 65.421875 
Q 40.625 62.890625 42.1875 58.203125 
Q 43.75 53.515625 41.984375 47.265625 
Q 40.234375 41.015625 32.8125 37.5 
Q 39.453125 35.546875 42.1875 31.4375 
Q 44.921875 27.34375 44.921875 21.484375 
Q 44.921875 15.625 43.15625 12.109375 
Q 41.40625 8.59375 39.25 6.25 
Q 37.109375 3.90625 33.390625 2.53125 
Q 29.6875 1.171875 24.015625 1.171875 
Q 18.359375 1.171875 14.25 2.53125 
Q 10.15625 3.90625 7.421875 6.640625 
Q 4.6875 9.375 3.703125 13.078125 
Q 2.734375 16.796875 2.734375 26.171875 
z
M 10.9375 26.5625 
Q 10.546875 17.1875 12.296875 13.671875 
Q 14.0625 10.15625 18.75 9.171875 
Q 23.4375 8.203125 28.515625 9.375 
Q 33.59375 10.546875 35.546875 14.84375 
Q 37.5 19.140625 36.90625 23.4375 
Q 36.328125 27.734375 32.03125 30.65625 
Q 27.734375 33.59375 22.65625 33.203125 
Q 17.578125 32.8125 14.25 29.6875 
Q 10.9375 26.5625 10.546875 17.1875 
z
M 12.109375 56.25 
Q 12.109375 48.4375 14.84375 44.921875 
Q 17.578125 41.40625 23.4375 41.40625 
Q 29.296875 41.40625 32.21875 44.921875 
Q 35.15625 48.4375 34.953125 53.3125 
Q 34.765625 58.203125 31.4375 60.546875 
Q 28.125 62.890625 22.453125 62.5 
Q 16.796875 62.109375 14.453125 59.171875 
Q 12.109375 56.25 12.109375 48.4375 
z
" id="SimHei-56"/>
     </defs>
     <use xlink:href="#SimHei-49"/>
     <use x="50" xlink:href="#SimHei-49"/>
     <use x="100" xlink:href="#SimHei-56"/>
     <use x="150" xlink:href="#SimHei-52"/>
    </g>
   </g>
   <g id="text_17">
    <!-- 4140 -->
    <g transform="translate(310.420455 20.696904)scale(0.1 -0.1)">
     <use xlink:href="#SimHei-52"/>
     <use x="50" xlink:href="#SimHei-49"/>
     <use x="100" xlink:href="#SimHei-52"/>
     <use x="150" xlink:href="#SimHei-48"/>
    </g>
   </g>
   <g id="text_18">
    <!-- 284 -->
    <g transform="translate(96.964286 230.367459)scale(0.1 -0.1)">
     <use xlink:href="#SimHei-50"/>
     <use x="50" xlink:href="#SimHei-56"/>
     <use x="100" xlink:href="#SimHei-52"/>
    </g>
   </g>
   <g id="text_19">
    <!-- 856 -->
    <g transform="translate(216.939935 199.264877)scale(0.1 -0.1)">
     <use xlink:href="#SimHei-56"/>
     <use x="50" xlink:href="#SimHei-53"/>
     <use x="100" xlink:href="#SimHei-54"/>
    </g>
   </g>
   <g id="text_20">
    <!-- 3832 -->
    <g transform="translate(334.415584 37.444449)scale(0.1 -0.1)">
     <use xlink:href="#SimHei-51"/>
     <use x="50" xlink:href="#SimHei-56"/>
     <use x="100" xlink:href="#SimHei-51"/>
     <use x="150" xlink:href="#SimHei-50"/>
    </g>
   </g>
   <g id="text_21">
    <!-- 253 -->
    <g transform="translate(120.959416 232.053088)scale(0.1 -0.1)">
     <use xlink:href="#SimHei-50"/>
     <use x="50" xlink:href="#SimHei-53"/>
     <use x="100" xlink:href="#SimHei-51"/>
    </g>
   </g>
   <g id="text_22">
    <!-- 805 -->
    <g transform="translate(240.935065 202.038009)scale(0.1 -0.1)">
     <use xlink:href="#SimHei-56"/>
     <use x="50" xlink:href="#SimHei-48"/>
     <use x="100" xlink:href="#SimHei-53"/>
    </g>
   </g>
   <g id="text_23">
    <!-- 3751 -->
    <g transform="translate(358.410714 41.848835)scale(0.1 -0.1)">
     <use xlink:href="#SimHei-51"/>
     <use x="50" xlink:href="#SimHei-55"/>
     <use x="100" xlink:href="#SimHei-53"/>
     <use x="150" xlink:href="#SimHei-49"/>
    </g>
   </g>
   <g id="text_24">
    <!-- 248 -->
    <g transform="translate(144.954545 232.324964)scale(0.1 -0.1)">
     <use xlink:href="#SimHei-50"/>
     <use x="50" xlink:href="#SimHei-52"/>
     <use x="100" xlink:href="#SimHei-56"/>
    </g>
   </g>
   <g id="text_25">
    <!-- 572 -->
    <g transform="translate(264.930195 214.707417)scale(0.1 -0.1)">
     <use xlink:href="#SimHei-53"/>
     <use x="50" xlink:href="#SimHei-55"/>
     <use x="100" xlink:href="#SimHei-50"/>
    </g>
   </g>
   <g id="text_26">
    <!-- 2360 -->
    <g transform="translate(382.405844 117.48466)scale(0.1 -0.1)">
     <use xlink:href="#SimHei-50"/>
     <use x="50" xlink:href="#SimHei-51"/>
     <use x="100" xlink:href="#SimHei-54"/>
     <use x="150" xlink:href="#SimHei-48"/>
    </g>
   </g>
   <g id="legend_1">
    <g id="patch_19">
     <path d="M 58.675 76.182813 
L 255.675 76.182813 
Q 257.675 76.182813 257.675 74.182813 
L 257.675 17.8 
Q 257.675 15.8 255.675 15.8 
L 58.675 15.8 
Q 56.675 15.8 56.675 17.8 
L 56.675 74.182813 
Q 56.675 76.182813 58.675 76.182813 
z
" style="fill:#ffffff;opacity:0.8;stroke:#cccccc;stroke-linejoin:miter;"/>
    </g>
    <g id="patch_20">
     <path d="M 60.675 27.885938 
L 80.675 27.885938 
L 80.675 20.885938 
L 60.675 20.885938 
z
" style="fill:url(#ha89f7e4a56);opacity:0.8;stroke:#000000;stroke-linejoin:miter;"/>
    </g>
    <g id="text_27">
     <!-- 无多租户共享 -->
     <g transform="translate(88.675 27.885938)scale(0.1 -0.1)">
      <defs>
       <path d="M 67.96875 73.828125 
Q 76.171875 73.828125 82.8125 74.21875 
L 82.8125 66.796875 
Q 76.953125 67.1875 67.96875 67.1875 
L 49.609375 67.1875 
Q 49.609375 54.296875 48.828125 43.75 
L 78.90625 43.75 
Q 85.9375 43.75 91.796875 44.140625 
L 91.796875 36.71875 
Q 85.9375 37.109375 79.296875 37.109375 
L 61.71875 37.109375 
L 61.71875 6.640625 
Q 61.71875 1.5625 67.578125 1.5625 
L 80.859375 1.5625 
Q 85.15625 1.5625 85.546875 13.28125 
Q 89.453125 10.9375 94.140625 9.765625 
Q 92.1875 -5.46875 85.15625 -5.46875 
L 63.671875 -5.46875 
Q 54.6875 -5.078125 54.6875 4.6875 
L 54.6875 37.109375 
L 48.046875 37.109375 
Q 44.921875 22.265625 40.421875 14.640625 
Q 35.9375 7.03125 30.078125 1.75 
Q 24.21875 -3.515625 12.5 -10.15625 
Q 10.546875 -5.859375 5.859375 -3.515625 
Q 15.234375 0.78125 21.09375 5.265625 
Q 26.953125 9.765625 32.21875 16.40625 
Q 37.5 23.046875 40.625 37.109375 
L 23.4375 37.109375 
Q 13.671875 37.109375 9.375 36.71875 
L 9.375 44.140625 
Q 13.671875 43.75 23.4375 43.75 
L 41.40625 43.75 
Q 41.796875 55.46875 41.796875 67.1875 
L 31.25 67.1875 
Q 23.4375 67.1875 16.796875 66.796875 
L 16.796875 74.21875 
Q 23.4375 73.828125 31.25 73.828125 
z
" id="SimHei-26080"/>
       <path d="M 59.375 46.09375 
Q 62.5 42.96875 66.796875 41.40625 
Q 63.28125 38.28125 60.15625 35.546875 
L 92.578125 35.546875 
Q 87.890625 23.828125 80.265625 15.234375 
Q 72.65625 6.640625 63.28125 1.953125 
Q 53.90625 -2.734375 42.578125 -5.859375 
Q 31.25 -8.984375 14.84375 -10.546875 
Q 13.28125 -6.25 10.15625 -2.34375 
Q 19.921875 -2.734375 33.390625 -0.390625 
Q 46.875 1.953125 57.8125 7.03125 
Q 50.78125 14.0625 46.09375 18.359375 
Q 49.21875 20.703125 51.5625 23.4375 
Q 57.03125 17.96875 64.0625 10.546875 
Q 69.140625 13.671875 73.625 18.546875 
Q 78.125 23.4375 81.25 29.6875 
L 54.296875 29.6875 
Q 50.390625 26.5625 43.359375 22.0625 
Q 36.328125 17.578125 23.828125 12.109375 
Q 21.875 16.015625 18.75 18.359375 
Q 31.640625 22.265625 43.15625 30.46875 
Q 54.6875 38.671875 59.375 46.09375 
z
M 14.0625 28.90625 
Q 12.5 32.8125 8.984375 36.328125 
Q 16.40625 36.71875 26.953125 39.453125 
Q 37.5 42.1875 43.359375 45.3125 
Q 38.671875 51.5625 32.8125 56.25 
Q 35.9375 58.59375 37.890625 61.328125 
Q 45.3125 54.296875 50 48.828125 
Q 55.859375 52.34375 60.546875 56.4375 
Q 65.234375 60.546875 68.75 65.234375 
L 35.15625 65.234375 
Q 26.953125 58.203125 16.015625 51.171875 
Q 13.671875 54.6875 10.15625 56.640625 
Q 20.703125 61.328125 29.296875 68.75 
Q 37.890625 76.171875 40.625 81.640625 
Q 43.75 79.296875 47.265625 76.953125 
Q 45.3125 75.390625 41.015625 71.09375 
L 81.640625 71.09375 
Q 70.3125 54.6875 59.375 47.265625 
Q 48.4375 39.84375 38.078125 36.125 
Q 27.734375 32.421875 14.0625 28.90625 
z
" id="SimHei-22810"/>
       <path d="M 31.640625 57.8125 
Q 31.640625 73.4375 31.25 78.125 
L 40.625 78.125 
Q 39.84375 73.4375 39.84375 57.8125 
L 61.328125 57.8125 
Q 61.328125 73.828125 60.9375 78.515625 
L 70.3125 78.515625 
Q 69.53125 73.828125 69.53125 57.8125 
L 77.34375 57.8125 
Q 84.375 57.8125 89.453125 58.203125 
L 89.453125 51.171875 
Q 84.375 51.5625 77.34375 51.5625 
L 69.53125 51.5625 
L 69.53125 28.90625 
L 82.8125 28.90625 
Q 89.84375 28.90625 94.53125 29.296875 
L 94.53125 22.265625 
Q 90.234375 22.65625 83.203125 22.65625 
L 16.796875 22.65625 
Q 9.375 22.65625 5.078125 22.265625 
L 5.078125 29.296875 
Q 9.375 28.90625 16.796875 28.90625 
L 31.640625 28.90625 
L 31.640625 51.5625 
L 25 51.5625 
Q 15.625 51.5625 10.9375 51.171875 
L 10.9375 58.203125 
Q 16.015625 57.8125 25.390625 57.8125 
z
M 61.328125 28.90625 
L 61.328125 51.5625 
L 39.84375 51.5625 
L 39.84375 28.90625 
z
M 44.921875 11.328125 
Q 39.453125 8.59375 30.65625 2.140625 
Q 21.875 -4.296875 13.28125 -8.203125 
Q 10.546875 -4.296875 7.03125 -1.5625 
Q 15.234375 1.953125 22.453125 6.4375 
Q 29.6875 10.9375 36.328125 17.578125 
Q 40.625 14.0625 44.921875 11.328125 
z
M 63.28125 17.578125 
Q 67.96875 14.84375 76.953125 9.375 
Q 85.9375 3.90625 92.578125 -1.5625 
Q 89.0625 -4.296875 86.328125 -7.8125 
Q 79.6875 -2.734375 71.671875 2.53125 
Q 63.671875 7.8125 57.421875 10.9375 
Q 60.546875 14.0625 63.28125 17.578125 
z
" id="SimHei-20849"/>
       <path d="M 84.375 35.15625 
L 84.375 28.125 
Q 74.609375 26.171875 67.375 22.84375 
Q 60.15625 19.53125 55.859375 17.578125 
L 81.25 17.578125 
Q 89.453125 17.578125 96.484375 17.96875 
L 96.484375 10.9375 
Q 89.84375 11.328125 81.25 11.328125 
L 55.46875 11.328125 
L 55.46875 -1.171875 
Q 55.859375 -5.078125 52.53125 -7.03125 
Q 49.21875 -8.984375 40.625 -10.15625 
Q 40.625 -6.25 37.5 -1.953125 
Q 46.484375 -2.34375 47.265625 -0.96875 
Q 48.046875 0.390625 48.046875 11.328125 
L 19.140625 11.328125 
Q 11.328125 11.328125 5.46875 10.9375 
L 5.46875 17.96875 
Q 11.71875 17.578125 19.921875 17.578125 
L 48.046875 17.578125 
Q 48.046875 18.75 47.65625 20.703125 
L 64.84375 28.90625 
L 28.515625 28.90625 
Q 23.4375 28.90625 16.015625 28.515625 
L 16.015625 35.546875 
Q 21.09375 35.15625 29.296875 35.15625 
z
M 78.515625 59.765625 
Q 78.125 54.6875 78.125 50 
Q 78.125 45.703125 78.515625 41.40625 
L 21.875 41.40625 
Q 22.265625 46.09375 22.265625 50.390625 
Q 22.265625 55.078125 21.875 59.765625 
L 78.515625 59.765625 
z
M 53.125 82.8125 
Q 55.859375 75 56.640625 72.265625 
L 77.34375 72.265625 
Q 84.765625 72.265625 91.40625 72.65625 
L 91.40625 65.625 
Q 84.765625 66.015625 77.34375 66.015625 
L 24.609375 66.015625 
Q 17.578125 66.015625 9.375 65.625 
L 9.375 72.65625 
Q 18.75 72.265625 26.953125 72.265625 
L 48.046875 72.265625 
Q 47.265625 74.609375 44.53125 80.46875 
L 53.125 82.8125 
z
M 71.09375 46.875 
L 71.09375 54.296875 
L 29.296875 54.296875 
L 29.296875 46.875 
z
" id="SimHei-20139"/>
      </defs>
      <use xlink:href="#SimHei-26080"/>
      <use x="100" xlink:href="#SimHei-22810"/>
      <use x="200" xlink:href="#SimHei-31199"/>
      <use x="300" xlink:href="#SimHei-25143"/>
      <use x="400" xlink:href="#SimHei-20849"/>
      <use x="500" xlink:href="#SimHei-20139"/>
     </g>
    </g>
    <g id="patch_21">
     <path d="M 60.675 42.221875 
L 80.675 42.221875 
L 80.675 35.221875 
L 60.675 35.221875 
z
" style="fill:url(#hc552c2522e);opacity:0.8;stroke:#000000;stroke-linejoin:miter;"/>
    </g>
    <g id="text_28">
     <!-- 多租户共享 -->
     <g transform="translate(88.675 42.221875)scale(0.1 -0.1)">
      <use xlink:href="#SimHei-22810"/>
      <use x="100" xlink:href="#SimHei-31199"/>
      <use x="200" xlink:href="#SimHei-25143"/>
      <use x="300" xlink:href="#SimHei-20849"/>
      <use x="400" xlink:href="#SimHei-20139"/>
     </g>
    </g>
    <g id="patch_22">
     <path d="M 60.675 56.557813 
L 80.675 56.557813 
L 80.675 49.557813 
L 60.675 49.557813 
z
" style="fill:url(#hf068ee2aa6);opacity:0.8;stroke:#000000;stroke-linejoin:miter;"/>
    </g>
    <g id="text_29">
     <!-- 多租户共享+SSD阵列 -->
     <g transform="translate(88.675 56.557813)scale(0.1 -0.1)">
      <defs>
       <path d="M 46.875 33.203125 
L 27.734375 33.203125 
L 27.734375 14.0625 
L 21.09375 14.0625 
L 21.09375 33.203125 
L 1.953125 33.203125 
L 1.953125 39.453125 
L 21.09375 39.453125 
L 21.09375 58.59375 
L 27.734375 58.59375 
L 27.734375 39.453125 
L 46.875 39.453125 
z
" id="SimHei-43"/>
       <path d="M 45.3125 20.703125 
Q 45.3125 11.71875 39.640625 6.4375 
Q 33.984375 1.171875 24.21875 1.171875 
Q 14.453125 1.171875 8.984375 6.640625 
Q 3.515625 12.109375 3.515625 20.3125 
L 3.515625 23.046875 
L 12.5 23.046875 
L 12.5 20.703125 
Q 12.5 14.84375 16.015625 11.71875 
Q 19.53125 8.59375 24.21875 8.59375 
Q 30.46875 8.59375 33.390625 11.90625 
Q 36.328125 15.234375 36.328125 19.921875 
Q 36.328125 23.828125 32.8125 27.140625 
Q 29.296875 30.46875 22.65625 33.203125 
Q 13.28125 36.71875 9.171875 41.015625 
Q 5.078125 45.3125 5.078125 51.171875 
Q 5.078125 59.375 10.734375 64.453125 
Q 16.40625 69.53125 24.21875 69.53125 
Q 34.375 69.53125 38.859375 63.46875 
Q 43.359375 57.421875 43.359375 50.390625 
L 34.375 50.390625 
Q 34.765625 54.6875 32.03125 58.203125 
Q 29.296875 61.71875 24.21875 61.71875 
Q 19.53125 61.71875 16.796875 59.171875 
Q 14.0625 56.640625 14.0625 52.34375 
Q 14.0625 48.828125 16.203125 46.28125 
Q 18.359375 43.75 27.34375 40.234375 
Q 35.9375 36.71875 40.625 31.828125 
Q 45.3125 26.953125 45.3125 20.703125 
z
" id="SimHei-83"/>
       <path d="M 45.703125 35.15625 
Q 45.703125 17.1875 38.078125 9.5625 
Q 30.46875 1.953125 17.578125 1.953125 
L 4.296875 1.953125 
L 4.296875 68.75 
L 17.578125 68.75 
Q 32.03125 68.75 38.859375 60.9375 
Q 45.703125 53.125 45.703125 35.15625 
z
M 36.328125 35.15625 
Q 36.328125 49.609375 31.640625 55.46875 
Q 26.953125 61.328125 17.578125 61.328125 
L 13.28125 61.328125 
L 13.28125 9.375 
L 17.578125 9.375 
Q 26.953125 9.375 31.640625 15.03125 
Q 36.328125 20.703125 36.328125 35.15625 
z
" id="SimHei-68"/>
       <path d="M 37.890625 38.28125 
Q 42.1875 41.015625 45.3125 46.671875 
Q 48.4375 52.34375 51.171875 59.765625 
Q 45.3125 59.765625 38.28125 59.375 
L 38.28125 66.796875 
Q 45.703125 66.40625 53.90625 66.40625 
Q 56.25 73.046875 57.421875 81.25 
Q 62.5 80.078125 67.578125 78.515625 
Q 62.890625 69.921875 61.71875 66.40625 
L 79.6875 66.40625 
Q 86.71875 66.40625 92.578125 66.796875 
L 92.578125 59.375 
Q 87.109375 59.765625 80.078125 59.765625 
L 58.984375 59.765625 
Q 56.25 53.515625 48.4375 38.28125 
L 63.28125 38.28125 
L 63.28125 42.96875 
Q 63.28125 46.875 62.890625 51.5625 
L 71.484375 51.5625 
Q 71.09375 47.265625 71.09375 44.140625 
L 71.09375 38.28125 
L 77.34375 38.28125 
Q 83.984375 38.28125 90.234375 38.671875 
L 90.234375 31.640625 
Q 84.375 32.03125 77.734375 32.03125 
L 71.09375 32.03125 
L 71.09375 16.796875 
L 81.640625 16.796875 
Q 88.671875 16.796875 94.53125 17.1875 
L 94.53125 9.765625 
Q 88.671875 10.15625 82.03125 10.15625 
L 71.09375 10.15625 
L 71.09375 1.953125 
Q 71.09375 -3.515625 71.484375 -9.375 
L 62.890625 -9.375 
Q 63.28125 -3.515625 63.28125 0.78125 
L 63.28125 10.15625 
L 50 10.15625 
Q 43.359375 10.15625 36.71875 9.765625 
L 36.71875 17.1875 
Q 43.359375 16.796875 50 16.796875 
L 63.28125 16.796875 
L 63.28125 31.640625 
Q 55.859375 31.640625 50.78125 31.25 
Q 45.703125 30.859375 41.40625 29.6875 
Q 39.0625 36.328125 37.890625 38.28125 
z
M 36.328125 75.390625 
Q 29.296875 57.421875 26.171875 46.09375 
Q 32.8125 37.109375 34.765625 32.03125 
Q 36.71875 26.953125 36.328125 22.65625 
Q 35.9375 18.359375 31.828125 15.234375 
Q 27.734375 12.109375 22.265625 10.546875 
Q 20.703125 15.234375 18.75 19.53125 
Q 25.78125 19.53125 27.34375 21.875 
Q 28.90625 24.21875 28.125 28.3125 
Q 27.34375 32.421875 25.390625 36.328125 
Q 23.4375 40.234375 19.140625 44.921875 
Q 24.609375 62.109375 25.78125 69.140625 
L 15.625 69.140625 
L 15.625 -8.203125 
L 7.8125 -8.203125 
Q 8.203125 2.34375 8.203125 12.890625 
L 8.203125 58.59375 
Q 8.203125 67.578125 7.8125 75.390625 
L 36.328125 75.390625 
z
" id="SimHei-38453"/>
       <path d="M 46.09375 75 
Q 55.078125 75 59.765625 75.390625 
L 59.765625 68.75 
Q 55.078125 69.140625 43.75 69.140625 
L 33.203125 69.140625 
Q 32.421875 64.453125 30.078125 54.6875 
L 53.515625 54.6875 
Q 51.5625 39.0625 48.4375 29.09375 
Q 45.3125 19.140625 40.234375 11.90625 
Q 35.15625 4.6875 28.90625 -0.1875 
Q 22.65625 -5.078125 14.453125 -10.546875 
Q 11.328125 -5.859375 7.421875 -2.34375 
Q 17.578125 1.953125 24.21875 6.828125 
Q 30.859375 11.71875 35.15625 19.140625 
Q 32.8125 21.09375 29.09375 24.21875 
Q 25.390625 27.34375 21.875 30.078125 
L 27.34375 36.328125 
Q 30.078125 34.375 32.8125 31.828125 
Q 35.546875 29.296875 39.0625 25.78125 
Q 41.40625 31.640625 42.765625 36.515625 
Q 44.140625 41.40625 44.921875 48.4375 
L 27.734375 48.4375 
Q 25 41.40625 21.09375 34.953125 
Q 17.1875 28.515625 12.109375 23.828125 
Q 9.375 26.171875 5.078125 28.90625 
Q 9.375 33.203125 12.890625 38.46875 
Q 16.40625 43.75 18.75 48.828125 
Q 21.09375 53.90625 22.265625 58.984375 
Q 23.4375 64.0625 24.21875 69.140625 
L 17.1875 69.140625 
Q 8.984375 69.140625 5.859375 68.75 
L 5.859375 75.390625 
Q 8.984375 75 17.578125 75 
z
M 93.359375 78.90625 
Q 92.578125 73.046875 92.578125 66.40625 
L 92.578125 0.78125 
Q 92.578125 -4.296875 89.640625 -6.25 
Q 86.71875 -8.203125 76.5625 -9.765625 
Q 75.390625 -3.90625 72.65625 0.390625 
Q 80.46875 0 82.609375 0.390625 
Q 84.765625 0.78125 84.765625 5.078125 
L 84.765625 66.40625 
Q 84.765625 72.65625 84.375 78.90625 
L 93.359375 78.90625 
z
M 73.828125 67.1875 
Q 73.046875 62.5 73.046875 53.90625 
L 73.046875 25.78125 
Q 73.046875 18.75 73.4375 13.28125 
L 64.0625 13.28125 
Q 64.84375 18.75 64.84375 25.78125 
L 64.84375 55.46875 
Q 64.84375 62.109375 64.0625 67.1875 
L 73.828125 67.1875 
z
" id="SimHei-21015"/>
      </defs>
      <use xlink:href="#SimHei-22810"/>
      <use x="100" xlink:href="#SimHei-31199"/>
      <use x="200" xlink:href="#SimHei-25143"/>
      <use x="300" xlink:href="#SimHei-20849"/>
      <use x="400" xlink:href="#SimHei-20139"/>
      <use x="500" xlink:href="#SimHei-43"/>
      <use x="550" xlink:href="#SimHei-83"/>
      <use x="600" xlink:href="#SimHei-83"/>
      <use x="650" xlink:href="#SimHei-68"/>
      <use x="700" xlink:href="#SimHei-38453"/>
      <use x="800" xlink:href="#SimHei-21015"/>
     </g>
    </g>
    <g id="patch_23">
     <path d="M 60.675 70.932813 
L 80.675 70.932813 
L 80.675 63.932813 
L 60.675 63.932813 
z
" style="fill:url(#h702cb078ce);opacity:0.8;stroke:#000000;stroke-linejoin:miter;"/>
    </g>
    <g id="text_30">
     <!-- 多租户共享+SSD阵列+启发式数据分布 -->
     <g transform="translate(88.675 70.932813)scale(0.1 -0.1)">
      <defs>
       <path d="M 3.90625 -3.125 
Q 11.328125 3.90625 15.421875 19.53125 
Q 19.53125 35.15625 19.53125 48.4375 
Q 19.53125 62.109375 19.140625 69.140625 
L 50.78125 69.140625 
Q 48.828125 74.609375 45.3125 78.90625 
Q 48.828125 80.078125 52.734375 82.8125 
Q 57.03125 76.953125 60.546875 69.140625 
L 84.765625 69.140625 
Q 84.375 61.328125 84.375 55.078125 
Q 84.375 49.21875 84.765625 40.234375 
L 26.171875 40.234375 
Q 25.390625 22.65625 21.09375 10.9375 
Q 16.796875 -0.78125 11.71875 -8.984375 
Q 9.375 -5.859375 3.90625 -3.125 
z
M 85.9375 28.90625 
Q 85.546875 22.265625 85.546875 9.765625 
Q 85.546875 -2.734375 85.9375 -9.765625 
L 77.34375 -9.765625 
L 77.34375 -1.5625 
L 37.109375 -1.5625 
L 37.109375 -9.375 
L 28.515625 -9.375 
Q 28.90625 -1.5625 28.90625 10.15625 
Q 28.90625 21.875 28.515625 28.90625 
L 85.9375 28.90625 
z
M 76.171875 46.875 
L 76.171875 62.890625 
L 26.171875 62.890625 
L 26.171875 46.875 
z
M 77.34375 5.078125 
L 77.34375 22.65625 
L 37.109375 22.65625 
L 37.109375 5.078125 
z
" id="SimHei-21551"/>
       <path d="M 54.296875 76.953125 
Q 52.34375 72.65625 51.171875 68.15625 
Q 50 63.671875 48.046875 55.859375 
L 79.296875 55.859375 
Q 83.203125 55.859375 91.015625 56.25 
L 91.015625 48.828125 
Q 83.203125 49.21875 79.296875 49.21875 
L 46.484375 49.21875 
Q 44.140625 43.359375 41.40625 37.5 
L 82.8125 37.5 
Q 75.390625 19.53125 62.109375 7.421875 
Q 72.65625 0 92.96875 -2.34375 
Q 90.234375 -5.46875 88.28125 -10.15625 
Q 80.46875 -8.59375 72.265625 -5.65625 
Q 64.0625 -2.734375 56.25 2.734375 
Q 50 -1.171875 41.015625 -4.875 
Q 32.03125 -8.59375 22.65625 -10.9375 
Q 21.875 -7.03125 18.75 -3.515625 
Q 27.34375 -2.34375 35.9375 0.578125 
Q 44.53125 3.515625 51.171875 7.8125 
Q 44.53125 14.453125 36.328125 26.953125 
Q 32.03125 19.921875 25.390625 13.28125 
Q 18.75 6.640625 10.9375 1.171875 
Q 9.375 3.90625 4.6875 7.03125 
Q 10.546875 10.15625 16.203125 15.234375 
Q 21.875 20.3125 28.125 28.703125 
Q 34.375 37.109375 38.671875 49.21875 
Q 28.515625 49.21875 23.046875 48.828125 
Q 17.578125 48.4375 14.84375 47.265625 
Q 13.671875 50.78125 11.71875 54.6875 
Q 15.625 55.46875 17.375 60.546875 
Q 19.140625 65.625 21.09375 76.171875 
Q 24.21875 74.609375 29.6875 73.046875 
Q 27.734375 69.140625 26.171875 65.03125 
Q 24.609375 60.9375 22.65625 55.859375 
L 40.625 55.859375 
Q 43.75 68.359375 45.3125 79.6875 
Q 49.609375 77.34375 54.296875 76.953125 
z
M 41.796875 31.25 
Q 47.265625 21.484375 57.03125 11.71875 
Q 65.625 18.75 72.265625 31.25 
L 41.796875 31.25 
z
M 68.75 79.296875 
Q 75.390625 71.875 82.03125 64.0625 
Q 79.296875 62.5 75.390625 58.984375 
Q 69.140625 67.96875 63.28125 74.21875 
Q 66.015625 76.171875 68.75 79.296875 
z
" id="SimHei-21457"/>
       <path d="M 51.5625 60.9375 
Q 50.78125 74.609375 50.390625 81.640625 
Q 52.734375 81.25 60.546875 80.859375 
Q 59.765625 78.125 60.15625 60.9375 
L 75.78125 60.9375 
Q 83.203125 60.9375 91.015625 61.328125 
L 91.015625 53.515625 
Q 83.984375 53.90625 76.171875 53.90625 
L 60.546875 53.90625 
Q 61.71875 43.75 63.859375 34.953125 
Q 66.015625 26.171875 69.53125 18.359375 
Q 73.046875 10.546875 78.703125 4.484375 
Q 84.375 -1.5625 85.546875 3.90625 
Q 86.71875 9.375 86.328125 14.84375 
Q 89.84375 12.109375 96.09375 9.765625 
Q 93.359375 -7.03125 88.078125 -8.203125 
Q 82.8125 -9.375 77.53125 -5.65625 
Q 72.265625 -1.953125 67.578125 5.078125 
Q 62.890625 12.109375 59.953125 20.5 
Q 57.03125 28.90625 55.078125 37.890625 
Q 53.125 46.875 52.34375 53.90625 
L 23.828125 53.90625 
Q 12.5 53.90625 5.46875 53.515625 
L 5.46875 61.328125 
Q 12.890625 60.9375 23.4375 60.9375 
z
M 35.15625 40.234375 
Q 42.578125 40.234375 49.21875 40.625 
L 49.21875 33.203125 
Q 42.1875 33.59375 34.375 33.59375 
L 34.375 8.984375 
Q 42.578125 10.9375 53.125 13.671875 
L 53.125 6.640625 
Q 39.0625 3.90625 30.859375 1.359375 
Q 22.65625 -1.171875 10.9375 -5.859375 
L 7.03125 3.515625 
Q 11.71875 3.90625 26.5625 7.03125 
L 26.5625 33.59375 
Q 15.234375 33.59375 10.9375 33.203125 
L 10.9375 40.625 
Q 15.234375 40.234375 23.046875 40.234375 
z
M 73.4375 79.296875 
Q 80.859375 71.09375 83.984375 67.1875 
Q 82.03125 66.40625 76.5625 62.5 
Q 73.828125 67.1875 66.796875 74.21875 
Q 68.75 75.78125 73.4375 79.296875 
z
" id="SimHei-24335"/>
       <path d="M 15.625 -10.15625 
Q 12.890625 -5.859375 8.984375 -3.515625 
Q 15.234375 -1.171875 20.3125 2.140625 
Q 25.390625 5.46875 29.296875 10.34375 
Q 33.203125 15.234375 35.15625 21.09375 
Q 37.109375 26.953125 37.890625 35.546875 
Q 28.90625 35.546875 23.4375 35.15625 
L 23.4375 43.359375 
Q 29.6875 42.96875 39.453125 42.96875 
L 78.515625 42.96875 
Q 77.734375 37.109375 77.34375 32.8125 
L 74.21875 3.90625 
Q 73.4375 -3.125 67.96875 -5.46875 
Q 62.5 -7.8125 55.859375 -8.203125 
Q 55.46875 -4.296875 51.953125 0.78125 
Q 60.15625 0.390625 63.078125 1.359375 
Q 66.015625 2.34375 66.796875 8.203125 
L 69.53125 35.546875 
L 46.09375 35.546875 
Q 44.921875 25.390625 42.765625 18.546875 
Q 40.625 11.71875 36.71875 6.640625 
Q 32.8125 1.5625 27.34375 -2.734375 
Q 21.875 -7.03125 15.625 -10.15625 
z
M 61.71875 80.859375 
Q 64.453125 72.65625 72.84375 62.109375 
Q 81.25 51.5625 96.484375 43.75 
Q 93.359375 41.015625 90.234375 35.546875 
Q 83.203125 40.625 77.921875 45.109375 
Q 72.65625 49.609375 69.140625 53.515625 
Q 65.625 57.421875 61.328125 64.640625 
Q 57.03125 71.875 54.296875 78.125 
Q 58.59375 79.296875 61.71875 80.859375 
z
M 42.1875 75.390625 
Q 38.671875 69.140625 36.328125 64.453125 
Q 33.984375 59.765625 31.640625 56.046875 
Q 29.296875 52.34375 24.609375 46.09375 
Q 19.921875 39.84375 13.28125 33.203125 
Q 9.765625 36.71875 6.25 38.671875 
Q 14.0625 45.703125 18.546875 51.5625 
Q 23.046875 57.421875 27.140625 64.25 
Q 31.25 71.09375 34.375 79.296875 
Q 37.5 76.953125 42.1875 75.390625 
z
" id="SimHei-20998"/>
       <path d="M 37.109375 66.015625 
Q 41.40625 74.609375 43.359375 82.8125 
Q 48.828125 80.859375 53.125 79.296875 
Q 51.171875 77.734375 46.09375 66.015625 
L 75 66.015625 
Q 86.71875 66.015625 94.140625 66.40625 
L 94.140625 59.375 
L 42.578125 59.375 
Q 36.328125 48.4375 30.859375 41.796875 
L 51.171875 41.796875 
Q 51.171875 50.390625 50.78125 55.859375 
L 58.984375 55.859375 
Q 58.59375 50.390625 58.59375 41.796875 
L 85.9375 41.796875 
Q 85.546875 34.765625 85.546875 27.734375 
L 85.546875 11.71875 
Q 85.546875 4.296875 81.4375 2.34375 
Q 77.34375 0.390625 69.53125 -0.390625 
Q 68.75 5.078125 66.015625 8.59375 
Q 75 8.59375 76.75 9.765625 
Q 78.515625 10.9375 78.125 16.015625 
L 78.125 35.15625 
L 58.59375 35.15625 
L 58.59375 8.59375 
Q 58.59375 0.390625 58.984375 -9.375 
L 50.78125 -9.375 
Q 51.171875 0.390625 51.171875 8.59375 
L 51.171875 35.15625 
L 32.8125 35.15625 
L 32.8125 0 
L 25 0 
Q 25.390625 8.203125 25.390625 16.015625 
L 25.390625 34.765625 
Q 20.3125 28.90625 10.15625 19.921875 
Q 7.421875 23.046875 3.125 25.78125 
Q 11.71875 31.640625 19.71875 40.03125 
Q 27.734375 48.4375 33.59375 59.375 
L 24.21875 59.375 
Q 14.453125 59.375 6.25 58.984375 
L 6.25 66.40625 
Q 14.453125 66.015625 24.21875 66.015625 
z
" id="SimHei-24067"/>
      </defs>
      <use xlink:href="#SimHei-22810"/>
      <use x="100" xlink:href="#SimHei-31199"/>
      <use x="200" xlink:href="#SimHei-25143"/>
      <use x="300" xlink:href="#SimHei-20849"/>
      <use x="400" xlink:href="#SimHei-20139"/>
      <use x="500" xlink:href="#SimHei-43"/>
      <use x="550" xlink:href="#SimHei-83"/>
      <use x="600" xlink:href="#SimHei-83"/>
      <use x="650" xlink:href="#SimHei-68"/>
      <use x="700" xlink:href="#SimHei-38453"/>
      <use x="800" xlink:href="#SimHei-21015"/>
      <use x="900" xlink:href="#SimHei-43"/>
      <use x="950" xlink:href="#SimHei-21551"/>
      <use x="1050" xlink:href="#SimHei-21457"/>
      <use x="1150" xlink:href="#SimHei-24335"/>
      <use x="1250" xlink:href="#SimHei-25968"/>
      <use x="1350" xlink:href="#SimHei-25454"/>
      <use x="1450" xlink:href="#SimHei-20998"/>
      <use x="1550" xlink:href="#SimHei-24067"/>
     </g>
    </g>
   </g>
  </g>
 </g>
 <defs>
  <clipPath id="pc5af5f2f03">
   <rect height="236.36875" width="369.525" x="51.675" y="10.8"/>
  </clipPath>
 </defs>
 <defs>
  <pattern height="72" id="ha89f7e4a56" patternUnits="userSpaceOnUse" width="72" x="0" y="0">
   <rect fill="#1f77b4" height="73" width="73" x="0" y="0"/>
   <path d="M -36 36 
L 36 -36 
M -24 48 
L 48 -24 
M -12 60 
L 60 -12 
M 0 72 
L 72 0 
M 12 84 
L 84 12 
M 24 96 
L 96 24 
M 36 108 
L 108 36 
" style="fill:#000000;stroke:#000000;stroke-linecap:butt;stroke-linejoin:miter;stroke-opacity:0.8;stroke-width:1.0;"/>
  </pattern>
  <pattern height="72" id="hc552c2522e" patternUnits="userSpaceOnUse" width="72" x="0" y="0">
   <rect fill="#ff7f0e" height="73" width="73" x="0" y="0"/>
   <path d="M 0 73.2 
C 0.318244 73.2 0.623496 73.07356 0.848528 72.848528 
C 1.07356 72.623496 1.2 72.318244 1.2 72 
C 1.2 71.681756 1.07356 71.376504 0.848528 71.151472 
C 0.623496 70.92644 0.318244 70.8 0 70.8 
C -0.318244 70.8 -0.623496 70.92644 -0.848528 71.151472 
C -1.07356 71.376504 -1.2 71.681756 -1.2 72 
C -1.2 72.318244 -1.07356 72.623496 -0.848528 72.848528 
C -0.623496 73.07356 -0.318244 73.2 0 73.2 
z
M 12 73.2 
C 12.318244 73.2 12.623496 73.07356 12.848528 72.848528 
C 13.07356 72.623496 13.2 72.318244 13.2 72 
C 13.2 71.681756 13.07356 71.376504 12.848528 71.151472 
C 12.623496 70.92644 12.318244 70.8 12 70.8 
C 11.681756 70.8 11.376504 70.92644 11.151472 71.151472 
C 10.92644 71.376504 10.8 71.681756 10.8 72 
C 10.8 72.318244 10.92644 72.623496 11.151472 72.848528 
C 11.376504 73.07356 11.681756 73.2 12 73.2 
z
M 24 73.2 
C 24.318244 73.2 24.623496 73.07356 24.848528 72.848528 
C 25.07356 72.623496 25.2 72.318244 25.2 72 
C 25.2 71.681756 25.07356 71.376504 24.848528 71.151472 
C 24.623496 70.92644 24.318244 70.8 24 70.8 
C 23.681756 70.8 23.376504 70.92644 23.151472 71.151472 
C 22.92644 71.376504 22.8 71.681756 22.8 72 
C 22.8 72.318244 22.92644 72.623496 23.151472 72.848528 
C 23.376504 73.07356 23.681756 73.2 24 73.2 
z
M 36 73.2 
C 36.318244 73.2 36.623496 73.07356 36.848528 72.848528 
C 37.07356 72.623496 37.2 72.318244 37.2 72 
C 37.2 71.681756 37.07356 71.376504 36.848528 71.151472 
C 36.623496 70.92644 36.318244 70.8 36 70.8 
C 35.681756 70.8 35.376504 70.92644 35.151472 71.151472 
C 34.92644 71.376504 34.8 71.681756 34.8 72 
C 34.8 72.318244 34.92644 72.623496 35.151472 72.848528 
C 35.376504 73.07356 35.681756 73.2 36 73.2 
z
M 48 73.2 
C 48.318244 73.2 48.623496 73.07356 48.848528 72.848528 
C 49.07356 72.623496 49.2 72.318244 49.2 72 
C 49.2 71.681756 49.07356 71.376504 48.848528 71.151472 
C 48.623496 70.92644 48.318244 70.8 48 70.8 
C 47.681756 70.8 47.376504 70.92644 47.151472 71.151472 
C 46.92644 71.376504 46.8 71.681756 46.8 72 
C 46.8 72.318244 46.92644 72.623496 47.151472 72.848528 
C 47.376504 73.07356 47.681756 73.2 48 73.2 
z
M 60 73.2 
C 60.318244 73.2 60.623496 73.07356 60.848528 72.848528 
C 61.07356 72.623496 61.2 72.318244 61.2 72 
C 61.2 71.681756 61.07356 71.376504 60.848528 71.151472 
C 60.623496 70.92644 60.318244 70.8 60 70.8 
C 59.681756 70.8 59.376504 70.92644 59.151472 71.151472 
C 58.92644 71.376504 58.8 71.681756 58.8 72 
C 58.8 72.318244 58.92644 72.623496 59.151472 72.848528 
C 59.376504 73.07356 59.681756 73.2 60 73.2 
z
M 72 73.2 
C 72.318244 73.2 72.623496 73.07356 72.848528 72.848528 
C 73.07356 72.623496 73.2 72.318244 73.2 72 
C 73.2 71.681756 73.07356 71.376504 72.848528 71.151472 
C 72.623496 70.92644 72.318244 70.8 72 70.8 
C 71.681756 70.8 71.376504 70.92644 71.151472 71.151472 
C 70.92644 71.376504 70.8 71.681756 70.8 72 
C 70.8 72.318244 70.92644 72.623496 71.151472 72.848528 
C 71.376504 73.07356 71.681756 73.2 72 73.2 
z
M 6 61.2 
C 6.318244 61.2 6.623496 61.07356 6.848528 60.848528 
C 7.07356 60.623496 7.2 60.318244 7.2 60 
C 7.2 59.681756 7.07356 59.376504 6.848528 59.151472 
C 6.623496 58.92644 6.318244 58.8 6 58.8 
C 5.681756 58.8 5.376504 58.92644 5.151472 59.151472 
C 4.92644 59.376504 4.8 59.681756 4.8 60 
C 4.8 60.318244 4.92644 60.623496 5.151472 60.848528 
C 5.376504 61.07356 5.681756 61.2 6 61.2 
z
M 18 61.2 
C 18.318244 61.2 18.623496 61.07356 18.848528 60.848528 
C 19.07356 60.623496 19.2 60.318244 19.2 60 
C 19.2 59.681756 19.07356 59.376504 18.848528 59.151472 
C 18.623496 58.92644 18.318244 58.8 18 58.8 
C 17.681756 58.8 17.376504 58.92644 17.151472 59.151472 
C 16.92644 59.376504 16.8 59.681756 16.8 60 
C 16.8 60.318244 16.92644 60.623496 17.151472 60.848528 
C 17.376504 61.07356 17.681756 61.2 18 61.2 
z
M 30 61.2 
C 30.318244 61.2 30.623496 61.07356 30.848528 60.848528 
C 31.07356 60.623496 31.2 60.318244 31.2 60 
C 31.2 59.681756 31.07356 59.376504 30.848528 59.151472 
C 30.623496 58.92644 30.318244 58.8 30 58.8 
C 29.681756 58.8 29.376504 58.92644 29.151472 59.151472 
C 28.92644 59.376504 28.8 59.681756 28.8 60 
C 28.8 60.318244 28.92644 60.623496 29.151472 60.848528 
C 29.376504 61.07356 29.681756 61.2 30 61.2 
z
M 42 61.2 
C 42.318244 61.2 42.623496 61.07356 42.848528 60.848528 
C 43.07356 60.623496 43.2 60.318244 43.2 60 
C 43.2 59.681756 43.07356 59.376504 42.848528 59.151472 
C 42.623496 58.92644 42.318244 58.8 42 58.8 
C 41.681756 58.8 41.376504 58.92644 41.151472 59.151472 
C 40.92644 59.376504 40.8 59.681756 40.8 60 
C 40.8 60.318244 40.92644 60.623496 41.151472 60.848528 
C 41.376504 61.07356 41.681756 61.2 42 61.2 
z
M 54 61.2 
C 54.318244 61.2 54.623496 61.07356 54.848528 60.848528 
C 55.07356 60.623496 55.2 60.318244 55.2 60 
C 55.2 59.681756 55.07356 59.376504 54.848528 59.151472 
C 54.623496 58.92644 54.318244 58.8 54 58.8 
C 53.681756 58.8 53.376504 58.92644 53.151472 59.151472 
C 52.92644 59.376504 52.8 59.681756 52.8 60 
C 52.8 60.318244 52.92644 60.623496 53.151472 60.848528 
C 53.376504 61.07356 53.681756 61.2 54 61.2 
z
M 66 61.2 
C 66.318244 61.2 66.623496 61.07356 66.848528 60.848528 
C 67.07356 60.623496 67.2 60.318244 67.2 60 
C 67.2 59.681756 67.07356 59.376504 66.848528 59.151472 
C 66.623496 58.92644 66.318244 58.8 66 58.8 
C 65.681756 58.8 65.376504 58.92644 65.151472 59.151472 
C 64.92644 59.376504 64.8 59.681756 64.8 60 
C 64.8 60.318244 64.92644 60.623496 65.151472 60.848528 
C 65.376504 61.07356 65.681756 61.2 66 61.2 
z
M 0 49.2 
C 0.318244 49.2 0.623496 49.07356 0.848528 48.848528 
C 1.07356 48.623496 1.2 48.318244 1.2 48 
C 1.2 47.681756 1.07356 47.376504 0.848528 47.151472 
C 0.623496 46.92644 0.318244 46.8 0 46.8 
C -0.318244 46.8 -0.623496 46.92644 -0.848528 47.151472 
C -1.07356 47.376504 -1.2 47.681756 -1.2 48 
C -1.2 48.318244 -1.07356 48.623496 -0.848528 48.848528 
C -0.623496 49.07356 -0.318244 49.2 0 49.2 
z
M 12 49.2 
C 12.318244 49.2 12.623496 49.07356 12.848528 48.848528 
C 13.07356 48.623496 13.2 48.318244 13.2 48 
C 13.2 47.681756 13.07356 47.376504 12.848528 47.151472 
C 12.623496 46.92644 12.318244 46.8 12 46.8 
C 11.681756 46.8 11.376504 46.92644 11.151472 47.151472 
C 10.92644 47.376504 10.8 47.681756 10.8 48 
C 10.8 48.318244 10.92644 48.623496 11.151472 48.848528 
C 11.376504 49.07356 11.681756 49.2 12 49.2 
z
M 24 49.2 
C 24.318244 49.2 24.623496 49.07356 24.848528 48.848528 
C 25.07356 48.623496 25.2 48.318244 25.2 48 
C 25.2 47.681756 25.07356 47.376504 24.848528 47.151472 
C 24.623496 46.92644 24.318244 46.8 24 46.8 
C 23.681756 46.8 23.376504 46.92644 23.151472 47.151472 
C 22.92644 47.376504 22.8 47.681756 22.8 48 
C 22.8 48.318244 22.92644 48.623496 23.151472 48.848528 
C 23.376504 49.07356 23.681756 49.2 24 49.2 
z
M 36 49.2 
C 36.318244 49.2 36.623496 49.07356 36.848528 48.848528 
C 37.07356 48.623496 37.2 48.318244 37.2 48 
C 37.2 47.681756 37.07356 47.376504 36.848528 47.151472 
C 36.623496 46.92644 36.318244 46.8 36 46.8 
C 35.681756 46.8 35.376504 46.92644 35.151472 47.151472 
C 34.92644 47.376504 34.8 47.681756 34.8 48 
C 34.8 48.318244 34.92644 48.623496 35.151472 48.848528 
C 35.376504 49.07356 35.681756 49.2 36 49.2 
z
M 48 49.2 
C 48.318244 49.2 48.623496 49.07356 48.848528 48.848528 
C 49.07356 48.623496 49.2 48.318244 49.2 48 
C 49.2 47.681756 49.07356 47.376504 48.848528 47.151472 
C 48.623496 46.92644 48.318244 46.8 48 46.8 
C 47.681756 46.8 47.376504 46.92644 47.151472 47.151472 
C 46.92644 47.376504 46.8 47.681756 46.8 48 
C 46.8 48.318244 46.92644 48.623496 47.151472 48.848528 
C 47.376504 49.07356 47.681756 49.2 48 49.2 
z
M 60 49.2 
C 60.318244 49.2 60.623496 49.07356 60.848528 48.848528 
C 61.07356 48.623496 61.2 48.318244 61.2 48 
C 61.2 47.681756 61.07356 47.376504 60.848528 47.151472 
C 60.623496 46.92644 60.318244 46.8 60 46.8 
C 59.681756 46.8 59.376504 46.92644 59.151472 47.151472 
C 58.92644 47.376504 58.8 47.681756 58.8 48 
C 58.8 48.318244 58.92644 48.623496 59.151472 48.848528 
C 59.376504 49.07356 59.681756 49.2 60 49.2 
z
M 72 49.2 
C 72.318244 49.2 72.623496 49.07356 72.848528 48.848528 
C 73.07356 48.623496 73.2 48.318244 73.2 48 
C 73.2 47.681756 73.07356 47.376504 72.848528 47.151472 
C 72.623496 46.92644 72.318244 46.8 72 46.8 
C 71.681756 46.8 71.376504 46.92644 71.151472 47.151472 
C 70.92644 47.376504 70.8 47.681756 70.8 48 
C 70.8 48.318244 70.92644 48.623496 71.151472 48.848528 
C 71.376504 49.07356 71.681756 49.2 72 49.2 
z
M 6 37.2 
C 6.318244 37.2 6.623496 37.07356 6.848528 36.848528 
C 7.07356 36.623496 7.2 36.318244 7.2 36 
C 7.2 35.681756 7.07356 35.376504 6.848528 35.151472 
C 6.623496 34.92644 6.318244 34.8 6 34.8 
C 5.681756 34.8 5.376504 34.92644 5.151472 35.151472 
C 4.92644 35.376504 4.8 35.681756 4.8 36 
C 4.8 36.318244 4.92644 36.623496 5.151472 36.848528 
C 5.376504 37.07356 5.681756 37.2 6 37.2 
z
M 18 37.2 
C 18.318244 37.2 18.623496 37.07356 18.848528 36.848528 
C 19.07356 36.623496 19.2 36.318244 19.2 36 
C 19.2 35.681756 19.07356 35.376504 18.848528 35.151472 
C 18.623496 34.92644 18.318244 34.8 18 34.8 
C 17.681756 34.8 17.376504 34.92644 17.151472 35.151472 
C 16.92644 35.376504 16.8 35.681756 16.8 36 
C 16.8 36.318244 16.92644 36.623496 17.151472 36.848528 
C 17.376504 37.07356 17.681756 37.2 18 37.2 
z
M 30 37.2 
C 30.318244 37.2 30.623496 37.07356 30.848528 36.848528 
C 31.07356 36.623496 31.2 36.318244 31.2 36 
C 31.2 35.681756 31.07356 35.376504 30.848528 35.151472 
C 30.623496 34.92644 30.318244 34.8 30 34.8 
C 29.681756 34.8 29.376504 34.92644 29.151472 35.151472 
C 28.92644 35.376504 28.8 35.681756 28.8 36 
C 28.8 36.318244 28.92644 36.623496 29.151472 36.848528 
C 29.376504 37.07356 29.681756 37.2 30 37.2 
z
M 42 37.2 
C 42.318244 37.2 42.623496 37.07356 42.848528 36.848528 
C 43.07356 36.623496 43.2 36.318244 43.2 36 
C 43.2 35.681756 43.07356 35.376504 42.848528 35.151472 
C 42.623496 34.92644 42.318244 34.8 42 34.8 
C 41.681756 34.8 41.376504 34.92644 41.151472 35.151472 
C 40.92644 35.376504 40.8 35.681756 40.8 36 
C 40.8 36.318244 40.92644 36.623496 41.151472 36.848528 
C 41.376504 37.07356 41.681756 37.2 42 37.2 
z
M 54 37.2 
C 54.318244 37.2 54.623496 37.07356 54.848528 36.848528 
C 55.07356 36.623496 55.2 36.318244 55.2 36 
C 55.2 35.681756 55.07356 35.376504 54.848528 35.151472 
C 54.623496 34.92644 54.318244 34.8 54 34.8 
C 53.681756 34.8 53.376504 34.92644 53.151472 35.151472 
C 52.92644 35.376504 52.8 35.681756 52.8 36 
C 52.8 36.318244 52.92644 36.623496 53.151472 36.848528 
C 53.376504 37.07356 53.681756 37.2 54 37.2 
z
M 66 37.2 
C 66.318244 37.2 66.623496 37.07356 66.848528 36.848528 
C 67.07356 36.623496 67.2 36.318244 67.2 36 
C 67.2 35.681756 67.07356 35.376504 66.848528 35.151472 
C 66.623496 34.92644 66.318244 34.8 66 34.8 
C 65.681756 34.8 65.376504 34.92644 65.151472 35.151472 
C 64.92644 35.376504 64.8 35.681756 64.8 36 
C 64.8 36.318244 64.92644 36.623496 65.151472 36.848528 
C 65.376504 37.07356 65.681756 37.2 66 37.2 
z
M 0 25.2 
C 0.318244 25.2 0.623496 25.07356 0.848528 24.848528 
C 1.07356 24.623496 1.2 24.318244 1.2 24 
C 1.2 23.681756 1.07356 23.376504 0.848528 23.151472 
C 0.623496 22.92644 0.318244 22.8 0 22.8 
C -0.318244 22.8 -0.623496 22.92644 -0.848528 23.151472 
C -1.07356 23.376504 -1.2 23.681756 -1.2 24 
C -1.2 24.318244 -1.07356 24.623496 -0.848528 24.848528 
C -0.623496 25.07356 -0.318244 25.2 0 25.2 
z
M 12 25.2 
C 12.318244 25.2 12.623496 25.07356 12.848528 24.848528 
C 13.07356 24.623496 13.2 24.318244 13.2 24 
C 13.2 23.681756 13.07356 23.376504 12.848528 23.151472 
C 12.623496 22.92644 12.318244 22.8 12 22.8 
C 11.681756 22.8 11.376504 22.92644 11.151472 23.151472 
C 10.92644 23.376504 10.8 23.681756 10.8 24 
C 10.8 24.318244 10.92644 24.623496 11.151472 24.848528 
C 11.376504 25.07356 11.681756 25.2 12 25.2 
z
M 24 25.2 
C 24.318244 25.2 24.623496 25.07356 24.848528 24.848528 
C 25.07356 24.623496 25.2 24.318244 25.2 24 
C 25.2 23.681756 25.07356 23.376504 24.848528 23.151472 
C 24.623496 22.92644 24.318244 22.8 24 22.8 
C 23.681756 22.8 23.376504 22.92644 23.151472 23.151472 
C 22.92644 23.376504 22.8 23.681756 22.8 24 
C 22.8 24.318244 22.92644 24.623496 23.151472 24.848528 
C 23.376504 25.07356 23.681756 25.2 24 25.2 
z
M 36 25.2 
C 36.318244 25.2 36.623496 25.07356 36.848528 24.848528 
C 37.07356 24.623496 37.2 24.318244 37.2 24 
C 37.2 23.681756 37.07356 23.376504 36.848528 23.151472 
C 36.623496 22.92644 36.318244 22.8 36 22.8 
C 35.681756 22.8 35.376504 22.92644 35.151472 23.151472 
C 34.92644 23.376504 34.8 23.681756 34.8 24 
C 34.8 24.318244 34.92644 24.623496 35.151472 24.848528 
C 35.376504 25.07356 35.681756 25.2 36 25.2 
z
M 48 25.2 
C 48.318244 25.2 48.623496 25.07356 48.848528 24.848528 
C 49.07356 24.623496 49.2 24.318244 49.2 24 
C 49.2 23.681756 49.07356 23.376504 48.848528 23.151472 
C 48.623496 22.92644 48.318244 22.8 48 22.8 
C 47.681756 22.8 47.376504 22.92644 47.151472 23.151472 
C 46.92644 23.376504 46.8 23.681756 46.8 24 
C 46.8 24.318244 46.92644 24.623496 47.151472 24.848528 
C 47.376504 25.07356 47.681756 25.2 48 25.2 
z
M 60 25.2 
C 60.318244 25.2 60.623496 25.07356 60.848528 24.848528 
C 61.07356 24.623496 61.2 24.318244 61.2 24 
C 61.2 23.681756 61.07356 23.376504 60.848528 23.151472 
C 60.623496 22.92644 60.318244 22.8 60 22.8 
C 59.681756 22.8 59.376504 22.92644 59.151472 23.151472 
C 58.92644 23.376504 58.8 23.681756 58.8 24 
C 58.8 24.318244 58.92644 24.623496 59.151472 24.848528 
C 59.376504 25.07356 59.681756 25.2 60 25.2 
z
M 72 25.2 
C 72.318244 25.2 72.623496 25.07356 72.848528 24.848528 
C 73.07356 24.623496 73.2 24.318244 73.2 24 
C 73.2 23.681756 73.07356 23.376504 72.848528 23.151472 
C 72.623496 22.92644 72.318244 22.8 72 22.8 
C 71.681756 22.8 71.376504 22.92644 71.151472 23.151472 
C 70.92644 23.376504 70.8 23.681756 70.8 24 
C 70.8 24.318244 70.92644 24.623496 71.151472 24.848528 
C 71.376504 25.07356 71.681756 25.2 72 25.2 
z
M 6 13.2 
C 6.318244 13.2 6.623496 13.07356 6.848528 12.848528 
C 7.07356 12.623496 7.2 12.318244 7.2 12 
C 7.2 11.681756 7.07356 11.376504 6.848528 11.151472 
C 6.623496 10.92644 6.318244 10.8 6 10.8 
C 5.681756 10.8 5.376504 10.92644 5.151472 11.151472 
C 4.92644 11.376504 4.8 11.681756 4.8 12 
C 4.8 12.318244 4.92644 12.623496 5.151472 12.848528 
C 5.376504 13.07356 5.681756 13.2 6 13.2 
z
M 18 13.2 
C 18.318244 13.2 18.623496 13.07356 18.848528 12.848528 
C 19.07356 12.623496 19.2 12.318244 19.2 12 
C 19.2 11.681756 19.07356 11.376504 18.848528 11.151472 
C 18.623496 10.92644 18.318244 10.8 18 10.8 
C 17.681756 10.8 17.376504 10.92644 17.151472 11.151472 
C 16.92644 11.376504 16.8 11.681756 16.8 12 
C 16.8 12.318244 16.92644 12.623496 17.151472 12.848528 
C 17.376504 13.07356 17.681756 13.2 18 13.2 
z
M 30 13.2 
C 30.318244 13.2 30.623496 13.07356 30.848528 12.848528 
C 31.07356 12.623496 31.2 12.318244 31.2 12 
C 31.2 11.681756 31.07356 11.376504 30.848528 11.151472 
C 30.623496 10.92644 30.318244 10.8 30 10.8 
C 29.681756 10.8 29.376504 10.92644 29.151472 11.151472 
C 28.92644 11.376504 28.8 11.681756 28.8 12 
C 28.8 12.318244 28.92644 12.623496 29.151472 12.848528 
C 29.376504 13.07356 29.681756 13.2 30 13.2 
z
M 42 13.2 
C 42.318244 13.2 42.623496 13.07356 42.848528 12.848528 
C 43.07356 12.623496 43.2 12.318244 43.2 12 
C 43.2 11.681756 43.07356 11.376504 42.848528 11.151472 
C 42.623496 10.92644 42.318244 10.8 42 10.8 
C 41.681756 10.8 41.376504 10.92644 41.151472 11.151472 
C 40.92644 11.376504 40.8 11.681756 40.8 12 
C 40.8 12.318244 40.92644 12.623496 41.151472 12.848528 
C 41.376504 13.07356 41.681756 13.2 42 13.2 
z
M 54 13.2 
C 54.318244 13.2 54.623496 13.07356 54.848528 12.848528 
C 55.07356 12.623496 55.2 12.318244 55.2 12 
C 55.2 11.681756 55.07356 11.376504 54.848528 11.151472 
C 54.623496 10.92644 54.318244 10.8 54 10.8 
C 53.681756 10.8 53.376504 10.92644 53.151472 11.151472 
C 52.92644 11.376504 52.8 11.681756 52.8 12 
C 52.8 12.318244 52.92644 12.623496 53.151472 12.848528 
C 53.376504 13.07356 53.681756 13.2 54 13.2 
z
M 66 13.2 
C 66.318244 13.2 66.623496 13.07356 66.848528 12.848528 
C 67.07356 12.623496 67.2 12.318244 67.2 12 
C 67.2 11.681756 67.07356 11.376504 66.848528 11.151472 
C 66.623496 10.92644 66.318244 10.8 66 10.8 
C 65.681756 10.8 65.376504 10.92644 65.151472 11.151472 
C 64.92644 11.376504 64.8 11.681756 64.8 12 
C 64.8 12.318244 64.92644 12.623496 65.151472 12.848528 
C 65.376504 13.07356 65.681756 13.2 66 13.2 
z
M 0 1.2 
C 0.318244 1.2 0.623496 1.07356 0.848528 0.848528 
C 1.07356 0.623496 1.2 0.318244 1.2 0 
C 1.2 -0.318244 1.07356 -0.623496 0.848528 -0.848528 
C 0.623496 -1.07356 0.318244 -1.2 0 -1.2 
C -0.318244 -1.2 -0.623496 -1.07356 -0.848528 -0.848528 
C -1.07356 -0.623496 -1.2 -0.318244 -1.2 0 
C -1.2 0.318244 -1.07356 0.623496 -0.848528 0.848528 
C -0.623496 1.07356 -0.318244 1.2 0 1.2 
z
M 12 1.2 
C 12.318244 1.2 12.623496 1.07356 12.848528 0.848528 
C 13.07356 0.623496 13.2 0.318244 13.2 0 
C 13.2 -0.318244 13.07356 -0.623496 12.848528 -0.848528 
C 12.623496 -1.07356 12.318244 -1.2 12 -1.2 
C 11.681756 -1.2 11.376504 -1.07356 11.151472 -0.848528 
C 10.92644 -0.623496 10.8 -0.318244 10.8 0 
C 10.8 0.318244 10.92644 0.623496 11.151472 0.848528 
C 11.376504 1.07356 11.681756 1.2 12 1.2 
z
M 24 1.2 
C 24.318244 1.2 24.623496 1.07356 24.848528 0.848528 
C 25.07356 0.623496 25.2 0.318244 25.2 0 
C 25.2 -0.318244 25.07356 -0.623496 24.848528 -0.848528 
C 24.623496 -1.07356 24.318244 -1.2 24 -1.2 
C 23.681756 -1.2 23.376504 -1.07356 23.151472 -0.848528 
C 22.92644 -0.623496 22.8 -0.318244 22.8 0 
C 22.8 0.318244 22.92644 0.623496 23.151472 0.848528 
C 23.376504 1.07356 23.681756 1.2 24 1.2 
z
M 36 1.2 
C 36.318244 1.2 36.623496 1.07356 36.848528 0.848528 
C 37.07356 0.623496 37.2 0.318244 37.2 0 
C 37.2 -0.318244 37.07356 -0.623496 36.848528 -0.848528 
C 36.623496 -1.07356 36.318244 -1.2 36 -1.2 
C 35.681756 -1.2 35.376504 -1.07356 35.151472 -0.848528 
C 34.92644 -0.623496 34.8 -0.318244 34.8 0 
C 34.8 0.318244 34.92644 0.623496 35.151472 0.848528 
C 35.376504 1.07356 35.681756 1.2 36 1.2 
z
M 48 1.2 
C 48.318244 1.2 48.623496 1.07356 48.848528 0.848528 
C 49.07356 0.623496 49.2 0.318244 49.2 0 
C 49.2 -0.318244 49.07356 -0.623496 48.848528 -0.848528 
C 48.623496 -1.07356 48.318244 -1.2 48 -1.2 
C 47.681756 -1.2 47.376504 -1.07356 47.151472 -0.848528 
C 46.92644 -0.623496 46.8 -0.318244 46.8 0 
C 46.8 0.318244 46.92644 0.623496 47.151472 0.848528 
C 47.376504 1.07356 47.681756 1.2 48 1.2 
z
M 60 1.2 
C 60.318244 1.2 60.623496 1.07356 60.848528 0.848528 
C 61.07356 0.623496 61.2 0.318244 61.2 0 
C 61.2 -0.318244 61.07356 -0.623496 60.848528 -0.848528 
C 60.623496 -1.07356 60.318244 -1.2 60 -1.2 
C 59.681756 -1.2 59.376504 -1.07356 59.151472 -0.848528 
C 58.92644 -0.623496 58.8 -0.318244 58.8 0 
C 58.8 0.318244 58.92644 0.623496 59.151472 0.848528 
C 59.376504 1.07356 59.681756 1.2 60 1.2 
z
M 72 1.2 
C 72.318244 1.2 72.623496 1.07356 72.848528 0.848528 
C 73.07356 0.623496 73.2 0.318244 73.2 0 
C 73.2 -0.318244 73.07356 -0.623496 72.848528 -0.848528 
C 72.623496 -1.07356 72.318244 -1.2 72 -1.2 
C 71.681756 -1.2 71.376504 -1.07356 71.151472 -0.848528 
C 70.92644 -0.623496 70.8 -0.318244 70.8 0 
C 70.8 0.318244 70.92644 0.623496 71.151472 0.848528 
C 71.376504 1.07356 71.681756 1.2 72 1.2 
z
" style="fill:#000000;stroke:#000000;stroke-linecap:butt;stroke-linejoin:miter;stroke-opacity:0.8;stroke-width:1.0;"/>
  </pattern>
  <pattern height="72" id="hf068ee2aa6" patternUnits="userSpaceOnUse" width="72" x="0" y="0">
   <rect fill="#2ca02c" height="73" width="73" x="0" y="0"/>
   <path d="M -36 36 
L 36 -36 
M -24 48 
L 48 -24 
M -12 60 
L 60 -12 
M 0 72 
L 72 0 
M 12 84 
L 84 12 
M 24 96 
L 96 24 
M 36 108 
L 108 36 
M -36 36 
L 36 108 
M -24 24 
L 48 96 
M -12 12 
L 60 84 
M 0 0 
L 72 72 
M 12 -12 
L 84 60 
M 24 -24 
L 96 48 
M 36 -36 
L 108 36 
" style="fill:#000000;stroke:#000000;stroke-linecap:butt;stroke-linejoin:miter;stroke-opacity:0.8;stroke-width:1.0;"/>
  </pattern>
  <pattern height="72" id="h702cb078ce" patternUnits="userSpaceOnUse" width="72" x="0" y="0">
   <rect fill="#d62728" height="73" width="73" x="0" y="0"/>
   <path d="M -36 36 
L 36 108 
M -24 24 
L 48 96 
M -12 12 
L 60 84 
M 0 0 
L 72 72 
M 12 -12 
L 84 60 
M 24 -24 
L 96 48 
M 36 -36 
L 108 36 
" style="fill:#000000;stroke:#000000;stroke-linecap:butt;stroke-linejoin:miter;stroke-opacity:0.8;stroke-width:1.0;"/>
  </pattern>
 </defs>
</svg>
