<svg width="4089" height="975" xmlns="http://www.w3.org/2000/svg" xmlns:xlink="http://www.w3.org/1999/xlink" overflow="hidden"><defs><clipPath id="clip0"><rect x="88" y="1337" width="4089" height="975"/></clipPath></defs><g clip-path="url(#clip0)" transform="translate(-88 -1337)"><path d="M0.0226008-6.87496 855.527-4.06258 855.482 9.68735-0.0226008 6.87496ZM848.698-17.8351 889.88 2.92539 848.562 23.4147Z" transform="matrix(1 0 0 -1 577 2146.93)"/><path d="M6.875-3.23796e-06 6.87534 731.889-6.87466 731.889-6.875 3.23796e-06ZM20.6253 725.014 0.000360892 766.264-20.6247 725.014Z" transform="matrix(1 0 0 -1 577 2147.26)"/><text font-family="Calibri,Calibri_MSFontService,sans-serif" font-weight="700" font-size="83" transform="matrix(1 0 0 1 815.813 2240)">Write Throughput<tspan font-size="83" x="-677.959" y="-766">Read</tspan><tspan font-size="83" x="-677.959" y="-667">Throughput</tspan></text><path d="M577 2032 960.742 2142.52" stroke="#4472C4" stroke-width="13.75" stroke-miterlimit="8" fill="none" fill-rule="evenodd"/><path d="M908 1826 1068.08 2142.26" stroke="#ED7D31" stroke-width="13.75" stroke-miterlimit="8" fill="none" fill-rule="evenodd"/><path d="M586 1641 912.944 1827.39" stroke="#ED7D31" stroke-width="13.75" stroke-miterlimit="8" fill="none" fill-rule="evenodd"/><path d="M0.0226008-6.87496 855.527-4.06258 855.482 9.68735-0.0226008 6.87496ZM848.698-17.8351 889.88 2.92539 848.562 23.4147Z" transform="matrix(1 0 0 -1 1902 2146.93)"/><path d="M6.875-3.23796e-06 6.87534 731.889-6.87466 731.889-6.875 3.23796e-06ZM20.6253 725.014 0.000360892 766.264-20.6247 725.014Z" transform="matrix(1 0 0 -1 1902 2147.26)"/><text font-family="Calibri,Calibri_MSFontService,sans-serif" font-weight="700" font-size="83" transform="matrix(1 0 0 1 2141.01 2240)">Write Throughput<tspan font-size="83" x="-677.959" y="-766">Read</tspan><tspan font-size="83" x="-677.959" y="-667">Throughput</tspan></text><path d="M1851 1830 2011.08 2146.26" stroke="#ED7D31" stroke-width="13.75" stroke-miterlimit="8" fill="none" fill-rule="evenodd"/><path d="M1529 1644 1855.94 1830.39" stroke="#ED7D31" stroke-width="13.75" stroke-miterlimit="8" fill="none" fill-rule="evenodd"/><path d="M2225 1940 2385.08 2256.26" stroke="#ED7D31" stroke-width="13.75" stroke-miterlimit="8" fill="none" fill-rule="evenodd"/><path d="M1903 1755 2229.94 1941.39" stroke="#ED7D31" stroke-width="13.75" stroke-miterlimit="8" fill="none" fill-rule="evenodd"/><path d="M1902 2028 2285.74 2138.53" stroke="#4472C4" stroke-width="13.75" stroke-miterlimit="8" fill="none" fill-rule="evenodd"/><path d="M1535 1648 1918.74 1758.53" stroke="#4472C4" stroke-width="13.75" stroke-miterlimit="8" stroke-dasharray="13.75 13.75" fill="none" fill-rule="evenodd"/><path d="M1998 2137 2381.74 2247.53" stroke="#4472C4" stroke-width="13.75" stroke-miterlimit="8" stroke-dasharray="13.75 13.75" fill="none" fill-rule="evenodd"/><path d="M0.0226008-6.87496 855.527-4.06258 855.482 9.68735-0.0226008 6.87496ZM848.698-17.8351 889.88 2.92539 848.562 23.4147Z" transform="matrix(1 0 0 -1 3244 2145.93)"/><path d="M6.875-3.23796e-06 6.87534 731.889-6.87466 731.889-6.875 3.23796e-06ZM20.6253 725.014 0.000360892 766.264-20.6247 725.014Z" transform="matrix(1 0 0 -1 3244 2146.26)"/><text font-family="Calibri,Calibri_MSFontService,sans-serif" font-weight="700" font-size="83" transform="matrix(1 0 0 1 3483.43 2240)">Write Throughput<tspan font-size="83" x="-677.96" y="-767">Read</tspan><tspan font-size="83" x="-677.96" y="-668">Throughput</tspan></text><path d="M3244 2031 3627.74 2141.52" stroke="#4472C4" stroke-width="13.75" stroke-miterlimit="8" fill="none" fill-rule="evenodd"/><path d="M3575 1825 3735.08 2141.26" stroke="#ED7D31" stroke-width="13.75" stroke-miterlimit="8" fill="none" fill-rule="evenodd"/><path d="M3253 1640 3579.94 1826.39" stroke="#ED7D31" stroke-width="13.75" stroke-miterlimit="8" fill="none" fill-rule="evenodd"/><path d="M3246 1934 3354.12 2151.08" stroke="#C00000" stroke-width="13.75" stroke-miterlimit="8" fill="none" fill-rule="evenodd"/><path d="M2227 1825 2387.08 2141.26" stroke="#ED7D31" stroke-width="13.75" stroke-miterlimit="8" fill="none" fill-rule="evenodd"/><path d="M1906 1640 2232.94 1826.39" stroke="#ED7D31" stroke-width="13.75" stroke-miterlimit="8" fill="none" fill-rule="evenodd"/><path d="M1903 1936 2011.12 2153.08" stroke="#C00000" stroke-width="13.75" stroke-miterlimit="8" fill="none" fill-rule="evenodd"/></g></svg>