<svg width="2522" height="1390" xmlns="http://www.w3.org/2000/svg" xmlns:xlink="http://www.w3.org/1999/xlink" overflow="hidden"><defs><clipPath id="clip0"><rect x="817" y="455" width="2522" height="1390"/></clipPath><clipPath id="clip1"><rect x="2622" y="1206" width="199" height="186"/></clipPath><clipPath id="clip2"><rect x="2622" y="1206" width="199" height="186"/></clipPath><clipPath id="clip3"><rect x="2622" y="1206" width="199" height="186"/></clipPath><clipPath id="clip4"><rect x="2681" y="1262" width="80" height="74"/></clipPath><clipPath id="clip5"><rect x="2630" y="1632" width="199" height="199"/></clipPath><clipPath id="clip6"><rect x="2630" y="1632" width="199" height="199"/></clipPath><clipPath id="clip7"><rect x="2630" y="1632" width="199" height="199"/></clipPath><clipPath id="clip8"><rect x="2689" y="1691" width="80" height="80"/></clipPath><clipPath id="clip9"><rect x="2630" y="1420" width="199" height="199"/></clipPath><clipPath id="clip10"><rect x="2630" y="1420" width="199" height="199"/></clipPath><clipPath id="clip11"><rect x="2630" y="1420" width="199" height="199"/></clipPath><clipPath id="clip12"><rect x="2689" y="1479" width="80" height="80"/></clipPath><clipPath id="clip13"><rect x="928" y="1094" width="199" height="199"/></clipPath><clipPath id="clip14"><rect x="928" y="1094" width="199" height="199"/></clipPath><clipPath id="clip15"><rect x="928" y="1094" width="199" height="199"/></clipPath><clipPath id="clip16"><rect x="987" y="1153" width="80" height="80"/></clipPath><clipPath id="clip17"><rect x="2630" y="982" width="199" height="199"/></clipPath><clipPath id="clip18"><rect x="2630" y="982" width="199" height="199"/></clipPath><clipPath id="clip19"><rect x="2630" y="982" width="199" height="199"/></clipPath><clipPath id="clip20"><rect x="2689" y="1041" width="80" height="80"/></clipPath><clipPath id="clip21"><rect x="928" y="1328" width="199" height="199"/></clipPath><clipPath id="clip22"><rect x="928" y="1328" width="199" height="199"/></clipPath><clipPath id="clip23"><rect x="928" y="1328" width="199" height="199"/></clipPath><clipPath id="clip24"><rect x="987" y="1388" width="80" height="80"/></clipPath><clipPath id="clip25"><rect x="928" y="1558" width="199" height="199"/></clipPath><clipPath id="clip26"><rect x="928" y="1558" width="199" height="199"/></clipPath><clipPath id="clip27"><rect x="928" y="1558" width="199" height="199"/></clipPath><clipPath id="clip28"><rect x="987" y="1618" width="80" height="80"/></clipPath></defs><g clip-path="url(#clip0)" transform="translate(-817 -455)"><rect x="1824.5" y="554.5" width="499" height="256" stroke="#2F528F" stroke-width="4.58333" stroke-miterlimit="8" fill="#B4C7E7"/><text font-family="SimHei,SimHei_MSFontService,sans-serif" font-weight="400" font-size="73" transform="matrix(1 0 0 1 1963.72 714)">控制器</text><path d="M2509.5 1237.17C2509.5 1221.89 2521.89 1209.5 2537.17 1209.5L3218.83 1209.5C3234.11 1209.5 3246.5 1221.89 3246.5 1237.17L3246.5 1347.83C3246.5 1363.11 3234.11 1375.5 3218.83 1375.5L2537.17 1375.5C2521.89 1375.5 2509.5 1363.11 2509.5 1347.83Z" stroke="#2F528F" stroke-width="4.58333" stroke-miterlimit="8" fill="#EDEDED" fill-rule="evenodd"/><text font-family="Calibri,Calibri_MSFontService,sans-serif" font-weight="400" font-size="55" transform="matrix(1 0 0 1 2562.57 1310)">(<tspan font-size="55" x="16.6145" y="0">80,</tspan><tspan fill="#EDEDED" font-size="55" x="86.5105" y="0">aaaaaa</tspan><tspan font-size="55" x="244.636" y="0">, </tspan><tspan font-size="55" x="270.99" y="0">P99 &lt; 2ms), P=2         </tspan></text><path d="M2509.5 1457.33C2509.5 1441.96 2521.96 1429.5 2537.33 1429.5L3218.67 1429.5C3234.04 1429.5 3246.5 1441.96 3246.5 1457.33L3246.5 1568.67C3246.5 1584.04 3234.04 1596.5 3218.67 1596.5L2537.33 1596.5C2521.96 1596.5 2509.5 1584.04 2509.5 1568.67Z" stroke="#2F528F" stroke-width="4.58333" stroke-miterlimit="8" fill="#EDEDED" fill-rule="evenodd"/><text font-family="Calibri,Calibri_MSFontService,sans-serif" font-weight="400" font-size="55" transform="matrix(1 0 0 1 2562.57 1531)">(48<tspan font-size="55" x="72.7605" y="0">,</tspan><tspan fill="#EDEDED" font-size="55" x="86.5105" y="0">aaaaaa</tspan><tspan font-size="55" x="244.636" y="0">, </tspan><tspan font-size="55" x="270.99" y="0">P90 &lt; 2ms), P=1         </tspan></text><g clip-path="url(#clip1)"><g clip-path="url(#clip2)"><g clip-path="url(#clip3)"><g clip-path="url(#clip4)"><path d="M55.2001 64.4001 91.8161 64.4001 92.0001 128.8 92.0001 128.8" stroke="#FF0000" stroke-width="10.2222" stroke-linecap="square" stroke-linejoin="round" fill="none" transform="matrix(1.07609 0 0 1 2622 1207)"/></g><path d="M55.2001 128.8 128.8 128.8 148.642 128.8" stroke="#000000" stroke-width="5.11112" stroke-linecap="round" stroke-linejoin="round" fill="none" transform="matrix(1.07609 0 0 1 2622 1207)"/><path d="M138.419 123.689 148.642 128.8 138.419 133.911" stroke="#000000" stroke-width="5.11112" stroke-linecap="round" stroke-linejoin="round" fill="none" transform="matrix(1.07609 0 0 1 2622 1207)"/><path d="M55.2001 128.8 55.2001 55.2001 55.2001 35.3589" stroke="#000000" stroke-width="5.11112" stroke-linecap="round" stroke-linejoin="round" fill="none" transform="matrix(1.07609 0 0 1 2622 1207)"/><path d="M50.089 45.5811 55.2001 35.3589 60.3112 45.5811" stroke="#000000" stroke-width="5.11112" stroke-linecap="round" stroke-linejoin="round" fill="none" transform="matrix(1.07609 0 0 1 2622 1207)"/></g></g></g><path d="M2509.5 1678.33C2509.5 1662.96 2521.96 1650.5 2537.33 1650.5L3218.67 1650.5C3234.04 1650.5 3246.5 1662.96 3246.5 1678.33L3246.5 1789.67C3246.5 1805.04 3234.04 1817.5 3218.67 1817.5L2537.33 1817.5C2521.96 1817.5 2509.5 1805.04 2509.5 1789.67Z" stroke="#2F528F" stroke-width="4.58333" stroke-miterlimit="8" fill="#EDEDED" fill-rule="evenodd"/><text font-family="Calibri,Calibri_MSFontService,sans-serif" font-weight="400" font-size="55" transform="matrix(1 0 0 1 2562.57 1752)">(64<tspan font-size="55" x="72.7605" y="0">,</tspan><tspan fill="#EDEDED" font-size="55" x="86.5105" y="0">aaaaaa</tspan><tspan font-size="55" x="244.636" y="0">, </tspan><tspan font-size="55" x="270.99" y="0">P99 &lt; 2ms), P=3         </tspan></text><path d="M2509.5 1019.17C2509.5 1003.89 2521.89 991.5 2537.17 991.5L3218.83 991.5C3234.11 991.5 3246.5 1003.89 3246.5 1019.17L3246.5 1129.83C3246.5 1145.11 3234.11 1157.5 3218.83 1157.5L2537.17 1157.5C2521.89 1157.5 2509.5 1145.11 2509.5 1129.83Z" stroke="#2F528F" stroke-width="4.58333" stroke-miterlimit="8" fill="#EDEDED" fill-rule="evenodd"/><text font-family="Calibri,Calibri_MSFontService,sans-serif" font-weight="400" font-size="55" transform="matrix(1 0 0 1 2562.57 1092)">(16<tspan font-size="55" x="72.7605" y="0">,</tspan><tspan fill="#EDEDED" font-size="55" x="86.5105" y="0">aaaaaa</tspan><tspan font-size="55" x="244.636" y="0">, </tspan><tspan font-size="55" x="270.99" y="0">P95 &lt; 2ms), P=1         </tspan></text><path d="M832.5 1125.33C832.5 1109.96 844.962 1097.5 860.334 1097.5L1409.67 1097.5C1425.04 1097.5 1437.5 1109.96 1437.5 1125.33L1437.5 1236.67C1437.5 1252.04 1425.04 1264.5 1409.67 1264.5L860.334 1264.5C844.962 1264.5 832.5 1252.04 832.5 1236.67Z" stroke="#2F528F" stroke-width="4.58333" stroke-miterlimit="8" fill="#E2F0D9" fill-rule="evenodd"/><text font-family="Calibri,Calibri_MSFontService,sans-serif" font-weight="400" font-size="55" transform="matrix(1 0 0 1 874.667 1198)">(40<tspan font-size="55" x="72.7604" y="0">,</tspan><tspan fill="#EDEDED" font-size="55" x="86.5104" y="0">aaaaaa</tspan><tspan font-size="55" x="244.635" y="0">, </tspan><tspan font-size="55" x="270.99" y="0">P95 &lt; 2ms)         </tspan></text><g clip-path="url(#clip5)"><g clip-path="url(#clip6)"><g clip-path="url(#clip7)"><g clip-path="url(#clip8)"><path d="M2689.4 1740.9 2758.5 1740.9 2758.7 1770.6 2758.7 1770.6" stroke="#FF0000" stroke-width="11" stroke-linecap="square" stroke-linejoin="round" fill="none"/></g><path d="M2689.4 1770.6 2768.6 1770.6 2789.95 1770.6" stroke="#000000" stroke-width="5.5" stroke-linecap="round" stroke-linejoin="round" fill="none"/><path d="M2778.95 1765.1 2789.95 1770.6 2778.95 1776.1" stroke="#000000" stroke-width="5.5" stroke-linecap="round" stroke-linejoin="round" fill="none"/><path d="M2689.4 1770.6 2689.4 1691.4 2689.4 1670.05" stroke="#000000" stroke-width="5.5" stroke-linecap="round" stroke-linejoin="round" fill="none"/><path d="M2683.9 1681.05 2689.4 1670.05 2694.9 1681.05" stroke="#000000" stroke-width="5.5" stroke-linecap="round" stroke-linejoin="round" fill="none"/></g></g></g><g clip-path="url(#clip9)"><g clip-path="url(#clip10)"><g clip-path="url(#clip11)"><g clip-path="url(#clip12)"><path d="M2689.4 1509.1 2699.5 1522.47 2709.2 1533.35 2718.31 1541.78 2727.02 1548.26 2735.34 1552.97 2743.45 1556.2 2751.37 1558.05 2758.7 1558.6 2758.7 1558.6" stroke="#FF0000" stroke-width="11" stroke-linecap="square" stroke-linejoin="round" fill="none"/></g><path d="M2689.4 1558.6 2768.6 1558.6 2789.95 1558.6" stroke="#000000" stroke-width="5.5" stroke-linecap="round" stroke-linejoin="round" fill="none"/><path d="M2778.95 1553.1 2789.95 1558.6 2778.95 1564.1" stroke="#000000" stroke-width="5.5" stroke-linecap="round" stroke-linejoin="round" fill="none"/><path d="M2689.4 1558.6 2689.4 1479.4 2689.4 1458.05" stroke="#000000" stroke-width="5.5" stroke-linecap="round" stroke-linejoin="round" fill="none"/><path d="M2683.9 1469.05 2689.4 1458.05 2694.9 1469.05" stroke="#000000" stroke-width="5.5" stroke-linecap="round" stroke-linejoin="round" fill="none"/></g></g></g><g clip-path="url(#clip13)"><g clip-path="url(#clip14)"><g clip-path="url(#clip15)"><g clip-path="url(#clip16)"><path d="M987.4 1179.14 987.598 1179.67 987.796 1180.21 987.994 1180.74 988.192 1181.28 988.39 1181.81 988.588 1182.35 988.786 1182.88 988.984 1183.42 989.182 1183.95 989.38 1184.49 989.578 1185.02 989.776 1185.56 989.974 1186.09 990.172 1186.62 990.37 1187.16 990.568 1187.69 990.766 1188.23 990.964 1188.76 991.162 1189.3 991.36 1189.83 991.558 1190.37 991.756 1190.9 991.954 1191.44 992.152 1191.97 992.35 1192.51 992.548 1193.04 992.746 1193.57 992.944 1194.11 993.142 1194.64 993.34 1195.18 993.538 1195.71 993.736 1196.25 993.934 1196.78 994.132 1197.32 994.33 1197.85 994.528 1198.39 994.726 1198.92 994.924 1199.45 995.122 1199.99 995.32 1200.52 995.518 1201.06 995.716 1201.59 995.914 1202.13 996.112 1202.66 996.31 1203.2 996.508 1203.73 996.706 1204.27 996.904 1204.8 997.102 1205.34 997.3 1205.87 997.498 1206.4 997.696 1206.94 997.894 1207.47 998.092 1208.01 998.29 1208.54 998.488 1209.08 998.686 1209.61 998.884 1210.15 999.082 1210.68 999.28 1211.22 999.478 1211.75 999.676 1212.29 999.874 1212.82 1000.07 1213.35 1000.27 1213.89 1000.47 1214.42 1000.67 1214.96 1000.86 1215.49 1001.06 1216.03 1001.26 1216.56 1001.46 1217.1 1001.66 1217.63 1001.85 1218.17 1002.05 1218.7 1002.25 1219.24 1002.45 1219.77 1002.65 1220.3 1002.84 1220.84 1003.04 1221.37 1003.24 1221.91 1003.44 1222.44 1003.64 1222.98 1003.83 1223.51 1004.03 1224.05 1004.23 1224.58 1004.43 1225.12 1004.63 1225.65 1004.82 1226.18 1005.02 1226.72 1005.22 1227.25 1005.42 1227.79 1005.62 1228.32 1005.81 1228.86 1006.01 1229.39 1006.21 1229.93 1006.41 1230.46 1006.61 1231 1006.8 1231.53 1007 1232.07" stroke="#FF0000" stroke-width="11" stroke-linecap="square" stroke-linejoin="round" fill="none"/></g><path d="M987.4 1232.6 1066.6 1232.6 1087.95 1232.6" stroke="#000000" stroke-width="5.5" stroke-linecap="round" stroke-linejoin="round" fill="none"/><path d="M1076.95 1227.1 1087.95 1232.6 1076.95 1238.1" stroke="#000000" stroke-width="5.5" stroke-linecap="round" stroke-linejoin="round" fill="none"/><path d="M987.4 1232.6 987.4 1153.4 987.4 1132.05" stroke="#000000" stroke-width="5.5" stroke-linecap="round" stroke-linejoin="round" fill="none"/><path d="M981.9 1143.05 987.4 1132.05 992.9 1143.05" stroke="#000000" stroke-width="5.5" stroke-linecap="round" stroke-linejoin="round" fill="none"/></g></g></g><g clip-path="url(#clip17)"><g clip-path="url(#clip18)"><g clip-path="url(#clip19)"><g clip-path="url(#clip20)"><path d="M2689.4 1090.9 2758.7 1120.6 2758.7 1120.6" stroke="#FF0000" stroke-width="11" stroke-linecap="square" stroke-linejoin="round" fill="none"/></g><path d="M2689.4 1120.6 2768.6 1120.6 2789.95 1120.6" stroke="#000000" stroke-width="5.5" stroke-linecap="round" stroke-linejoin="round" fill="none"/><path d="M2778.95 1115.1 2789.95 1120.6 2778.95 1126.1" stroke="#000000" stroke-width="5.5" stroke-linecap="round" stroke-linejoin="round" fill="none"/><path d="M2689.4 1120.6 2689.4 1041.4 2689.4 1020.05" stroke="#000000" stroke-width="5.5" stroke-linecap="round" stroke-linejoin="round" fill="none"/><path d="M2683.9 1031.05 2689.4 1020.05 2694.9 1031.05" stroke="#000000" stroke-width="5.5" stroke-linecap="round" stroke-linejoin="round" fill="none"/></g></g></g><path d="M832.5 1363.17C832.5 1347.89 844.887 1335.5 860.167 1335.5L1409.83 1335.5C1425.11 1335.5 1437.5 1347.89 1437.5 1363.17L1437.5 1473.83C1437.5 1489.11 1425.11 1501.5 1409.83 1501.5L860.167 1501.5C844.887 1501.5 832.5 1489.11 832.5 1473.83Z" stroke="#2F528F" stroke-width="4.58333" stroke-miterlimit="8" fill="#E2F0D9" fill-rule="evenodd"/><text font-family="Calibri,Calibri_MSFontService,sans-serif" font-weight="400" font-size="55" transform="matrix(1 0 0 1 874.667 1436)">(32<tspan font-size="55" x="72.7604" y="0">,</tspan><tspan fill="#E2F0D9" font-size="55" x="86.5104" y="0">aaaaaa</tspan><tspan font-size="55" x="244.635" y="0">, </tspan><tspan font-size="55" x="270.99" y="0">P90 &lt; 2ms)         </tspan></text><path d="M830.5 1600.33C830.5 1584.96 842.962 1572.5 858.334 1572.5L1407.67 1572.5C1423.04 1572.5 1435.5 1584.96 1435.5 1600.33L1435.5 1711.67C1435.5 1727.04 1423.04 1739.5 1407.67 1739.5L858.334 1739.5C842.962 1739.5 830.5 1727.04 830.5 1711.67Z" stroke="#2F528F" stroke-width="4.58333" stroke-miterlimit="8" fill="#E2F0D9" fill-rule="evenodd"/><text font-family="Calibri,Calibri_MSFontService,sans-serif" font-weight="400" font-size="55" transform="matrix(1 0 0 1 872.668 1674)">(80<tspan font-size="55" x="72.7604" y="0">,</tspan><tspan fill="#EDEDED" font-size="55" x="86.5104" y="0">aaaaaa</tspan><tspan font-size="55" x="244.635" y="0">, </tspan><tspan font-size="55" x="270.99" y="0">P99 &lt; 2ms)         </tspan></text><g clip-path="url(#clip21)"><g clip-path="url(#clip22)"><g clip-path="url(#clip23)"><g clip-path="url(#clip24)"><path d="M987.4 1418.1 992.944 1418.72 998.488 1420.58 1004.23 1423.82 1010.37 1428.76 1016.7 1435.45 1023.63 1444.62 1030.96 1456.43 1036.7 1467.2 1036.7 1467.2" stroke="#FF0000" stroke-width="11" stroke-linecap="square" stroke-linejoin="round" fill="none"/></g><path d="M987.4 1467.6 1066.6 1467.6 1087.95 1467.6" stroke="#000000" stroke-width="5.5" stroke-linecap="round" stroke-linejoin="round" fill="none"/><path d="M1076.95 1462.1 1087.95 1467.6 1076.95 1473.1" stroke="#000000" stroke-width="5.5" stroke-linecap="round" stroke-linejoin="round" fill="none"/><path d="M987.4 1467.6 987.4 1388.4 987.4 1367.05" stroke="#000000" stroke-width="5.5" stroke-linecap="round" stroke-linejoin="round" fill="none"/><path d="M981.9 1378.05 987.4 1367.05 992.9 1378.05" stroke="#000000" stroke-width="5.5" stroke-linecap="round" stroke-linejoin="round" fill="none"/></g></g></g><g clip-path="url(#clip25)"><g clip-path="url(#clip26)"><g clip-path="url(#clip27)"><g clip-path="url(#clip28)"><path d="M987.4 1648.1 1036.7 1697.4 1036.7 1697.4" stroke="#FF0000" stroke-width="11" stroke-linecap="square" stroke-linejoin="round" fill="none"/></g><path d="M987.4 1697.6 1066.6 1697.6 1087.95 1697.6" stroke="#000000" stroke-width="5.5" stroke-linecap="round" stroke-linejoin="round" fill="none"/><path d="M1076.95 1692.1 1087.95 1697.6 1076.95 1703.1" stroke="#000000" stroke-width="5.5" stroke-linecap="round" stroke-linejoin="round" fill="none"/><path d="M987.4 1697.6 987.4 1618.4 987.4 1597.05" stroke="#000000" stroke-width="5.5" stroke-linecap="round" stroke-linejoin="round" fill="none"/><path d="M981.9 1608.05 987.4 1597.05 992.9 1608.05" stroke="#000000" stroke-width="5.5" stroke-linecap="round" stroke-linejoin="round" fill="none"/></g></g></g><path d="M1460.5 1125.33C1460.5 1109.96 1472.96 1097.5 1488.33 1097.5L1681.67 1097.5C1697.04 1097.5 1709.5 1109.96 1709.5 1125.33L1709.5 1236.67C1709.5 1252.04 1697.04 1264.5 1681.67 1264.5L1488.33 1264.5C1472.96 1264.5 1460.5 1252.04 1460.5 1236.67Z" stroke="#2F528F" stroke-width="4.58333" stroke-miterlimit="8" fill="#F8CBAD" fill-rule="evenodd"/><text font-family="SimHei,SimHei_MSFontService,sans-serif" font-weight="400" font-size="55" transform="matrix(1 0 0 1 1502.03 1204)">客户端</text><path d="M1463.5 1370.17C1463.5 1354.89 1475.89 1342.5 1491.17 1342.5L1685.83 1342.5C1701.11 1342.5 1713.5 1354.89 1713.5 1370.17L1713.5 1480.83C1713.5 1496.11 1701.11 1508.5 1685.83 1508.5L1491.17 1508.5C1475.89 1508.5 1463.5 1496.11 1463.5 1480.83Z" stroke="#2F528F" stroke-width="4.58333" stroke-miterlimit="8" fill="#F8CBAD" fill-rule="evenodd"/><text font-family="SimHei,SimHei_MSFontService,sans-serif" font-weight="400" font-size="55" transform="matrix(1 0 0 1 1505.45 1449)">客户端</text><path d="M1463.5 1600.33C1463.5 1584.96 1475.96 1572.5 1491.33 1572.5L1685.67 1572.5C1701.04 1572.5 1713.5 1584.96 1713.5 1600.33L1713.5 1711.67C1713.5 1727.04 1701.04 1739.5 1685.67 1739.5L1491.33 1739.5C1475.96 1739.5 1463.5 1727.04 1463.5 1711.67Z" stroke="#2F528F" stroke-width="4.58333" stroke-miterlimit="8" fill="#F8CBAD" fill-rule="evenodd"/><text font-family="SimHei,SimHei_MSFontService,sans-serif" font-weight="400" font-size="55" transform="matrix(1 0 0 1 1505.45 1680)">客户端</text><path d="M3.40745-3.06533 21.7994 17.3793 14.9845 23.51-3.40745 3.06533ZM27.9301 24.1942 46.3221 44.6389 39.5072 50.7696 21.1152 30.3249ZM52.4528 51.4538 70.8448 71.8985 64.0299 78.0291 45.6379 57.5845ZM76.9754 78.7134 95.3674 99.158 88.5525 105.289 70.1605 84.844ZM101.498 105.973 119.89 126.418 113.075 132.548 94.6832 112.104ZM126.021 133.232 144.413 153.677 137.598 159.808 119.206 139.363ZM150.543 160.492 168.935 180.937 162.12 187.067 143.729 166.623ZM175.066 187.752 193.458 208.196 186.643 214.327 168.251 193.882ZM199.589 215.011 207.901 224.251 201.086 230.381 192.774 221.142ZM211.65 214.713 219.82 244.353 191.206 233.105Z" fill="#4472C4" transform="matrix(1 0 0 -1 1567.5 1048.85)"/><path d="M2370.94 812.618 2394.23 827.24 2389.35 835.004 2366.06 820.382ZM2401.99 832.115 2425.28 846.737 2420.41 854.5 2397.12 839.878ZM2433.04 851.611 2456.33 866.233 2451.46 873.997 2428.17 859.374ZM2464.1 871.107 2487.39 885.73 2482.51 893.493 2459.22 878.871ZM2495.15 890.604 2518.44 905.226 2513.57 912.99 2490.28 898.367ZM2526.21 910.1 2549.5 924.723 2544.62 932.486 2521.33 917.864ZM2557.26 929.597 2570.61 937.978 2565.73 945.742 2552.39 937.36ZM2571.6 927.778 2587.58 954.045 2556.98 951.068Z" fill="#4472C4"/><path d="M0.830038-4.50755 679.857 120.531 678.197 129.546-0.830038 4.50755ZM677.008 110.686 701.563 129.189 672.028 137.731Z" fill="#70AD47" transform="matrix(1 0 0 -1 1748.5 1177.69)"/><path d="M3.3912-3.08329 21.891 17.2639 15.1085 23.4305-3.3912 3.08329ZM28.0575 24.0463 46.5573 44.3935 39.7749 50.5601 21.2751 30.2129ZM52.7239 51.1759 71.2236 71.5232 64.4412 77.6897 45.9415 57.3425ZM77.3902 78.3056 95.89 98.6528 89.1076 104.819 70.6078 84.4722ZM102.057 105.435 120.556 125.782 113.774 131.949 95.2741 111.602ZM126.723 132.565 145.223 152.912 138.44 159.079 119.94 138.731ZM151.389 159.694 169.889 180.042 163.107 186.208 144.607 165.861ZM176.056 186.824 194.555 207.171 187.773 213.338 169.273 192.991ZM203.274 203.134 211.6 232.732 182.927 221.634Z" fill="#4472C4" transform="matrix(-1 0 0 1 1825.1 849.5)"/><text font-family="SimHei,SimHei_MSFontService,sans-serif" font-weight="400" font-size="83" transform="matrix(1 0 0 1 1037.38 1051)">租户<tspan font-size="83" x="1674.16" y="-100">存储单元</tspan></text><rect x="821.5" y="1074.5" width="630" height="687" stroke="#548235" stroke-width="9.16667" stroke-miterlimit="8" stroke-dasharray="73.3333 27.5" fill="none"/><rect x="2480.5" y="965.5" width="788" height="875" stroke="#767171" stroke-width="9.16667" stroke-miterlimit="8" stroke-dasharray="73.3333 27.5" fill="none"/><text fill="#4472C4" font-family="SimHei,SimHei_MSFontService,sans-serif" font-weight="400" font-size="55" transform="matrix(1 0 0 1 1098.44 893)">1. <tspan font-size="55" x="82.5" y="0">向控制器提出</tspan><tspan font-size="55" x="412.5" y="0">SLA</tspan>需求<tspan font-size="55" x="714.029" y="-364">2. </tspan><tspan font-size="55" x="796.529" y="-364">计算数据分布方式</tspan><tspan font-size="55" x="1363.22" y="-48">3. </tspan>启用新的存储单元</text><path d="M1773.72 1680.92 2427.47 1712.74 2427.02 1721.9 1773.28 1690.08ZM2423.33 1703.36 2450.13 1718.43 2422 1730.83Z" fill="#70AD47"/><path d="M2.08734-4.08044 647.089 325.869 642.914 334.03-2.08734 4.08044ZM647.184 315.621 665.404 340.386 634.66 340.103Z" fill="#70AD47" transform="matrix(1 0 0 -1 1773.5 1652.89)"/><text fill="#4472C4" font-family="SimHei,SimHei_MSFontService,sans-serif" font-weight="400" font-size="55" transform="matrix(1 0 0 1 1745 981)">4. <tspan font-size="55" x="82.4999" y="0">将数据块映射</tspan><tspan font-size="55" x="-13.75" y="66">方式返回给客户端</tspan><tspan fill="#70AD47" font-size="55" x="117.443" y="299">根据数据块映射</tspan><tspan fill="#70AD47" font-size="55" x="89.9434" y="365">方式访问存储单元</tspan></text></g></svg>