<?xml version="1.0" encoding="utf-8" standalone="no"?>
<!DOCTYPE svg PUBLIC "-//W3C//DTD SVG 1.1//EN"
  "http://www.w3.org/Graphics/SVG/1.1/DTD/svg11.dtd">
<!-- Created with matplotlib (https://matplotlib.org/) -->
<svg height="216pt" version="1.1" viewBox="0 0 360 216" width="360pt" xmlns="http://www.w3.org/2000/svg" xmlns:xlink="http://www.w3.org/1999/xlink">
 <metadata>
  <rdf:RDF xmlns:cc="http://creativecommons.org/ns#" xmlns:dc="http://purl.org/dc/elements/1.1/" xmlns:rdf="http://www.w3.org/1999/02/22-rdf-syntax-ns#">
   <cc:Work>
    <dc:type rdf:resource="http://purl.org/dc/dcmitype/StillImage"/>
    <dc:date>2021-05-12T16:43:27.811069</dc:date>
    <dc:format>image/svg+xml</dc:format>
    <dc:creator>
     <cc:Agent>
      <dc:title>Matplotlib v3.3.4, https://matplotlib.org/</dc:title>
     </cc:Agent>
    </dc:creator>
   </cc:Work>
  </rdf:RDF>
 </metadata>
 <defs>
  <style type="text/css">*{stroke-linecap:butt;stroke-linejoin:round;}</style>
 </defs>
 <g id="figure_1">
  <g id="patch_1">
   <path d="M 0 216 
L 360 216 
L 360 0 
L 0 0 
z
" style="fill:none;"/>
  </g>
  <g id="axes_1">
   <g id="patch_2">
    <path d="M 51.503125 176.590625 
L 349.2 176.590625 
L 349.2 10.8 
L 51.503125 10.8 
z
" style="fill:#ffffff;"/>
   </g>
   <g id="matplotlib.axis_1">
    <g id="xtick_1">
     <g id="line2d_1">
      <defs>
       <path d="M 0 0 
L 0 3.5 
" id="mced2ac2d4d" style="stroke:#000000;stroke-width:0.8;"/>
      </defs>
      <g>
       <use style="stroke:#000000;stroke-width:0.8;" x="65.034801" xlink:href="#mced2ac2d4d" y="176.590625"/>
      </g>
     </g>
     <g id="text_1">
      <!-- 75 -->
      <g transform="translate(60.034801 190.465625)scale(0.1 -0.1)">
       <defs>
        <path d="M 13.28125 2.34375 
Q 20.3125 32.03125 37.890625 61.328125 
L 4.296875 61.328125 
L 4.296875 68.359375 
L 46.09375 68.359375 
L 46.09375 61.71875 
Q 27.734375 32.03125 21.875 2.34375 
L 13.28125 2.34375 
z
" id="SimHei-55"/>
        <path d="M 8.59375 20.703125 
Q 11.328125 10.15625 17.96875 8.984375 
Q 24.609375 7.8125 28.703125 10.34375 
Q 32.8125 12.890625 34.5625 16.984375 
Q 36.328125 21.09375 36.125 26.171875 
Q 35.9375 31.25 33.390625 34.765625 
Q 30.859375 38.28125 26.953125 39.453125 
Q 23.046875 40.625 18.15625 39.453125 
Q 13.28125 38.28125 10.15625 33.984375 
L 3.515625 34.765625 
Q 4.296875 37.109375 10.9375 68.359375 
L 41.796875 68.359375 
L 41.796875 61.328125 
L 16.796875 61.328125 
Q 14.84375 50.78125 12.890625 44.53125 
Q 18.75 47.265625 23.828125 47.0625 
Q 28.90625 46.875 33.59375 44.71875 
Q 38.28125 42.578125 40.421875 38.859375 
Q 42.578125 35.15625 43.546875 31.4375 
Q 44.53125 27.734375 44.328125 23.4375 
Q 44.140625 19.140625 42.578125 14.640625 
Q 41.015625 10.15625 37.890625 7.21875 
Q 34.765625 4.296875 30.265625 2.53125 
Q 25.78125 0.78125 19.921875 1.171875 
Q 14.0625 1.5625 8.78125 5.46875 
Q 3.515625 9.375 1.5625 18.75 
z
" id="SimHei-53"/>
       </defs>
       <use xlink:href="#SimHei-55"/>
       <use x="50" xlink:href="#SimHei-53"/>
      </g>
     </g>
    </g>
    <g id="xtick_2">
     <g id="line2d_2">
      <g>
       <use style="stroke:#000000;stroke-width:0.8;" x="132.693182" xlink:href="#mced2ac2d4d" y="176.590625"/>
      </g>
     </g>
     <g id="text_2">
      <!-- 90 -->
      <g transform="translate(127.693182 190.465625)scale(0.1 -0.1)">
       <defs>
        <path d="M 12.5 1.171875 
Q 21.09375 15.625 26.5625 27.34375 
Q 16.796875 25.78125 10.34375 29.875 
Q 3.90625 33.984375 2.53125 41.015625 
Q 1.171875 48.046875 2.734375 53.703125 
Q 4.296875 59.375 7.609375 63.078125 
Q 10.9375 66.796875 15.625 68.359375 
Q 20.3125 69.921875 24.015625 69.921875 
Q 27.734375 69.921875 31.640625 68.359375 
Q 35.546875 66.796875 38.671875 63.671875 
Q 41.796875 60.546875 42.96875 57.21875 
Q 44.140625 53.90625 44.140625 48.625 
Q 44.140625 43.359375 40.234375 35.15625 
Q 36.328125 26.953125 21.09375 1.171875 
z
M 9.765625 50 
Q 10.9375 39.84375 14.640625 36.515625 
Q 18.359375 33.203125 22.65625 33.59375 
Q 26.953125 33.984375 29.484375 35.9375 
Q 32.03125 37.890625 34.375 42.578125 
Q 35.9375 48.4375 35.15625 52.53125 
Q 34.375 56.640625 31.046875 59.375 
Q 27.734375 62.109375 23.828125 62.109375 
Q 21.484375 62.5 17.765625 60.9375 
Q 14.0625 59.375 11.90625 54.6875 
Q 9.765625 50 10.9375 39.84375 
z
" id="SimHei-57"/>
        <path d="M 3.125 29.296875 
Q 3.90625 50 6.4375 56.046875 
Q 8.984375 62.109375 13.671875 66.015625 
Q 18.359375 69.921875 25.1875 69.921875 
Q 32.03125 69.921875 37.109375 64.25 
Q 42.1875 58.59375 43.75 50 
Q 45.3125 41.40625 44.71875 30.265625 
Q 44.140625 19.140625 40.8125 12.109375 
Q 37.5 5.078125 30.859375 2.34375 
Q 24.21875 -0.390625 17.578125 2.921875 
Q 10.9375 6.25 8.203125 11.71875 
Q 5.46875 17.1875 4.296875 23.234375 
Q 3.125 29.296875 3.90625 50 
z
M 12.890625 52.734375 
Q 10.546875 31.25 12.5 22.84375 
Q 14.453125 14.453125 18.9375 10.9375 
Q 23.4375 7.421875 28.125 9.5625 
Q 32.8125 11.71875 34.953125 18.15625 
Q 37.109375 24.609375 37.109375 32.21875 
Q 37.109375 39.84375 36.515625 46.09375 
Q 35.9375 52.34375 33 57.421875 
Q 30.078125 62.5 25.1875 62.6875 
Q 20.3125 62.890625 16.59375 57.8125 
Q 12.890625 52.734375 10.546875 31.25 
z
" id="SimHei-48"/>
       </defs>
       <use xlink:href="#SimHei-57"/>
       <use x="50" xlink:href="#SimHei-48"/>
      </g>
     </g>
    </g>
    <g id="xtick_3">
     <g id="line2d_3">
      <g>
       <use style="stroke:#000000;stroke-width:0.8;" x="200.351562" xlink:href="#mced2ac2d4d" y="176.590625"/>
      </g>
     </g>
     <g id="text_3">
      <!-- 95 -->
      <g transform="translate(195.351562 190.465625)scale(0.1 -0.1)">
       <use xlink:href="#SimHei-57"/>
       <use x="50" xlink:href="#SimHei-53"/>
      </g>
     </g>
    </g>
    <g id="xtick_4">
     <g id="line2d_4">
      <g>
       <use style="stroke:#000000;stroke-width:0.8;" x="268.009943" xlink:href="#mced2ac2d4d" y="176.590625"/>
      </g>
     </g>
     <g id="text_4">
      <!-- 99 -->
      <g transform="translate(263.009943 190.465625)scale(0.1 -0.1)">
       <use xlink:href="#SimHei-57"/>
       <use x="50" xlink:href="#SimHei-57"/>
      </g>
     </g>
    </g>
    <g id="xtick_5">
     <g id="line2d_5">
      <g>
       <use style="stroke:#000000;stroke-width:0.8;" x="335.668324" xlink:href="#mced2ac2d4d" y="176.590625"/>
      </g>
     </g>
     <g id="text_5">
      <!-- 99.9 -->
      <g transform="translate(325.668324 190.465625)scale(0.1 -0.1)">
       <defs>
        <path d="M 16.796875 1.953125 
L 7.8125 1.953125 
L 7.8125 10.546875 
L 16.796875 10.546875 
z
" id="SimHei-46"/>
       </defs>
       <use xlink:href="#SimHei-57"/>
       <use x="50" xlink:href="#SimHei-57"/>
       <use x="100" xlink:href="#SimHei-46"/>
       <use x="150" xlink:href="#SimHei-57"/>
      </g>
     </g>
    </g>
    <g id="text_6">
     <!-- 读延迟分位数 -->
     <g transform="translate(170.351562 203.60625)scale(0.1 -0.1)">
      <defs>
       <path d="M 35.15625 56.25 
Q 43.359375 55.859375 60.546875 55.859375 
L 60.546875 64.0625 
Q 46.484375 64.0625 38.28125 63.671875 
L 38.28125 70.3125 
Q 43.359375 69.921875 60.546875 69.921875 
Q 60.546875 75.390625 60.15625 80.46875 
L 67.96875 80.46875 
Q 67.578125 74.21875 67.578125 69.921875 
Q 83.984375 69.921875 91.015625 70.3125 
L 91.015625 63.671875 
Q 84.765625 64.0625 67.578125 64.0625 
L 67.578125 55.859375 
L 94.140625 55.859375 
Q 88.671875 42.578125 86.71875 37.5 
Q 83.984375 38.671875 80.078125 40.234375 
Q 82.8125 46.875 83.984375 50 
L 51.5625 50 
Q 43.359375 50 35.15625 49.609375 
z
M 68.359375 14.453125 
Q 65.234375 6.640625 60.15625 1.953125 
Q 55.078125 -2.734375 49.40625 -5.65625 
Q 43.75 -8.59375 39.453125 -10.15625 
Q 37.109375 -7.03125 34.375 -3.90625 
Q 44.53125 -1.953125 51.75 3.515625 
Q 58.984375 8.984375 60.9375 14.453125 
L 51.171875 14.453125 
Q 43.75 14.453125 35.546875 14.0625 
L 35.546875 21.09375 
Q 42.578125 20.703125 51.171875 20.703125 
L 62.890625 20.703125 
Q 63.671875 26.953125 64.25 34.171875 
Q 64.84375 41.40625 64.84375 46.875 
Q 68.359375 45.703125 73.046875 45.3125 
Q 71.875 41.015625 71.28125 34.375 
Q 70.703125 27.734375 69.53125 20.703125 
L 78.90625 20.703125 
Q 85.9375 20.703125 94.921875 21.09375 
L 94.921875 14.0625 
Q 87.5 14.453125 79.296875 14.453125 
z
M 25 51.171875 
Q 24.609375 44.53125 24.609375 36.71875 
L 24.609375 10.9375 
Q 27.734375 14.453125 31.25 18.75 
Q 32.421875 15.625 35.15625 12.109375 
Q 29.6875 6.640625 25.78125 2.34375 
Q 21.875 -1.953125 19.140625 -5.46875 
Q 17.1875 -2.34375 13.28125 0.390625 
Q 16.796875 3.125 17.578125 6.640625 
L 17.578125 44.921875 
Q 12.890625 44.921875 5.078125 44.53125 
L 5.078125 51.5625 
Q 12.109375 51.171875 17.96875 51.171875 
z
M 72.65625 10.546875 
Q 87.109375 1.171875 93.359375 -3.515625 
Q 90.625 -6.25 88.28125 -9.765625 
Q 81.25 -3.125 68.75 4.296875 
Q 71.484375 7.8125 72.65625 10.546875 
z
M 16.40625 78.90625 
Q 23.046875 71.875 27.734375 65.234375 
Q 24.609375 63.28125 21.484375 60.546875 
Q 16.40625 68.75 10.546875 74.21875 
Q 14.0625 76.5625 16.40625 78.90625 
z
M 45.703125 48.4375 
Q 55.859375 41.796875 60.9375 38.671875 
Q 58.984375 35.9375 56.640625 32.421875 
Q 48.828125 39.0625 42.1875 42.578125 
Q 44.140625 45.703125 45.703125 48.4375 
z
M 38.671875 37.109375 
Q 47.65625 32.03125 53.90625 28.125 
Q 51.953125 25.390625 49.609375 21.875 
Q 39.84375 28.90625 35.15625 31.25 
Q 37.109375 33.984375 38.671875 37.109375 
z
" id="SimHei-35835"/>
       <path d="M 32.8125 74.21875 
Q 23.4375 53.90625 19.921875 44.921875 
L 33.984375 44.921875 
Q 32.03125 34.375 30.265625 26.75 
Q 28.515625 19.140625 25.78125 11.71875 
Q 31.640625 6.640625 42.375 3.3125 
Q 53.125 0 65.234375 -0.390625 
Q 77.34375 -0.78125 96.484375 1.171875 
Q 92.96875 -3.125 92.578125 -7.421875 
Q 75.390625 -7.8125 64.25 -7.21875 
Q 53.125 -6.640625 45.3125 -4.875 
Q 37.5 -3.125 32.421875 -0.578125 
Q 27.34375 1.953125 22.265625 5.859375 
Q 16.40625 -2.34375 10.15625 -8.203125 
Q 7.8125 -5.46875 3.90625 -3.125 
Q 11.328125 3.125 17.1875 10.9375 
Q 12.890625 16.015625 10.734375 19.53125 
Q 8.59375 23.046875 6.25 27.734375 
Q 7.8125 28.515625 12.5 31.25 
Q 14.84375 26.5625 16.40625 24.015625 
Q 17.96875 21.484375 20.3125 18.359375 
Q 23.046875 25.390625 25.78125 39.0625 
Q 15.625 39.0625 11.328125 37.890625 
L 9.375 44.921875 
Q 12.890625 46.875 16.40625 54.6875 
Q 19.921875 62.5 21.875 67.96875 
Q 12.5 67.96875 6.25 67.578125 
L 6.25 74.609375 
Q 17.578125 74.21875 22.65625 74.21875 
z
M 88.671875 72.265625 
Q 83.59375 72.265625 70.3125 68.75 
L 70.3125 48.4375 
Q 81.25 48.4375 87.5 48.828125 
L 87.5 41.796875 
Q 81.25 42.1875 70.3125 42.1875 
L 70.3125 18.75 
Q 77.734375 18.75 88.671875 19.140625 
L 88.671875 11.71875 
Q 78.125 12.109375 71.875 12.109375 
L 42.1875 12.109375 
Q 42.578125 21.875 42.578125 28.515625 
L 42.578125 37.5 
Q 42.578125 44.53125 42.1875 55.078125 
L 51.171875 55.078125 
Q 50.390625 44.53125 50.390625 34.375 
L 50.390625 18.75 
L 62.5 18.75 
L 62.5 67.578125 
Q 48.046875 65.234375 41.40625 64.0625 
Q 40.625 66.796875 38.28125 71.484375 
Q 51.5625 72.65625 60.734375 74.40625 
Q 69.921875 76.171875 81.25 80.859375 
Q 82.421875 78.90625 88.671875 72.265625 
z
" id="SimHei-24310"/>
       <path d="M 87.109375 75.390625 
Q 86.71875 64.0625 86.71875 57.8125 
Q 86.71875 51.5625 87.109375 39.84375 
L 79.296875 39.84375 
L 79.296875 44.140625 
L 49.609375 44.140625 
Q 49.21875 33.59375 46.671875 26.171875 
Q 44.140625 18.75 37.5 7.421875 
Q 34.375 9.765625 29.6875 11.71875 
Q 35.9375 18.75 38.46875 25.390625 
Q 41.015625 32.03125 41.796875 37.890625 
Q 42.578125 43.75 42.578125 53.125 
Q 42.578125 62.5 42.1875 75.390625 
L 87.109375 75.390625 
z
M 25.78125 46.484375 
Q 25.390625 39.0625 25.390625 31.25 
L 25.390625 9.375 
Q 38.28125 1.171875 59.375 0.78125 
Q 80.46875 0.390625 96.09375 2.34375 
Q 92.1875 -2.734375 91.40625 -7.03125 
Q 76.953125 -7.03125 65.8125 -6.828125 
Q 54.6875 -6.640625 48.046875 -5.65625 
Q 41.40625 -4.6875 36.125 -2.734375 
Q 30.859375 -0.78125 26.953125 1.5625 
Q 23.046875 3.90625 19.53125 0.578125 
Q 16.015625 -2.734375 12.109375 -8.59375 
Q 8.984375 -5.46875 5.078125 -2.734375 
Q 14.0625 5.078125 18.359375 8.203125 
L 18.359375 39.84375 
Q 11.328125 39.84375 5.859375 39.453125 
L 5.859375 46.875 
Q 11.71875 46.484375 18.359375 46.484375 
z
M 79.296875 51.171875 
L 79.296875 68.359375 
L 49.609375 68.359375 
L 49.609375 51.171875 
z
M 64.84375 38.28125 
Q 70.3125 33.984375 88.671875 14.453125 
Q 85.546875 12.109375 81.640625 7.8125 
Q 72.65625 19.140625 59.375 32.421875 
Q 62.109375 34.765625 64.84375 38.28125 
z
M 19.921875 79.6875 
Q 25 69.53125 28.515625 60.9375 
Q 24.21875 59.375 21.09375 57.8125 
Q 17.578125 67.578125 12.890625 76.5625 
Q 16.796875 77.734375 19.921875 79.6875 
z
" id="SimHei-36831"/>
       <path d="M 15.625 -10.15625 
Q 12.890625 -5.859375 8.984375 -3.515625 
Q 15.234375 -1.171875 20.3125 2.140625 
Q 25.390625 5.46875 29.296875 10.34375 
Q 33.203125 15.234375 35.15625 21.09375 
Q 37.109375 26.953125 37.890625 35.546875 
Q 28.90625 35.546875 23.4375 35.15625 
L 23.4375 43.359375 
Q 29.6875 42.96875 39.453125 42.96875 
L 78.515625 42.96875 
Q 77.734375 37.109375 77.34375 32.8125 
L 74.21875 3.90625 
Q 73.4375 -3.125 67.96875 -5.46875 
Q 62.5 -7.8125 55.859375 -8.203125 
Q 55.46875 -4.296875 51.953125 0.78125 
Q 60.15625 0.390625 63.078125 1.359375 
Q 66.015625 2.34375 66.796875 8.203125 
L 69.53125 35.546875 
L 46.09375 35.546875 
Q 44.921875 25.390625 42.765625 18.546875 
Q 40.625 11.71875 36.71875 6.640625 
Q 32.8125 1.5625 27.34375 -2.734375 
Q 21.875 -7.03125 15.625 -10.15625 
z
M 61.71875 80.859375 
Q 64.453125 72.65625 72.84375 62.109375 
Q 81.25 51.5625 96.484375 43.75 
Q 93.359375 41.015625 90.234375 35.546875 
Q 83.203125 40.625 77.921875 45.109375 
Q 72.65625 49.609375 69.140625 53.515625 
Q 65.625 57.421875 61.328125 64.640625 
Q 57.03125 71.875 54.296875 78.125 
Q 58.59375 79.296875 61.71875 80.859375 
z
M 42.1875 75.390625 
Q 38.671875 69.140625 36.328125 64.453125 
Q 33.984375 59.765625 31.640625 56.046875 
Q 29.296875 52.34375 24.609375 46.09375 
Q 19.921875 39.84375 13.28125 33.203125 
Q 9.765625 36.71875 6.25 38.671875 
Q 14.0625 45.703125 18.546875 51.5625 
Q 23.046875 57.421875 27.140625 64.25 
Q 31.25 71.09375 34.375 79.296875 
Q 37.5 76.953125 42.1875 75.390625 
z
" id="SimHei-20998"/>
       <path d="M 33.203125 76.953125 
Q 30.46875 74.21875 25.390625 58.59375 
L 25.390625 8.984375 
Q 25.390625 -3.515625 25.78125 -10.15625 
L 17.1875 -10.15625 
Q 17.96875 -3.125 17.96875 8.59375 
L 17.96875 46.09375 
Q 12.109375 35.546875 8.59375 30.46875 
Q 5.859375 35.546875 3.125 37.890625 
Q 8.203125 43.359375 14.25 55.859375 
Q 20.3125 68.359375 23.4375 81.25 
Q 28.515625 78.125 33.203125 76.953125 
z
M 83.984375 47.265625 
Q 82.421875 44.921875 79.6875 35.15625 
Q 76.953125 25.390625 71.875 4.6875 
L 85.15625 4.6875 
Q 92.578125 4.6875 95.3125 5.078125 
L 95.3125 -2.734375 
Q 91.796875 -2.34375 85.15625 -2.34375 
L 45.3125 -2.34375 
Q 35.546875 -2.34375 32.03125 -2.734375 
L 32.03125 5.078125 
Q 35.546875 4.6875 44.53125 4.6875 
L 63.671875 4.6875 
Q 68.75 21.875 73.4375 49.609375 
Q 79.6875 48.046875 83.984375 47.265625 
z
M 82.03125 62.890625 
Q 89.0625 62.890625 92.578125 63.28125 
L 92.578125 55.859375 
Q 89.0625 56.25 81.640625 56.25 
L 46.875 56.25 
Q 41.40625 56.25 35.546875 55.859375 
L 35.546875 63.28125 
Q 41.796875 62.890625 46.875 62.890625 
z
M 47.65625 47.65625 
Q 54.6875 27.734375 58.59375 11.328125 
Q 53.90625 9.765625 50.78125 8.59375 
Q 48.828125 17.578125 46.28125 26.171875 
Q 43.75 34.765625 39.84375 44.921875 
Q 43.75 45.703125 47.65625 47.65625 
z
M 60.546875 81.25 
Q 65.234375 73.046875 68.75 67.1875 
Q 65.625 66.40625 60.546875 63.671875 
Q 57.8125 70.703125 53.125 77.34375 
Q 57.03125 78.90625 60.546875 81.25 
z
" id="SimHei-20301"/>
       <path d="M 70.703125 76.953125 
Q 69.921875 75 68.75 71.671875 
Q 67.578125 68.359375 65.234375 59.765625 
L 83.203125 59.765625 
Q 87.109375 59.765625 92.578125 60.15625 
L 92.578125 53.125 
Q 88.28125 53.515625 85.9375 53.515625 
Q 85.9375 47.265625 83.78125 33.78125 
Q 81.640625 20.3125 76.171875 10.546875 
Q 80.078125 5.859375 84.953125 2.140625 
Q 89.84375 -1.5625 94.140625 -3.125 
Q 89.453125 -6.640625 87.890625 -9.765625 
Q 83.203125 -7.03125 79.296875 -3.515625 
Q 75.390625 0 71.484375 5.078125 
Q 67.1875 0.390625 62.296875 -2.921875 
Q 57.421875 -6.25 50 -10.15625 
Q 48.046875 -6.640625 44.53125 -4.6875 
Q 50.390625 -2.34375 57.03125 1.953125 
Q 63.671875 6.25 67.1875 10.546875 
Q 64.453125 16.015625 61.90625 22.265625 
Q 59.375 28.515625 57.421875 38.671875 
Q 56.25 35.546875 53.515625 30.46875 
Q 50.78125 32.03125 46.875 33.59375 
Q 53.125 44.53125 57.03125 57.421875 
Q 60.9375 70.3125 62.109375 79.6875 
Q 66.796875 77.734375 70.703125 76.953125 
z
M 32.8125 35.15625 
Q 31.25 33.59375 29.296875 30.078125 
L 50.78125 30.078125 
Q 48.4375 20.3125 42.578125 10.546875 
Q 48.828125 8.203125 52.34375 6.25 
Q 50.390625 3.515625 48.828125 0.390625 
Q 45.3125 2.734375 38.28125 5.078125 
Q 30.46875 -3.515625 11.328125 -10.15625 
Q 9.375 -5.859375 6.25 -4.296875 
Q 24.609375 0 31.25 7.421875 
Q 20.3125 10.15625 13.28125 12.109375 
Q 15.625 15.625 19.53125 23.828125 
Q 15.625 23.828125 6.640625 23.4375 
L 6.640625 30.46875 
Q 14.0625 30.078125 21.875 30.078125 
Q 23.4375 33.59375 24.21875 37.890625 
Q 28.515625 36.328125 32.8125 35.15625 
z
M 27.734375 61.71875 
Q 27.734375 71.09375 27.34375 79.6875 
L 35.15625 79.6875 
Q 34.765625 71.484375 34.765625 61.71875 
Q 48.046875 61.71875 53.515625 62.109375 
L 53.515625 55.078125 
Q 48.046875 55.46875 34.765625 55.46875 
Q 34.765625 44.140625 35.15625 37.890625 
L 27.34375 37.890625 
Q 27.734375 43.359375 27.734375 51.5625 
Q 25.78125 48.4375 20.3125 43.546875 
Q 14.84375 38.671875 10.15625 35.9375 
Q 8.203125 39.453125 4.296875 41.015625 
Q 7.8125 42.1875 13.671875 46.484375 
Q 19.53125 50.78125 22.65625 55.46875 
Q 14.84375 55.46875 7.8125 55.078125 
L 7.8125 62.109375 
Q 14.453125 61.71875 27.734375 61.71875 
z
M 62.109375 49.609375 
Q 65.625 26.5625 71.875 17.578125 
Q 75.78125 26.5625 77.140625 35.734375 
Q 78.515625 44.921875 78.90625 53.515625 
L 63.671875 53.515625 
L 62.109375 49.609375 
z
M 22.65625 15.625 
Q 27.34375 14.453125 35.546875 12.5 
Q 38.671875 16.40625 41.40625 23.828125 
L 26.953125 23.828125 
Q 25 19.921875 22.65625 15.625 
z
M 51.953125 75.390625 
Q 50 72.265625 48.828125 69.53125 
Q 47.65625 66.796875 45.703125 62.890625 
Q 42.578125 64.453125 39.453125 65.234375 
Q 42.578125 70.3125 45.3125 78.125 
Q 49.21875 76.171875 51.953125 75.390625 
z
M 40.234375 52.734375 
Q 45.3125 47.65625 50 42.578125 
Q 47.65625 40.625 44.921875 37.890625 
Q 39.453125 44.53125 35.9375 48.4375 
Q 38.28125 50.390625 40.234375 52.734375 
z
M 14.453125 78.125 
Q 19.921875 72.65625 23.4375 67.1875 
L 17.578125 63.671875 
Q 14.84375 69.140625 9.375 73.828125 
Q 12.890625 76.171875 14.453125 78.125 
z
" id="SimHei-25968"/>
      </defs>
      <use xlink:href="#SimHei-35835"/>
      <use x="100" xlink:href="#SimHei-24310"/>
      <use x="200" xlink:href="#SimHei-36831"/>
      <use x="300" xlink:href="#SimHei-20998"/>
      <use x="400" xlink:href="#SimHei-20301"/>
      <use x="500" xlink:href="#SimHei-25968"/>
     </g>
    </g>
   </g>
   <g id="matplotlib.axis_2">
    <g id="ytick_1">
     <g id="line2d_6">
      <defs>
       <path d="M 0 0 
L -3.5 0 
" id="m98442e4849" style="stroke:#000000;stroke-width:0.8;"/>
      </defs>
      <g>
       <use style="stroke:#000000;stroke-width:0.8;" x="51.503125" xlink:href="#m98442e4849" y="173.977547"/>
      </g>
     </g>
     <g id="text_7">
      <!-- 0 -->
      <g transform="translate(39.503125 177.415047)scale(0.1 -0.1)">
       <use xlink:href="#SimHei-48"/>
      </g>
     </g>
    </g>
    <g id="ytick_2">
     <g id="line2d_7">
      <g>
       <use style="stroke:#000000;stroke-width:0.8;" x="51.503125" xlink:href="#m98442e4849" y="151.863069"/>
      </g>
     </g>
     <g id="text_8">
      <!-- 500 -->
      <g transform="translate(29.503125 155.300569)scale(0.1 -0.1)">
       <use xlink:href="#SimHei-53"/>
       <use x="50" xlink:href="#SimHei-48"/>
       <use x="100" xlink:href="#SimHei-48"/>
      </g>
     </g>
    </g>
    <g id="ytick_3">
     <g id="line2d_8">
      <g>
       <use style="stroke:#000000;stroke-width:0.8;" x="51.503125" xlink:href="#m98442e4849" y="129.748591"/>
      </g>
     </g>
     <g id="text_9">
      <!-- 1000 -->
      <g transform="translate(24.503125 133.186091)scale(0.1 -0.1)">
       <defs>
        <path d="M 21.875 56.25 
Q 16.796875 51.171875 8.984375 46.484375 
L 8.984375 53.90625 
Q 18.75 60.546875 25 69.53125 
L 29.6875 69.53125 
L 29.6875 2.34375 
L 21.875 2.34375 
z
" id="SimHei-49"/>
       </defs>
       <use xlink:href="#SimHei-49"/>
       <use x="50" xlink:href="#SimHei-48"/>
       <use x="100" xlink:href="#SimHei-48"/>
       <use x="150" xlink:href="#SimHei-48"/>
      </g>
     </g>
    </g>
    <g id="ytick_4">
     <g id="line2d_9">
      <g>
       <use style="stroke:#000000;stroke-width:0.8;" x="51.503125" xlink:href="#m98442e4849" y="107.634112"/>
      </g>
     </g>
     <g id="text_10">
      <!-- 1500 -->
      <g transform="translate(24.503125 111.071612)scale(0.1 -0.1)">
       <use xlink:href="#SimHei-49"/>
       <use x="50" xlink:href="#SimHei-53"/>
       <use x="100" xlink:href="#SimHei-48"/>
       <use x="150" xlink:href="#SimHei-48"/>
      </g>
     </g>
    </g>
    <g id="ytick_5">
     <g id="line2d_10">
      <g>
       <use style="stroke:#000000;stroke-width:0.8;" x="51.503125" xlink:href="#m98442e4849" y="85.519634"/>
      </g>
     </g>
     <g id="text_11">
      <!-- 2000 -->
      <g transform="translate(24.503125 88.957134)scale(0.1 -0.1)">
       <defs>
        <path d="M 4.6875 3.90625 
Q 5.078125 9.765625 10.15625 14.453125 
Q 15.234375 19.140625 23.046875 29.09375 
Q 30.859375 39.0625 33.203125 44.53125 
Q 35.546875 50 34.953125 53.90625 
Q 34.375 57.8125 31.25 60.34375 
Q 28.125 62.890625 24.015625 62.5 
Q 19.921875 62.109375 16.203125 59.375 
Q 12.5 56.640625 10.546875 51.171875 
L 3.125 52.34375 
Q 6.25 61.328125 11.125 65.421875 
Q 16.015625 69.53125 22.65625 69.921875 
Q 26.5625 70.3125 29.6875 69.71875 
Q 32.8125 69.140625 36.125 66.984375 
Q 39.453125 64.84375 41.59375 60.546875 
Q 43.75 56.25 43.15625 50.1875 
Q 42.578125 44.140625 37.109375 35.734375 
Q 31.640625 27.34375 16.015625 9.375 
L 44.140625 9.375 
L 44.140625 2.34375 
L 4.6875 2.34375 
z
" id="SimHei-50"/>
       </defs>
       <use xlink:href="#SimHei-50"/>
       <use x="50" xlink:href="#SimHei-48"/>
       <use x="100" xlink:href="#SimHei-48"/>
       <use x="150" xlink:href="#SimHei-48"/>
      </g>
     </g>
    </g>
    <g id="ytick_6">
     <g id="line2d_11">
      <g>
       <use style="stroke:#000000;stroke-width:0.8;" x="51.503125" xlink:href="#m98442e4849" y="63.405156"/>
      </g>
     </g>
     <g id="text_12">
      <!-- 2500 -->
      <g transform="translate(24.503125 66.842656)scale(0.1 -0.1)">
       <use xlink:href="#SimHei-50"/>
       <use x="50" xlink:href="#SimHei-53"/>
       <use x="100" xlink:href="#SimHei-48"/>
       <use x="150" xlink:href="#SimHei-48"/>
      </g>
     </g>
    </g>
    <g id="ytick_7">
     <g id="line2d_12">
      <g>
       <use style="stroke:#000000;stroke-width:0.8;" x="51.503125" xlink:href="#m98442e4849" y="41.290678"/>
      </g>
     </g>
     <g id="text_13">
      <!-- 3000 -->
      <g transform="translate(24.503125 44.728178)scale(0.1 -0.1)">
       <defs>
        <path d="M 3.90625 19.140625 
L 10.9375 20.3125 
Q 12.5 15.234375 16.015625 11.90625 
Q 19.53125 8.59375 24.796875 8.78125 
Q 30.078125 8.984375 33.203125 13.078125 
Q 36.328125 17.1875 35.9375 22.453125 
Q 35.546875 27.734375 31.828125 30.65625 
Q 28.125 33.59375 19.921875 34.765625 
L 19.921875 39.84375 
Q 28.125 40.625 31.828125 44.140625 
Q 35.546875 47.65625 35.15625 53.3125 
Q 34.765625 58.984375 30.078125 61.515625 
Q 25.390625 64.0625 20.109375 62.109375 
Q 14.84375 60.15625 11.71875 51.171875 
L 4.6875 52.34375 
Q 7.03125 59.375 11.125 64.0625 
Q 15.234375 68.75 22.265625 69.53125 
Q 29.296875 70.3125 34.5625 67.765625 
Q 39.84375 65.234375 41.984375 59.953125 
Q 44.140625 54.6875 42.578125 48.4375 
Q 41.015625 42.1875 33.59375 37.5 
Q 39.0625 35.15625 41.984375 30.46875 
Q 44.921875 25.78125 43.9375 18.15625 
Q 42.96875 10.546875 37.109375 5.859375 
Q 31.25 1.171875 23.828125 1.359375 
Q 16.40625 1.5625 10.9375 6.046875 
Q 5.46875 10.546875 3.90625 19.140625 
z
" id="SimHei-51"/>
       </defs>
       <use xlink:href="#SimHei-51"/>
       <use x="50" xlink:href="#SimHei-48"/>
       <use x="100" xlink:href="#SimHei-48"/>
       <use x="150" xlink:href="#SimHei-48"/>
      </g>
     </g>
    </g>
    <g id="ytick_8">
     <g id="line2d_13">
      <g>
       <use style="stroke:#000000;stroke-width:0.8;" x="51.503125" xlink:href="#m98442e4849" y="19.176199"/>
      </g>
     </g>
     <g id="text_14">
      <!-- 3500 -->
      <g transform="translate(24.503125 22.613699)scale(0.1 -0.1)">
       <use xlink:href="#SimHei-51"/>
       <use x="50" xlink:href="#SimHei-53"/>
       <use x="100" xlink:href="#SimHei-48"/>
       <use x="150" xlink:href="#SimHei-48"/>
      </g>
     </g>
    </g>
    <g id="text_15">
     <!-- 延迟 (us) -->
     <g transform="translate(19.253125 116.195313)rotate(-90)scale(0.1 -0.1)">
      <defs>
       <path id="SimHei-32"/>
       <path d="M 46.484375 -3.125 
L 42.1875 -7.421875 
Q 32.421875 1.953125 27.53125 12.109375 
Q 22.65625 22.265625 22.65625 35.15625 
Q 22.65625 48.046875 27.53125 58.203125 
Q 32.421875 68.359375 42.1875 78.125 
L 46.484375 73.828125 
Q 37.5 65.234375 33 56.046875 
Q 28.515625 46.875 28.515625 35.15625 
Q 28.515625 23.4375 33 14.25 
Q 37.5 5.078125 46.484375 -3.125 
z
" id="SimHei-40"/>
       <path d="M 43.75 1.953125 
L 35.9375 1.953125 
L 35.9375 10.15625 
Q 32.8125 5.859375 29.09375 3.515625 
Q 25.390625 1.171875 19.53125 1.171875 
Q 12.5 1.171875 8.984375 5.078125 
Q 5.46875 8.984375 5.46875 14.84375 
L 5.46875 45.703125 
L 13.28125 45.703125 
L 13.28125 17.578125 
Q 13.28125 12.890625 15.625 10.15625 
Q 17.96875 7.421875 21.875 7.421875 
Q 26.953125 7.421875 31.4375 12.6875 
Q 35.9375 17.96875 35.9375 25.78125 
L 35.9375 45.703125 
L 43.75 45.703125 
z
" id="SimHei-117"/>
       <path d="M 42.96875 14.0625 
Q 42.96875 7.8125 38.078125 4.484375 
Q 33.203125 1.171875 25.78125 1.171875 
Q 16.40625 1.171875 11.328125 4.875 
Q 6.25 8.59375 6.25 15.625 
L 14.0625 15.625 
Q 14.0625 10.9375 17.375 9.375 
Q 20.703125 7.8125 25.390625 7.8125 
Q 30.078125 7.8125 32.421875 9.5625 
Q 34.765625 11.328125 34.765625 14.0625 
Q 34.765625 16.015625 32.8125 17.96875 
Q 30.859375 19.921875 23.046875 21.09375 
Q 14.0625 22.265625 10.734375 25.578125 
Q 7.421875 28.90625 7.421875 34.375 
Q 7.421875 39.0625 11.90625 42.765625 
Q 16.40625 46.484375 25 46.484375 
Q 32.8125 46.484375 37.296875 42.96875 
Q 41.796875 39.453125 41.796875 33.59375 
L 33.984375 33.59375 
Q 33.984375 37.109375 31.4375 38.46875 
Q 28.90625 39.84375 25 39.84375 
Q 19.921875 39.84375 17.765625 38.078125 
Q 15.625 36.328125 15.625 33.984375 
Q 15.625 31.25 17.578125 29.6875 
Q 19.53125 28.125 25.78125 27.34375 
Q 35.9375 25.78125 39.453125 22.453125 
Q 42.96875 19.140625 42.96875 14.0625 
z
" id="SimHei-115"/>
       <path d="M 26.171875 35.15625 
Q 26.171875 22.265625 21.28125 12.109375 
Q 16.40625 1.953125 6.640625 -7.421875 
L 2.34375 -3.125 
Q 11.328125 5.078125 15.8125 14.25 
Q 20.3125 23.4375 20.3125 35.15625 
Q 20.3125 46.875 15.8125 56.046875 
Q 11.328125 65.234375 2.34375 73.828125 
L 6.640625 78.125 
Q 16.40625 68.359375 21.28125 58.203125 
Q 26.171875 48.046875 26.171875 35.15625 
z
" id="SimHei-41"/>
      </defs>
      <use xlink:href="#SimHei-24310"/>
      <use x="100" xlink:href="#SimHei-36831"/>
      <use x="200" xlink:href="#SimHei-32"/>
      <use x="250" xlink:href="#SimHei-40"/>
      <use x="300" xlink:href="#SimHei-117"/>
      <use x="350" xlink:href="#SimHei-115"/>
      <use x="400" xlink:href="#SimHei-41"/>
     </g>
    </g>
   </g>
   <g id="line2d_14">
    <path clip-path="url(#pcfdd06b258)" d="M 65.034801 163.816741 
L 132.693182 146.251918 
L 200.351562 118.211202 
L 268.009943 75.677586 
L 335.668324 53.62348 
" style="fill:none;stroke:#1f77b4;stroke-linecap:square;stroke-width:1.5;"/>
   </g>
   <g id="line2d_15">
    <path clip-path="url(#pcfdd06b258)" d="M 65.034801 133.649364 
L 132.693182 94.896483 
L 200.351562 68.746156 
L 268.009943 42.910917 
L 335.668324 18.335938 
" style="fill:none;stroke:#ff7f0e;stroke-linecap:square;stroke-width:1.5;"/>
   </g>
   <g id="line2d_16">
    <path clip-path="url(#pcfdd06b258)" d="M 65.034801 163.580425 
L 132.693182 157.27917 
L 200.351562 147.039592 
L 268.009943 78.828235 
L 335.668324 31.568622 
" style="fill:none;stroke:#2ca02c;stroke-linecap:square;stroke-width:1.5;"/>
   </g>
   <g id="line2d_17">
    <path clip-path="url(#pcfdd06b258)" d="M 65.034801 168.779008 
L 132.693182 161.532536 
L 200.351562 158.53943 
L 268.009943 144.203985 
L 335.668324 63.075031 
" style="fill:none;stroke:#d62728;stroke-linecap:square;stroke-width:1.5;"/>
   </g>
   <g id="line2d_18">
    <path clip-path="url(#pcfdd06b258)" d="M 65.034801 169.054688 
L 132.693182 162.871524 
L 200.351562 160.193505 
L 268.009943 151.765544 
L 335.668324 137.115056 
" style="fill:none;stroke:#9467bd;stroke-linecap:square;stroke-width:1.5;"/>
   </g>
   <g id="patch_3">
    <path d="M 51.503125 176.590625 
L 51.503125 10.8 
" style="fill:none;stroke:#000000;stroke-linecap:square;stroke-linejoin:miter;stroke-width:0.8;"/>
   </g>
   <g id="patch_4">
    <path d="M 349.2 176.590625 
L 349.2 10.8 
" style="fill:none;stroke:#000000;stroke-linecap:square;stroke-linejoin:miter;stroke-width:0.8;"/>
   </g>
   <g id="patch_5">
    <path d="M 51.503125 176.590625 
L 349.2 176.590625 
" style="fill:none;stroke:#000000;stroke-linecap:square;stroke-linejoin:miter;stroke-width:0.8;"/>
   </g>
   <g id="patch_6">
    <path d="M 51.503125 10.8 
L 349.2 10.8 
" style="fill:none;stroke:#000000;stroke-linecap:square;stroke-linejoin:miter;stroke-width:0.8;"/>
   </g>
   <g id="legend_1">
    <g id="patch_7">
     <path d="M 58.503125 89.932813 
L 185.503125 89.932813 
Q 187.503125 89.932813 187.503125 87.932813 
L 187.503125 17.8 
Q 187.503125 15.8 185.503125 15.8 
L 58.503125 15.8 
Q 56.503125 15.8 56.503125 17.8 
L 56.503125 87.932813 
Q 56.503125 89.932813 58.503125 89.932813 
z
" style="fill:#ffffff;opacity:0.8;stroke:#cccccc;stroke-linejoin:miter;"/>
    </g>
    <g id="line2d_19">
     <path d="M 60.503125 24.229688 
L 80.503125 24.229688 
" style="fill:none;stroke:#1f77b4;stroke-linecap:square;stroke-width:1.5;"/>
    </g>
    <g id="line2d_20"/>
    <g id="text_16">
     <!-- 读写混合 -->
     <g transform="translate(88.503125 27.729688)scale(0.1 -0.1)">
      <defs>
       <path d="M 35.9375 62.890625 
Q 34.765625 56.640625 34.375 51.953125 
L 67.1875 51.953125 
Q 73.4375 51.953125 79.296875 52.34375 
L 79.296875 45.3125 
Q 73.828125 45.703125 69.921875 45.703125 
L 33.984375 45.703125 
L 32.421875 33.203125 
L 85.9375 33.203125 
Q 85.9375 22.265625 84.5625 9.375 
Q 83.203125 -3.515625 78.125 -5.65625 
Q 73.046875 -7.8125 62.109375 -8.984375 
Q 61.328125 -4.6875 58.59375 -0.78125 
Q 68.75 -0.78125 70.890625 0 
Q 73.046875 0.78125 75 2.921875 
Q 76.953125 5.078125 77.734375 26.953125 
L 24.21875 26.953125 
Q 27.34375 57.8125 27.34375 63.671875 
L 35.9375 62.890625 
z
M 91.796875 75 
Q 91.40625 70.703125 91.40625 66.796875 
Q 91.40625 62.890625 91.796875 57.421875 
L 83.984375 57.421875 
L 83.984375 68.359375 
L 16.40625 68.359375 
L 16.40625 55.46875 
L 8.59375 55.46875 
Q 8.984375 60.15625 8.984375 64.84375 
Q 8.984375 69.921875 8.59375 75 
L 91.796875 75 
z
M 51.5625 15.234375 
Q 58.59375 15.234375 66.015625 15.625 
L 66.015625 8.203125 
Q 58.59375 8.59375 51.5625 8.59375 
L 24.21875 8.59375 
Q 16.015625 8.59375 9.765625 8.203125 
L 9.765625 15.625 
Q 16.015625 15.234375 23.828125 15.234375 
z
" id="SimHei-20889"/>
       <path d="M 83.59375 78.515625 
Q 83.203125 70.703125 83.203125 63.28125 
L 83.203125 53.515625 
Q 83.203125 46.875 83.59375 39.453125 
L 33.59375 39.453125 
Q 33.984375 46.875 33.984375 53.125 
L 33.984375 63.28125 
Q 33.984375 70.3125 33.59375 78.515625 
L 83.59375 78.515625 
z
M 69.921875 35.15625 
Q 69.140625 27.34375 69.140625 25 
L 69.140625 21.09375 
Q 71.484375 22.265625 75.78125 24.609375 
Q 80.078125 26.953125 83.984375 31.640625 
Q 87.109375 27.34375 90.234375 24.609375 
Q 86.328125 23.046875 81.4375 20.703125 
Q 76.5625 18.359375 69.140625 14.453125 
L 69.140625 2.34375 
Q 69.140625 -1.5625 74.21875 -1.5625 
L 80.46875 -1.5625 
Q 83.984375 -1.5625 85.15625 1.171875 
Q 86.328125 3.90625 87.109375 10.15625 
Q 90.625 8.203125 94.53125 7.421875 
Q 92.578125 -1.953125 90.625 -4.484375 
Q 88.671875 -7.03125 85.15625 -7.03125 
L 68.75 -7.03125 
Q 62.109375 -7.03125 62.109375 -0.390625 
L 62.109375 25 
Q 62.109375 28.90625 61.71875 35.15625 
L 69.921875 35.15625 
z
M 29.296875 -1.171875 
Q 32.8125 1.5625 33.59375 7.03125 
L 33.59375 25.78125 
Q 33.59375 28.515625 33.203125 35.15625 
L 41.015625 35.15625 
Q 40.234375 28.90625 40.234375 25 
L 46.484375 25 
Q 50.78125 25 56.640625 25.390625 
L 56.640625 19.140625 
L 40.234375 19.140625 
L 40.234375 3.125 
Q 43.359375 4.296875 46.875 5.65625 
Q 50.390625 7.03125 55.078125 9.375 
Q 55.46875 6.25 56.640625 1.953125 
Q 51.5625 0.390625 44.921875 -2.34375 
Q 38.28125 -5.078125 33.203125 -8.59375 
Q 31.640625 -5.078125 29.296875 -1.171875 
z
M 76.171875 45.703125 
L 76.171875 55.859375 
L 41.015625 55.859375 
L 41.015625 45.703125 
z
M 76.171875 62.5 
L 76.171875 72.65625 
L 41.015625 72.65625 
L 41.015625 62.5 
z
M 26.5625 23.828125 
Q 24.21875 20.3125 19.328125 10.9375 
Q 14.453125 1.5625 10.15625 -6.640625 
Q 7.8125 -4.6875 3.125 -1.171875 
Q 7.421875 3.90625 12.5 12.890625 
Q 17.578125 21.875 20.3125 28.515625 
Q 23.046875 26.171875 26.5625 23.828125 
z
M 8.59375 56.640625 
Q 11.328125 54.6875 16.015625 51.5625 
Q 20.703125 48.4375 25.390625 44.921875 
Q 22.265625 41.40625 19.921875 37.890625 
Q 15.234375 42.1875 11.71875 44.921875 
Q 8.203125 47.65625 3.90625 50.390625 
Q 6.25 52.734375 8.59375 56.640625 
z
M 13.28125 81.25 
Q 16.015625 78.90625 20.5 75.578125 
Q 25 72.265625 29.296875 67.96875 
Q 26.171875 65.234375 24.21875 61.328125 
Q 21.09375 64.84375 16.796875 68.75 
Q 12.5 72.65625 8.203125 75 
Q 10.15625 77.734375 13.28125 81.25 
z
" id="SimHei-28151"/>
       <path d="M 78.90625 28.125 
Q 78.515625 24.21875 78.515625 10.15625 
Q 78.515625 -3.90625 78.90625 -8.203125 
L 70.703125 -8.203125 
L 70.703125 -0.78125 
L 27.34375 -0.78125 
L 27.34375 -9.375 
L 19.53125 -9.375 
Q 19.921875 -4.6875 19.921875 8.59375 
Q 19.921875 22.265625 19.53125 28.125 
L 78.90625 28.125 
z
M 52.734375 75 
Q 64.0625 61.328125 71.09375 56.25 
Q 78.125 51.171875 83.984375 48.4375 
Q 89.84375 45.703125 95.3125 44.140625 
Q 91.40625 39.84375 90.234375 35.9375 
Q 82.421875 39.453125 76.171875 43.359375 
Q 69.921875 47.265625 63.46875 53.3125 
Q 57.03125 59.375 48.828125 69.921875 
Q 41.40625 59.375 34.171875 52.53125 
Q 26.953125 45.703125 21.875 41.796875 
Q 16.796875 37.890625 10.546875 33.984375 
Q 9.765625 35.546875 4.296875 40.234375 
Q 12.5 44.140625 19.921875 49.609375 
Q 27.34375 55.078125 34.765625 63.46875 
Q 42.1875 71.875 46.875 81.640625 
Q 51.171875 78.90625 54.6875 77.34375 
z
M 70.703125 5.46875 
L 70.703125 21.875 
L 27.34375 21.875 
L 27.34375 5.46875 
z
M 61.328125 44.140625 
Q 67.578125 44.140625 72.265625 44.53125 
L 72.265625 37.109375 
Q 67.1875 37.5 61.71875 37.5 
L 39.84375 37.5 
Q 31.640625 37.5 26.5625 37.109375 
L 26.5625 44.53125 
Q 33.984375 44.140625 39.84375 44.140625 
z
" id="SimHei-21512"/>
      </defs>
      <use xlink:href="#SimHei-35835"/>
      <use x="100" xlink:href="#SimHei-20889"/>
      <use x="200" xlink:href="#SimHei-28151"/>
      <use x="300" xlink:href="#SimHei-21512"/>
     </g>
    </g>
    <g id="line2d_21">
     <path d="M 60.503125 38.526563 
L 80.503125 38.526563 
" style="fill:none;stroke:#ff7f0e;stroke-linecap:square;stroke-width:1.5;"/>
    </g>
    <g id="line2d_22"/>
    <g id="text_17">
     <!-- 写：读窗口=0.4:4ms -->
     <g transform="translate(88.503125 42.026563)scale(0.1 -0.1)">
      <defs>
       <path d="M 18.75 37.890625 
L 31.640625 37.890625 
L 31.640625 25 
L 18.75 25 
z
M 18.75 12.890625 
L 31.640625 12.890625 
L 31.640625 0 
L 18.75 0 
z
" id="SimHei-65306"/>
       <path d="M 51.5625 53.125 
Q 47.65625 48.828125 44.921875 44.140625 
L 84.765625 44.140625 
Q 84.375 35.9375 84.375 29.296875 
L 84.375 6.640625 
Q 84.375 -0.390625 84.765625 -9.375 
L 76.953125 -9.375 
L 76.953125 -3.90625 
L 23.4375 -3.90625 
L 23.4375 -9.375 
L 15.625 -9.375 
Q 16.015625 -0.390625 16.015625 7.8125 
L 16.015625 28.125 
Q 16.015625 34.765625 15.625 44.140625 
L 37.5 44.140625 
Q 42.1875 51.953125 43.359375 56.25 
Q 47.65625 54.6875 51.5625 53.125 
z
M 76.953125 2.34375 
L 76.953125 38.28125 
L 23.4375 38.28125 
L 23.4375 2.34375 
z
M 50.390625 82.8125 
Q 52.734375 74.609375 53.515625 71.484375 
L 92.1875 71.484375 
Q 91.796875 67.1875 91.796875 63.671875 
Q 91.796875 60.15625 92.1875 56.25 
L 84.765625 56.25 
L 84.765625 65.234375 
L 16.015625 65.234375 
L 16.015625 54.6875 
L 7.8125 54.6875 
Q 8.203125 58.203125 8.203125 62.5 
Q 8.203125 67.1875 7.8125 71.484375 
L 45.3125 71.484375 
Q 43.75 76.5625 42.1875 80.078125 
Q 45.3125 80.859375 50.390625 82.8125 
z
M 64.84375 6.640625 
Q 62.109375 5.46875 57.8125 2.734375 
Q 54.296875 7.03125 51.5625 8.984375 
Q 45.3125 6.640625 40.8125 5.65625 
Q 36.328125 4.6875 31.640625 3.515625 
Q 30.859375 7.03125 28.515625 10.15625 
Q 33.59375 10.546875 37.890625 11.515625 
Q 42.1875 12.5 46.09375 13.671875 
Q 42.578125 16.015625 38.671875 19.140625 
Q 41.015625 20.703125 43.359375 23.046875 
Q 47.265625 19.53125 52.34375 16.40625 
Q 57.8125 19.53125 60.9375 24.609375 
L 39.453125 24.609375 
Q 35.15625 20.703125 30.078125 17.1875 
Q 28.125 20.3125 25.390625 21.875 
Q 30.46875 25 34.375 28.515625 
Q 38.28125 32.03125 41.40625 37.109375 
Q 45.3125 34.765625 48.828125 33.203125 
Q 46.875 31.640625 45.3125 30.078125 
L 72.265625 30.078125 
Q 68.75 23.4375 65.625 19.71875 
Q 62.5 16.015625 57.8125 12.5 
Q 62.109375 9.375 64.84375 6.640625 
z
M 60.9375 64.0625 
Q 65.234375 62.5 72.265625 59.765625 
Q 79.296875 57.03125 88.671875 53.125 
Q 86.71875 49.609375 85.15625 46.09375 
Q 75.390625 51.171875 69.140625 53.515625 
Q 62.890625 55.859375 57.03125 57.8125 
Q 58.984375 60.15625 60.9375 64.0625 
z
M 41.015625 57.03125 
Q 35.15625 54.6875 29.6875 52.34375 
L 14.0625 45.3125 
Q 12.5 48.828125 10.546875 51.5625 
Q 16.796875 53.515625 23.625 56.640625 
Q 30.46875 59.765625 36.71875 63.671875 
Q 38.671875 59.765625 41.015625 57.03125 
z
" id="SimHei-31383"/>
       <path d="M 84.765625 67.1875 
Q 84.375 58.984375 84.375 49.609375 
L 84.375 8.59375 
Q 84.375 1.5625 84.765625 -6.640625 
L 76.5625 -6.640625 
L 76.5625 1.5625 
L 23.828125 1.5625 
L 23.828125 -6.640625 
L 15.625 -6.640625 
Q 16.015625 0 16.015625 8.59375 
L 16.015625 49.609375 
Q 16.015625 58.984375 15.625 67.1875 
L 84.765625 67.1875 
z
M 76.5625 8.203125 
L 76.5625 60.546875 
L 23.828125 60.546875 
L 23.828125 8.203125 
z
" id="SimHei-21475"/>
       <path d="M 46.484375 45.3125 
L 1.953125 45.3125 
L 1.953125 51.5625 
L 46.484375 51.5625 
z
M 46.484375 21.484375 
L 1.953125 21.484375 
L 1.953125 27.734375 
L 46.484375 27.734375 
z
" id="SimHei-61"/>
       <path d="M 31.25 17.1875 
L 1.171875 17.1875 
L 1.171875 23.828125 
L 32.8125 69.53125 
L 38.671875 69.53125 
L 38.671875 23.828125 
L 48.046875 23.828125 
L 48.046875 17.1875 
L 38.671875 17.1875 
L 38.671875 2.34375 
L 31.25 2.34375 
z
M 31.25 23.828125 
L 31.25 54.6875 
L 9.375 23.828125 
z
" id="SimHei-52"/>
       <path d="M 28.515625 37.890625 
L 19.53125 37.890625 
L 19.53125 46.484375 
L 28.515625 46.484375 
z
M 28.515625 1.953125 
L 19.53125 1.953125 
L 19.53125 10.546875 
L 28.515625 10.546875 
z
" id="SimHei-58"/>
       <path d="M 47.65625 1.953125 
L 39.84375 1.953125 
L 39.84375 33.59375 
Q 39.84375 35.9375 39.0625 37.5 
Q 38.28125 39.0625 35.9375 39.0625 
Q 33.203125 39.0625 30.859375 36.125 
Q 28.515625 33.203125 28.515625 28.515625 
L 28.515625 1.953125 
L 20.703125 1.953125 
L 20.703125 33.59375 
Q 20.703125 35.9375 19.921875 37.5 
Q 19.140625 39.0625 16.796875 39.0625 
Q 14.0625 39.0625 11.71875 36.125 
Q 9.375 33.203125 9.375 28.515625 
L 9.375 1.953125 
L 1.5625 1.953125 
L 1.5625 45.703125 
L 9.375 45.703125 
L 9.375 39.84375 
Q 11.328125 42.96875 14.0625 44.71875 
Q 16.796875 46.484375 19.921875 46.484375 
Q 23.046875 46.484375 25.1875 44.71875 
Q 27.34375 42.96875 28.125 39.84375 
Q 30.078125 42.96875 32.609375 44.71875 
Q 35.15625 46.484375 38.28125 46.484375 
Q 42.96875 46.484375 45.3125 43.9375 
Q 47.65625 41.40625 47.65625 36.71875 
z
" id="SimHei-109"/>
      </defs>
      <use xlink:href="#SimHei-20889"/>
      <use x="100" xlink:href="#SimHei-65306"/>
      <use x="200" xlink:href="#SimHei-35835"/>
      <use x="300" xlink:href="#SimHei-31383"/>
      <use x="400" xlink:href="#SimHei-21475"/>
      <use x="500" xlink:href="#SimHei-61"/>
      <use x="550" xlink:href="#SimHei-48"/>
      <use x="600" xlink:href="#SimHei-46"/>
      <use x="650" xlink:href="#SimHei-52"/>
      <use x="700" xlink:href="#SimHei-58"/>
      <use x="750" xlink:href="#SimHei-52"/>
      <use x="800" xlink:href="#SimHei-109"/>
      <use x="850" xlink:href="#SimHei-115"/>
     </g>
    </g>
    <g id="line2d_23">
     <path d="M 60.503125 52.823438 
L 80.503125 52.823438 
" style="fill:none;stroke:#2ca02c;stroke-linecap:square;stroke-width:1.5;"/>
    </g>
    <g id="line2d_24"/>
    <g id="text_18">
     <!-- 写：读窗口=4:40ms -->
     <g transform="translate(88.503125 56.323438)scale(0.1 -0.1)">
      <use xlink:href="#SimHei-20889"/>
      <use x="100" xlink:href="#SimHei-65306"/>
      <use x="200" xlink:href="#SimHei-35835"/>
      <use x="300" xlink:href="#SimHei-31383"/>
      <use x="400" xlink:href="#SimHei-21475"/>
      <use x="500" xlink:href="#SimHei-61"/>
      <use x="550" xlink:href="#SimHei-52"/>
      <use x="600" xlink:href="#SimHei-58"/>
      <use x="650" xlink:href="#SimHei-52"/>
      <use x="700" xlink:href="#SimHei-48"/>
      <use x="750" xlink:href="#SimHei-109"/>
      <use x="800" xlink:href="#SimHei-115"/>
     </g>
    </g>
    <g id="line2d_25">
     <path d="M 60.503125 67.120313 
L 80.503125 67.120313 
" style="fill:none;stroke:#d62728;stroke-linecap:square;stroke-width:1.5;"/>
    </g>
    <g id="line2d_26"/>
    <g id="text_19">
     <!-- 写：读窗口=40:400ms -->
     <g transform="translate(88.503125 70.620313)scale(0.1 -0.1)">
      <use xlink:href="#SimHei-20889"/>
      <use x="100" xlink:href="#SimHei-65306"/>
      <use x="200" xlink:href="#SimHei-35835"/>
      <use x="300" xlink:href="#SimHei-31383"/>
      <use x="400" xlink:href="#SimHei-21475"/>
      <use x="500" xlink:href="#SimHei-61"/>
      <use x="550" xlink:href="#SimHei-52"/>
      <use x="600" xlink:href="#SimHei-48"/>
      <use x="650" xlink:href="#SimHei-58"/>
      <use x="700" xlink:href="#SimHei-52"/>
      <use x="750" xlink:href="#SimHei-48"/>
      <use x="800" xlink:href="#SimHei-48"/>
      <use x="850" xlink:href="#SimHei-109"/>
      <use x="900" xlink:href="#SimHei-115"/>
     </g>
    </g>
    <g id="line2d_27">
     <path d="M 60.503125 81.182813 
L 80.503125 81.182813 
" style="fill:none;stroke:#9467bd;stroke-linecap:square;stroke-width:1.5;"/>
    </g>
    <g id="line2d_28"/>
    <g id="text_20">
     <!-- 纯读 -->
     <g transform="translate(88.503125 84.682813)scale(0.1 -0.1)">
      <defs>
       <path d="M 60.9375 64.453125 
Q 60.9375 71.484375 60.546875 79.6875 
L 68.359375 79.6875 
Q 67.96875 72.65625 67.96875 64.453125 
L 78.515625 64.453125 
Q 84.765625 64.453125 91.40625 64.84375 
L 91.40625 58.203125 
Q 85.15625 58.59375 78.90625 58.59375 
L 67.96875 58.59375 
L 67.96875 26.953125 
L 80.859375 26.953125 
L 80.859375 37.890625 
Q 80.859375 43.75 80.46875 48.4375 
L 88.671875 48.4375 
Q 87.890625 44.140625 87.890625 32.03125 
Q 87.890625 20.3125 88.28125 16.015625 
L 80.859375 16.015625 
L 80.859375 20.703125 
L 67.96875 20.703125 
L 67.96875 3.90625 
Q 67.96875 -0.78125 72.65625 -0.78125 
L 81.25 -0.78125 
Q 83.59375 -0.78125 84.765625 0.390625 
Q 85.9375 1.5625 87.109375 10.15625 
Q 90.625 8.203125 95.3125 7.03125 
Q 93.359375 -0.78125 91.59375 -3.703125 
Q 89.84375 -6.640625 83.203125 -6.640625 
L 71.09375 -6.640625 
Q 60.9375 -6.640625 60.9375 0 
L 60.9375 20.703125 
L 41.015625 20.703125 
Q 41.40625 25.390625 41.40625 34.375 
Q 41.40625 43.359375 41.015625 48.4375 
L 49.21875 48.4375 
Q 48.828125 42.96875 48.828125 39.0625 
L 48.828125 26.953125 
L 60.9375 26.953125 
L 60.9375 58.59375 
L 52.34375 58.59375 
Q 44.140625 58.59375 37.890625 58.203125 
L 37.890625 64.84375 
Q 44.140625 64.453125 52.34375 64.453125 
z
M 35.9375 20.3125 
Q 34.375 20.3125 25.96875 19.53125 
Q 17.578125 18.75 8.984375 16.796875 
Q 7.8125 20.3125 6.25 24.609375 
Q 9.375 25.390625 13.859375 30.65625 
Q 18.359375 35.9375 23.828125 43.75 
Q 19.921875 43.75 15.03125 43.15625 
Q 10.15625 42.578125 6.640625 41.015625 
Q 5.859375 43.75 3.515625 48.4375 
Q 7.03125 49.21875 12.109375 58.390625 
Q 17.1875 67.578125 20.3125 78.90625 
Q 24.21875 76.5625 29.296875 74.609375 
Q 25.78125 71.09375 22.0625 64.453125 
Q 18.359375 57.8125 12.890625 48.828125 
L 26.953125 49.21875 
Q 29.6875 53.125 31.640625 58.203125 
Q 35.15625 55.46875 40.234375 53.515625 
Q 36.328125 51.171875 31.640625 44.328125 
Q 26.953125 37.5 16.796875 25.390625 
Q 30.859375 26.171875 35.9375 26.953125 
L 35.9375 20.3125 
z
M 38.671875 3.90625 
Q 31.640625 2.734375 22.65625 0.1875 
Q 13.671875 -2.34375 7.03125 -4.6875 
Q 5.078125 0.390625 3.515625 3.125 
Q 14.453125 5.078125 18.9375 6.046875 
Q 23.4375 7.03125 38.671875 10.9375 
z
" id="SimHei-32431"/>
      </defs>
      <use xlink:href="#SimHei-32431"/>
      <use x="100" xlink:href="#SimHei-35835"/>
     </g>
    </g>
   </g>
  </g>
 </g>
 <defs>
  <clipPath id="pcfdd06b258">
   <rect height="165.790625" width="297.696875" x="51.503125" y="10.8"/>
  </clipPath>
 </defs>
</svg>
